<?xml version="1.0" encoding="utf-8"?>
<!-- Generator: Adobe Illustrator 18.0.0, SVG Export Plug-In . SVG Version: 6.00 Build 0)  -->
<!DOCTYPE svg PUBLIC "-//W3C//DTD SVG 1.1//EN" "http://www.w3.org/Graphics/SVG/1.1/DTD/svg11.dtd">
<svg version="1.1" id="Layer_1" xmlns="http://www.w3.org/2000/svg" xmlns:xlink="http://www.w3.org/1999/xlink" x="0px" y="0px"
	 viewBox="0 207.2 369.6 40.1" enable-background="new 0 207.2 369.6 40.1" xml:space="preserve">
<rect id="bg" x="-69.1" y="152" display="none" fill="#FF4444" width="1326.1" height="828.8"/>
<g>
	<path fill="none" d="M50.1,221.2c-3.9,0-6.9,3-6.9,6.9C43.2,224.3,46.3,221.2,50.1,221.2z"/>
	<path fill="none" d="M43.2,228.1c0,3.9,3,6.9,6.9,6.9C46.3,235,43.2,231.9,43.2,228.1z"/>
	<path fill="none" d="M50.1,221.2c3.8,0,6.9,3.1,6.9,6.9C57.1,224.2,54,221.2,50.1,221.2z"/>
	<path fill="none" d="M22.5,221.2c3.8,0,6.9,3.1,6.9,6.9C29.4,224.2,26.4,221.2,22.5,221.2z"/>
	<path fill="none" d="M50.1,235c3.9,0,6.9-3,6.9-6.9C57.1,231.9,54,235,50.1,235z"/>
	<path fill="none" d="M15.6,228.1c0,3.9,3,6.9,6.9,6.9C18.7,235,15.6,231.9,15.6,228.1z"/>
	<path fill="none" d="M348,208.8c0.4,0.4,0.8,0.9,1,1.4C348.8,209.6,348.4,209.2,348,208.8z"/>
	<path fill="none" d="M345,207.3c0.9,0.1,1.7,0.5,2.4,1C346.7,207.8,345.8,207.4,345,207.3z"/>
	<path fill="none" d="M349.4,211L349.4,211c-0.1-0.3-0.2-0.6-0.3-0.8C349.2,210.4,349.3,210.7,349.4,211L349.4,211z"/>
	<path fill="none" d="M22.5,221.2c-3.9,0-6.9,3-6.9,6.9C15.6,224.3,18.7,221.2,22.5,221.2z"/>
	<path fill="none" d="M70.9,228.1c0,3.9,3,6.9,6.9,6.9C74,235,70.9,231.9,70.9,228.1z"/>
	<path fill="none" d="M22.5,235c3.9,0,6.9-3,6.9-6.9C29.4,231.9,26.3,235,22.5,235z"/>
	<path fill="none" d="M77.8,221.2c-3.9,0-6.9,3-6.9,6.9C70.9,224.3,74,221.2,77.8,221.2z"/>
	<path fill="none" d="M77.8,221.2c3.8,0,6.9,3.1,6.9,6.9C84.7,224.2,81.6,221.2,77.8,221.2z"/>
	<path fill="none" d="M77.8,235c3.9,0,6.9-3,6.9-6.9C84.7,231.9,81.6,235,77.8,235z"/>
	<path fill="#E6E5E0" d="M369.6,207.2h-25.5c0.3,0,0.6,0,0.9,0.1c0.9,0.1,1.7,0.5,2.4,1c0.2,0.2,0.5,0.3,0.7,0.5
		c0.4,0.4,0.8,0.9,1,1.4c0.1,0.3,0.2,0.5,0.3,0.8l0,0l11.7,34.8c0.1,0.6,0.5,1.1,0.8,1.5h7.7V207.2z"/>
	<path fill="#E6E5E0" d="M125.8,210.9c0.7-2.2,2.9-3.7,5.2-3.7H0v40.2h113.3c0.4-0.6,0.8-1.1,1-1.7L125.8,210.9z M22.5,235
		c-3.9,0-6.9-3-6.9-6.9s3-6.9,6.9-6.9c3.9,0,6.9,3,6.9,6.9S26.4,235,22.5,235z M50.1,235c-3.9,0-6.9-3-6.9-6.9s3-6.9,6.9-6.9
		s6.9,3,6.9,6.9S54,235,50.1,235z M77.8,235c-3.9,0-6.9-3-6.9-6.9s3-6.9,6.9-6.9c3.9,0,6.9,3,6.9,6.9S81.6,235,77.8,235z"/>
	<circle fill="#F07060" cx="22.5" cy="228.1" r="6.9"/>
	<circle fill="#ADCE57" cx="50.1" cy="228.1" r="6.9"/>
	<circle fill="#FAD455" cx="77.8" cy="228.1" r="6.9"/>
	<path fill="#FFFFFF" d="M361,245.8L349.4,211l0,0c-0.1-0.3-0.2-0.5-0.3-0.8c-0.3-0.5-0.6-1-1-1.4c-0.2-0.2-0.4-0.4-0.7-0.5
		c-0.7-0.5-1.5-0.8-2.4-1c-0.3,0-0.6-0.1-0.9-0.1h-213c-2.3,0-4.6,1.5-5.2,3.7l-11.6,34.8c-0.1,0.7-0.6,1.2-1,1.7h248.8
		c0,0-0.1-0.1-0.1-0.1h0C361.5,247.3,361.1,246.3,361,245.8z M200.3,232.1h-64.9v-6.9h64.9V232.1z M247.3,232.1h-29v-6.9h29V232.1z
		 M303.9,232.1h-38.7v-6.9h38.7V232.1z"/>
	<path fill="#FFFFFF" d="M349.4,211l11.6,34.8c0.1,0.6,0.6,1.5,1,1.5h0c-0.4-0.4-0.7-0.9-0.8-1.5L349.4,211z"/>
	<path fill="#FFFFFF" d="M113.3,247.4c0.4-0.4,0.8-1,1-1.7C114.1,246.3,113.7,246.9,113.3,247.4z"/>
	<rect x="135.4" y="225.2" fill="#E6E5E0" width="64.9" height="6.9"/>
	<rect x="218.3" y="225.2" fill="#E6E5E0" width="29" height="6.9"/>
	<rect x="265.2" y="225.2" fill="#E6E5E0" width="38.7" height="6.9"/>
</g>
</svg>
