<?xml version="1.0" encoding="utf-8"?>
<!-- Generator: Adobe Illustrator 18.0.0, SVG Export Plug-In . SVG Version: 6.00 Build 0)  -->
<!DOCTYPE svg PUBLIC "-//W3C//DTD SVG 1.1//EN" "http://www.w3.org/Graphics/SVG/1.1/DTD/svg11.dtd">
<svg version="1.1" id="Layer_1" xmlns="http://www.w3.org/2000/svg" xmlns:xlink="http://www.w3.org/1999/xlink" x="0px" y="0px"
	 viewBox="0 0 755 396" enable-background="new 0 0 755 396" xml:space="preserve">
<g>
	<g>
		<path fill="#F89C1C" d="M743.7,348.9c4.9,4.5,8,10.9,8,18c0,13.8-11.4,24.9-25.5,24.9c-7.1,0-13.9-3.1-18.6-7.7
			c-2.2,4.7-10.4,7.9-19.8,7.9c-9.3,0-17.1-3.4-19.4-8c-2.2,4.6-10.1,8-19.4,8c-9.3,0-17.1-3.4-19.4-8c-2.2,4.6-10.1,8-19.4,8
			c-9.3,0-17.2-3.4-19.4-8.1c-2.2,4.7-10.1,8.1-19.4,8.1c-9.3,0-17.2-3.4-19.4-8.1c-2.2,4.6-10.1,8.1-19.4,8.1
			c-9.3,0-17.2-3.4-19.4-8.1c-2.2,4.6-10.1,8.1-19.4,8.1c-9.3,0-17.2-3.4-19.4-8.1c-2.2,4.6-10.1,8.1-19.4,8.1
			c-9.4,0-17.2-3.3-19.4-8c-2.1,4.7-10.3,8-19.6,8c-9.3,0-17.1-3.4-19.4-8c-2.2,4.6-10.1,8-19.4,8c-9.3,0-17.1-3.4-19.4-8
			c-2.2,4.6-10.1,8-19.4,8c-9.3,0-17.2-3.4-19.4-8.1c-2.2,4.7-10.1,8.1-19.4,8.1c-9.3,0-17.2-3.4-19.4-8.1
			c-2.2,4.6-10.1,8.1-19.4,8.1c-9.3,0-17.2-3.4-19.4-8.1c-2.2,4.6-10.1,8.1-19.4,8.1c-9.3,0-17.2-3.4-19.4-8.1
			c-2.2,4.6-10.1,8.1-19.4,8.1c-9.4,0-17.4-3.5-19.5-8.2c-2.2,4.7-10.1,8.2-19.5,8.2c-9.3,0-17-3.4-19.3-8c-2.2,4.6-10.1,8-19.4,8
			c-9.3,0-17.2-3.5-19.4-8.1c-2.2,4.7-10.1,8.1-19.4,8.1c-9.3,0-17.1-3.4-19.3-8c-4.7,4.9-11.2,8-18.5,8
			c-14.1,0-25.5-11.4-25.5-25.5c0-7.1,3.1-13.6,7.9-18.2c-4.6-2.2-8-9.8-8-18.9c0-9.1,3.4-16.8,8.1-19c-4.6-2.2-8.1-9.9-8.1-19
			c0-9.1,3.4-16.8,8-19c-4.6-2.2-8-9.9-8-19c0-9.1,3.4-16.8,8-19c-4.6-2.2-8-9.9-8-19c0-9.1,3.4-16.8,8-19c-4.6-2.2-8-9.9-8-19
			c0-9.2,3.5-17,8.1-19.1c-4.7-2.1-8.1-9.9-8.1-19c0-9,3.4-16.7,8-18.8c-4.6-2.2-8-9.8-8-18.9c0-9.1,3.5-16.8,8.1-19
			C6.4,80.6,3,72.9,3,63.8c0-9.1,3.4-16.7,8-18.9c-4.9-4.5-8-11-8-18.1C3,13,14.5,1.8,28.6,1.8c7.1,0,13.6,2.9,18.2,7.5l0.6,0.7
			c2.2-4.7,10-8.2,19.4-8.2c9.3,0,17.2,3.4,19.4,8c2.2-4.6,10.1-8,19.4-8c9.3,0,17.1,3.4,19.4,8c2.2-4.6,10.1-8,19.4-8
			c9.3,0,17.2,3.4,19.4,8.1c2.2-4.6,10.1-8.1,19.4-8.1c9.3,0,17.2,3.4,19.4,8.1c2.2-4.6,10.1-8.1,19.4-8.1c9.3,0,17.2,3.4,19.4,8.1
			c2.2-4.6,10.1-8.1,19.4-8.1c9.3,0,17.2,3.4,19.4,8.1c2.2-4.6,10.1-8.1,19.4-8.1c9.4,0,17.4,3.5,19.5,8.1
			c2.2-4.7,10.1-8.1,19.5-8.1c9.3,0,17,3.4,19.3,8c2.2-4.6,10.1-8,19.4-8c9.3,0,17.2,3.4,19.4,8.1c2.2-4.7,10.1-8.1,19.4-8.1
			c9.3,0,17.2,3.4,19.5,8c2.2-4.6,10.2-8,19.6-8c9.3,0,17.2,3.4,19.4,8.1c2.2-4.6,10.1-8.1,19.4-8.1c9.3,0,17.2,3.4,19.4,8.1
			c2.2-4.6,10.1-8.1,19.4-8.1c9.3,0,17.2,3.4,19.4,8.1c2.2-4.6,10.1-8.1,19.4-8.1c9.4,0,17.4,3.5,19.6,8.1
			c2.1-4.7,10.1-8.1,19.5-8.1c9.3,0,17,3.4,19.3,8c2.2-4.6,10.1-8,19.4-8c9.3,0,17.2,3.4,19.4,8.1c2.2-4.7,10.1-8.1,19.4-8.1
			c9.3,0,17.1,3.4,19.3,8c4.7-4.9,11.2-8,18.5-8c14.1,0,25.5,11.4,25.5,25.5c0,7.1-3,13.5-7.7,18.2c4.6,2.2,7.9,9.8,7.9,18.9
			c0,9.1-3.4,16.7-8,18.9c4.6,2.2,8,9.9,8,19c0,9.1-3.4,16.8-8.1,19c4.6,2.2,8.1,9.9,8.1,19c0,9.1-3.4,16.8-8,19c4.6,2.2,8,9.9,8,19
			c0,9.1-3.4,16.8-8,19c4.6,2.2,8,9.9,8,19c0,9.1-3.4,16.8-8,19c4.6,2.2,8,9.9,8,19c0,9.2-3.5,17-8.1,19.1c4.7,2.1,8.1,9.9,8.1,19
			c0,9-3.4,16.7-8,18.8c4.6,2.2,8,9.8,8,18.9C751.7,339.1,748.3,346.7,743.7,348.9"/>
	</g>
</g>
<g>
	<g>
		<path fill="#FFFFFF" d="M63.4,161h14.8V65.2H63.4v-5.7h39.8c37.5,0,60,21.5,60,53c0,32-21.8,54.3-59.7,54.3H63.4V161z M104.1,161
			c34.6,0,52.3-20.1,52.3-48.7c0-28.2-19.4-47.1-53.5-47.1H84.9V161H104.1z"/>
	</g>
	<g>
		<path fill="#FFFFFF" d="M161.5,161h11.7l35.9-95.9h-13.5v-5.7h40.8v5.7h-13.5l35.9,95.9h11.9v5.7h-33.1V161h14l-12.6-34.1h-46.1
			L180.2,161h14.3v5.7h-33.1V161z M236.8,121.2l-20.9-56.6l-21,56.6H236.8z"/>
	</g>
	<g>
		<polygon fill="#FFFFFF" points="290.8,161 307.2,161 307.2,121.9 274,65.2 261.8,65.2 261.8,59.5 295,59.5 295,65.2 281.6,65.2 
			310.8,116.3 340,65.2 326.5,65.2 326.5,59.5 359.6,59.5 359.6,65.2 347.2,65.2 314.1,121.9 314.1,161 330.5,161 330.5,166.7 
			290.8,166.7 		"/>
	</g>
	<g>
		<path fill="#FFFFFF" d="M366.1,147.3c0-4.6,2.6-7.5,6-7.5c2.9,0,5.5,2.4,5.5,5.5c0,2.6-1.5,4.9-3.6,6.2
			c3.3,5.7,12.7,10.9,25.6,10.9c16.3,0,26.6-9.3,26.6-22.7c0-13.5-12.4-19.4-25.8-24.8c-16.1-6.4-30.5-13-30.5-30.3
			c0-15.6,12.9-26.9,31.1-26.9c16.5,0,29.7,10.1,29.7,19.9c0,4.2-2.8,6.8-5.9,6.8c-3.1,0-5.7-2.4-5.7-5.7c0-2.4,1.3-4.4,3.1-5.9
			c-2.8-5.2-12.6-9.3-21.5-9.3c-14.3,0-24.3,8.8-24.3,20.5c0,13.7,12.2,19.1,26.6,24.8c15.6,6.2,29.7,13.2,29.7,30.3
			c0,17.6-14.2,29-33.4,29C379.1,168.4,366.1,156.6,366.1,147.3"/>
	</g>
	<g>
		<path fill="#FFFFFF" d="M251,273.3c0-34.2,25.8-56.7,54.6-56.7c23.6,0,39.6,13.7,39.6,24.3c0,4.2-2.6,7-6.2,7
			c-3.3,0-5.7-2.6-5.7-5.9c0-2.4,1.1-4.6,3.6-5.7c-3.9-6.7-15.8-13.9-31.5-13.9c-28.9,0-47.6,23.1-47.6,50.9
			c0,28.7,20.4,47.9,45.6,47.9c13,0,25.3-4.2,36.8-13v-26.2h-32.9v-5.7h39.5v49.4h-6.4v-11.4c-11.1,8.3-22.7,12.7-37.3,12.7
			C275.8,326.9,251,306.7,251,273.3"/>
	</g>
	<g>
		<polygon fill="#FFFFFF" points="369.3,319.9 385,319.9 385,224 369.3,224 369.3,218.3 407.5,218.3 407.5,224 391.7,224 
			391.7,319.9 407.5,319.9 407.5,325.6 369.3,325.6 		"/>
	</g>
	<g>
		<path fill="#FFFFFF" d="M430.1,319.9H445V224h-14.8v-5.7h40.1c22.5,0,36.7,12.5,36.7,30c0,15.7-10.4,25.9-25.9,29.5l26.7,42.1h13
			v5.7h-17.6L474,279c-1.8,0.2-4.1,0.3-6.2,0.3c-5.9,0-11.7,0-16.1-0.2v40.8h15.2v5.7h-36.7V319.9z M500.1,248.5
			c0-15-11.6-24.5-30.3-24.5h-18.1v49.2c4.9,0.2,10.8,0.3,16.5,0.3C486.9,273.6,500.1,265,500.1,248.5"/>
	</g>
	<g>
		<polygon fill="#FFFFFF" points="537.2,319.9 552.1,319.9 552.1,224 537.2,224 537.2,218.3 574.2,218.3 574.2,224 558.8,224 
			558.8,319.9 602.3,319.9 602.3,301 608.6,301 608.6,325.6 537.2,325.6 		"/>
	</g>
	<g>
		<path fill="#FFFFFF" d="M623.3,306.2c0-4.6,2.6-7.5,6-7.5c2.9,0,5.5,2.4,5.5,5.5c0,2.6-1.5,4.9-3.6,6.2
			c3.3,5.7,12.7,10.9,25.6,10.9c16.3,0,26.6-9.3,26.6-22.7c0-13.5-12.4-19.4-25.8-24.8c-16.1-6.4-30.5-13-30.5-30.3
			c0-15.7,12.9-26.9,31.1-26.9c16.5,0,29.7,10.1,29.7,19.9c0,4.2-2.8,6.8-5.9,6.8c-3.1,0-5.7-2.4-5.7-5.7c0-2.4,1.3-4.4,3.1-5.9
			c-2.8-5.2-12.6-9.3-21.5-9.3c-14.3,0-24.3,8.8-24.3,20.5c0,13.7,12.2,19.1,26.6,24.8c15.7,6.2,29.7,13.2,29.7,30.3
			c0,17.6-14.2,29-33.4,29C636.4,327.2,623.3,315.5,623.3,306.2"/>
	</g>
	<g>
		<polygon fill="#FFFFFF" points="478.7,145.1 478.7,139.3 490.2,139.3 490.2,87.1 478.7,87.1 478.7,81.2 529.9,81.2 529.9,98.7 
			523.5,98.7 523.5,87.1 496.9,87.1 496.9,110.6 518.4,110.6 518.4,116.6 496.9,116.6 496.9,139.3 508.9,139.3 508.9,145.1 		"/>
	</g>
	<g>
		<path fill="#FFFFFF" d="M606.5,113c0,18.6-13.3,33.3-32.7,33.3c-19.1,0-32.4-14.7-32.4-33.3c0-18.5,13.3-33.2,32.5-33.2
			C593.2,79.8,606.5,94.5,606.5,113 M599.6,113c0-15.6-10.6-27-25.6-27c-15.1,0-25.6,11.4-25.6,27c0,16,10.6,27.2,25.5,27.2
			C589,140.2,599.6,128.9,599.6,113"/>
	</g>
	<g>
		<path fill="#FFFFFF" d="M641.8,139.3h11.7v5.9h-29.9v-5.9h11.5V87.1h-11.5v-5.9H652c14.5,0,23.7,7,23.7,18.4
			c0,8.8-5.9,15.2-14.2,17.7l13.8,21.9h10v5.9h-14.5l-15.9-26.3c-2,0.1-3.4,0.1-4.5,0.1c-2.3,0-6.1,0-8.5-0.1V139.3z M641.8,87.1
			V113c3.1,0.1,6.5,0.1,9.4,0.1c10.5,0,17.9-4.7,17.9-13.4c0-8.2-6.8-12.6-17.4-12.6H641.8z"/>
	</g>
</g>
<g>
	<rect x="478.5" y="160.9" fill="#FFD08C" width="206" height="5.7"/>
</g>
<g>
	<rect x="478.5" y="58.1" fill="#FFD08C" width="206" height="5.7"/>
</g>
<g>
	<g>
		<path fill="#FFE9CA" d="M159.3,346.9c-17.6-2.3-25.7-19.4-28.5-26.9c-5,5.6-17.2,17.3-29.8,15.7c-2.8-0.4-5.4-1.4-7.9-3
			c-15.9-10.8-4.2-38.9-0.5-46.7c-3.5-1.6-11.1-5.9-22.4-16.6c-7.9-7.5-11.9-18.1-11.1-29.2c0.8-10,5.6-19,12.9-24.1
			c7.2-5,16.3-6.8,27.1-5.4c7.5,1,13.9,3.4,17.2,4.7c0.7-2.7,2.1-7.2,4.6-11.8c5.2-9.7,12.7-14.9,21.6-15.1c1.2,0,2.3,0,3.4,0.2
			c19.5,2.6,26.1,30.9,27.6,39c4.5-0.9,15.7-2.8,26.1-1.4c13.1,1.7,20.8,8.2,22.2,18.6c2.9,20.5-22.6,38.5-28.6,42.4
			c0.7,3.7,2.5,13.9,1.7,25c-1.3,18.5-9.1,30.1-22.7,33.6C167.9,347.2,163.4,347.5,159.3,346.9"/>
	</g>
	<g>
		<path fill-rule="evenodd" clip-rule="evenodd" fill="#FCBE67" d="M100.4,290.5c0.7-1.5,1.2-3.7,2.5-5.6c1.1-1.6,0.8-2.6-1.2-3.3
			c-10.8-4.2-19.4-11.2-25.2-21.4c-4.1-7.2-5.9-14.9-2.6-23.2c2.6-6.5,7.4-10.4,13.5-12.7c9.5-3.4,18.9-2.5,28.1,0.8
			c1.1,0.4,2.2,0.9,3.4,1.3c3.1,1.2,3,1.2,3.8-2.3c1.2-5.6,3.3-10.9,7-15.5c5.5-6.7,13.1-7.7,19.9-2.4c4.4,3.4,7.4,8,9.9,12.9
			c2.8,5.7,4.9,11.7,5.9,18c0.3,1.7,0.9,2.1,2.5,1.6c7.1-2.1,14.2-3.2,21.5-2.1c4.1,0.6,8.1,1.7,11.4,4.5c4.6,3.9,5.8,9.9,3.4,16.2
			c-2.9,7.7-8.3,13.5-14.3,18.7c-2.2,1.9-4.6,3.6-7.1,5.1c-1.3,0.7-1.5,1.6-1.2,3.1c2,8.3,1.9,16.8,0.2,25.2
			c-1.2,5.9-3.6,11.4-7.5,16c-6.8,8.1-16.9,9.1-25.7,2.8c-5.1-3.6-8.7-8.5-11.6-14c-1.2-2.2-2.2-4.5-3-6.9c-0.9-2.6-1-2.6-2.8-0.5
			c-5.5,6.2-11.6,11.7-19.4,14.8c-5.4,2.1-10.6,1.3-13.4-2.6c-1.8-2.5-2.5-5.5-2.5-8.7C96,303.6,97.6,297.2,100.4,290.5"/>
	</g>
	<g>
		<path fill-rule="evenodd" clip-rule="evenodd" fill="#BC202F" d="M149.9,270.9c-1.9,4.8-6.8,6.9-11.6,5c-4.7-1.8-6.8-6.7-5-11.4
			c1.8-4.6,6.9-6.8,11.4-5.1C149.4,261.1,151.7,266.2,149.9,270.9"/>
	</g>
</g>
<g>
	<g>
		<path fill="#FFFFFF" d="M130.3,338c-0.5,0-1-0.2-1.3-0.7c-0.3-0.5-0.7-1-1-1.5c-0.5,0.4-1,0.7-1.5,1.1c-0.7,0.5-1.6,0.4-2.2-0.3
			c-0.5-0.7-0.4-1.7,0.3-2.2c0.9-0.7,1.8-1.4,2.7-2.1c0.4-0.3,0.8-0.4,1.2-0.3c0.4,0.1,0.8,0.3,1.1,0.7c0.6,1,1.2,1.9,1.8,2.9
			c0.5,0.7,0.3,1.7-0.4,2.1C130.9,337.9,130.6,338,130.3,338"/>
	</g>
	<g>
		<path fill="#FFFFFF" d="M103.5,345.5c-1.2,0-2.5-0.1-3.7-0.2l-0.3,0c-0.8-0.1-1.4-0.9-1.3-1.7c0.1-0.8,0.9-1.4,1.7-1.3l0.3,0
			c2,0.3,4.2,0.3,6.3,0.1c0.8-0.1,1.6,0.5,1.7,1.4c0.1,0.8-0.5,1.6-1.4,1.7C105.7,345.5,104.6,345.5,103.5,345.5 M113.4,343.8
			c-0.6,0-1.2-0.4-1.5-1c-0.3-0.8,0.2-1.7,1-2c2-0.7,4.1-1.6,6.1-2.7c0.7-0.4,1.7-0.1,2.1,0.6c0.4,0.7,0.1,1.7-0.6,2.1
			c-2.2,1.2-4.4,2.2-6.6,2.9C113.8,343.8,113.6,343.8,113.4,343.8 M93,343.3c-0.2,0-0.4,0-0.6-0.1c-1.6-0.7-3.1-1.5-4.6-2.5
			c-0.6-0.4-1.2-0.8-1.7-1.3c-0.7-0.5-0.8-1.5-0.3-2.2c0.5-0.7,1.5-0.8,2.2-0.3c0.5,0.4,1,0.8,1.6,1.1c1.3,0.9,2.7,1.6,4.1,2.2
			c0.8,0.3,1.1,1.2,0.8,2C94.2,343,93.6,343.3,93,343.3 M82.3,334.7c-0.5,0-1-0.2-1.3-0.6c-1.4-2-2.6-4.2-3.4-6.5
			c-0.3-0.8,0.1-1.7,0.9-2s1.7,0.1,2,0.9c0.8,2.1,1.8,4,3,5.8c0.5,0.7,0.3,1.7-0.4,2.1C82.9,334.6,82.6,334.7,82.3,334.7
			 M77.4,321.8c-0.8,0-1.4-0.6-1.5-1.3c-0.2-1.7-0.3-3.5-0.3-5.4c0-0.6,0-1.2,0-1.8c0-0.8,0.7-1.5,1.6-1.5c0.8,0,1.5,0.7,1.5,1.6
			c0,0.6,0,1.1,0,1.7c0,1.7,0.1,3.4,0.3,5c0.1,0.8-0.5,1.6-1.3,1.7C77.6,321.8,77.5,321.8,77.4,321.8 M77.9,307.9
			c-0.1,0-0.2,0-0.2,0c-0.8-0.1-1.4-0.9-1.3-1.8c0.4-2.2,0.9-4.6,1.5-7c0.2-0.8,1.1-1.3,1.9-1.1c0.8,0.2,1.3,1.1,1.1,1.9
			c-0.6,2.3-1.1,4.5-1.4,6.7C79.3,307.4,78.6,307.9,77.9,307.9"/>
	</g>
	<g>
		<path fill="#FFFFFF" d="M81.3,294.4c-0.2,0-0.3,0-0.5-0.1c-0.8-0.3-1.2-1.2-1-2c0.3-0.8,0.5-1.5,0.8-2.2c-0.6-0.4-1.3-0.8-1.9-1.3
			c-0.7-0.5-0.9-1.4-0.4-2.1c0.5-0.7,1.4-0.9,2.1-0.4c1,0.7,2,1.3,2.9,1.9c0.6,0.4,0.9,1.2,0.6,1.8c-0.4,1-0.8,2.1-1.2,3.3
			C82.6,294,82,294.4,81.3,294.4"/>
	</g>
	<g>
		<path fill="#FFFFFF" d="M73.9,284.8c-0.3,0-0.7-0.1-1-0.3c-1.8-1.5-3.7-3-5.5-4.7c-0.6-0.6-0.7-1.5-0.1-2.2
			c0.6-0.6,1.5-0.7,2.2-0.1c1.8,1.6,3.6,3.2,5.4,4.6c0.7,0.5,0.8,1.5,0.2,2.2C74.8,284.6,74.3,284.8,73.9,284.8 M63.2,275.2
			c-0.4,0-0.8-0.2-1.1-0.5c-1.7-1.8-3.3-3.7-4.7-5.8c-0.5-0.7-0.3-1.7,0.4-2.1c0.7-0.5,1.7-0.3,2.1,0.4c1.3,1.9,2.8,3.7,4.3,5.4
			c0.6,0.6,0.6,1.6-0.1,2.2C64,275.1,63.6,275.2,63.2,275.2 M55.2,263.5c-0.6,0-1.1-0.3-1.4-0.9c-1-2.2-1.9-4.6-2.6-7
			c-0.2-0.8,0.2-1.7,1.1-1.9c0.8-0.2,1.7,0.3,1.9,1.1c0.6,2.2,1.4,4.4,2.4,6.5c0.4,0.8,0,1.7-0.7,2
			C55.6,263.4,55.4,263.5,55.2,263.5 M51.4,249.7c-0.8,0-1.4-0.6-1.5-1.4c-0.2-1.7-0.3-3.4-0.3-5.2c0-0.7,0-1.5,0.1-2.2
			c0-0.8,0.8-1.5,1.6-1.5c0.8,0,1.5,0.8,1.5,1.6c0,0.7-0.1,1.4-0.1,2.1c0,1.6,0.1,3.2,0.3,4.8c0.1,0.8-0.5,1.6-1.4,1.7
			C51.5,249.7,51.4,249.7,51.4,249.7 M52.1,235.5c-0.1,0-0.2,0-0.3,0c-0.8-0.2-1.4-1-1.2-1.8c0.5-2.4,1.2-4.8,2.1-7.1
			c0.3-0.8,1.2-1.2,2-0.9c0.8,0.3,1.2,1.2,0.9,2c-0.8,2.1-1.5,4.4-2,6.6C53.4,235,52.8,235.5,52.1,235.5 M57.3,222.2
			c-0.3,0-0.5-0.1-0.8-0.2c-0.7-0.4-1-1.4-0.5-2.1c1.3-2.1,2.8-4.1,4.4-6c0.6-0.6,1.5-0.7,2.2-0.1c0.6,0.6,0.7,1.5,0.1,2.2
			c-1.5,1.7-2.9,3.5-4.1,5.5C58.3,221.9,57.8,222.2,57.3,222.2 M66.9,211.6c-0.5,0-0.9-0.2-1.2-0.6c-0.5-0.7-0.4-1.6,0.3-2.2
			c0.2-0.2,0.5-0.3,0.7-0.5c1.8-1.2,3.7-2.4,5.7-3.3c0.8-0.4,1.7,0,2.1,0.7c0.4,0.8,0,1.7-0.7,2c-1.8,0.9-3.6,1.9-5.2,3
			c-0.2,0.2-0.4,0.3-0.6,0.5C67.5,211.5,67.2,211.6,66.9,211.6 M79.7,205.5c-0.7,0-1.3-0.4-1.5-1.1c-0.2-0.8,0.3-1.7,1.1-1.9
			c2.3-0.6,4.8-1.1,7.3-1.4c0.8-0.1,1.6,0.5,1.7,1.4c0.1,0.8-0.5,1.6-1.4,1.7c-2.3,0.3-4.6,0.7-6.8,1.3
			C80,205.5,79.8,205.5,79.7,205.5 M101,204.5c-0.1,0-0.1,0-0.2,0l-0.7-0.1c-2.1-0.3-4.2-0.5-6.2-0.5c-0.8,0-1.5-0.7-1.5-1.6
			c0-0.8,0.7-1.5,1.5-1.5c0,0,0,0,0,0c2.1,0.1,4.3,0.2,6.5,0.5l0.8,0.1c0.8,0.1,1.4,0.9,1.3,1.7C102.4,204,101.8,204.5,101,204.5"/>
	</g>
	<g>
		<path fill="#FFFFFF" d="M111.5,206.9c-0.1,0-0.3,0-0.4-0.1c-1-0.3-2.2-0.6-3.3-0.9c-0.8-0.2-1.3-1-1.1-1.9c0.2-0.8,1-1.3,1.9-1.1
			c0.7,0.2,1.4,0.4,2.1,0.6c0.3-0.7,0.6-1.3,0.9-2c0.4-0.8,1.3-1.1,2.1-0.7c0.8,0.4,1.1,1.3,0.7,2.1c-0.5,1.1-1,2.1-1.4,3.1
			C112.7,206.5,112.1,206.9,111.5,206.9"/>
	</g>
	<g>
		<path fill="#FFFFFF" d="M176.5,210.1c-0.6,0-1.2-0.4-1.4-1c-0.9-2.2-1.9-4.3-2.9-6.3c-0.4-0.7-0.1-1.7,0.6-2.1
			c0.7-0.4,1.7-0.1,2.1,0.6c1.1,2.1,2.1,4.3,3.1,6.6c0.3,0.8-0.1,1.7-0.9,2C176.9,210.1,176.7,210.1,176.5,210.1 M169.8,197.6
			c-0.5,0-1-0.2-1.3-0.6c-1.4-1.9-2.9-3.7-4.4-5.3c-0.6-0.6-0.6-1.6,0-2.2c0.6-0.6,1.6-0.6,2.2,0c1.7,1.7,3.2,3.6,4.7,5.6
			c0.5,0.7,0.3,1.7-0.4,2.1C170.4,197.5,170.1,197.6,169.8,197.6 M116.5,197.5c-0.3,0-0.6-0.1-0.9-0.3c-0.7-0.5-0.9-1.4-0.4-2.1
			c1.4-2.1,3-4,4.6-5.8c0.6-0.6,1.6-0.6,2.2,0c0.6,0.6,0.6,1.6,0,2.2c-1.5,1.6-3,3.4-4.3,5.3C117.5,197.2,117,197.5,116.5,197.5
			 M159.8,187.6c-0.3,0-0.6-0.1-0.9-0.3c-1.9-1.3-3.9-2.4-6-3.2c-0.8-0.3-1.2-1.2-0.9-2c0.3-0.8,1.2-1.2,2-0.8
			c2.3,0.9,4.5,2.1,6.6,3.5c0.7,0.5,0.9,1.4,0.4,2.1C160.8,187.3,160.3,187.6,159.8,187.6 M126.4,187.3c-0.5,0-1-0.2-1.3-0.7
			c-0.5-0.7-0.3-1.7,0.4-2.1c2.1-1.4,4.3-2.6,6.6-3.4c0.8-0.3,1.7,0.1,2,0.9c0.3,0.8-0.1,1.7-0.9,2c-2.1,0.8-4.1,1.8-6,3.1
			C127,187.3,126.7,187.3,126.4,187.3 M139.6,182.4c-0.8,0-1.4-0.6-1.5-1.4c-0.1-0.8,0.5-1.6,1.3-1.7c1-0.1,2-0.2,3-0.2l0.7,0h0
			c1.2,0,2.5,0.1,3.7,0.2c0.8,0.1,1.4,0.9,1.4,1.7c-0.1,0.8-0.9,1.4-1.7,1.3c-1.1-0.1-2.2-0.2-3.3-0.2l-0.7,0
			c-0.9,0-1.8,0.1-2.7,0.2C139.7,182.4,139.6,182.4,139.6,182.4"/>
	</g>
	<g>
		<path fill="#FFFFFF" d="M179.8,220.3c-0.7,0-1.3-0.5-1.5-1.1c-0.3-1.1-0.6-2.3-0.9-3.3c-0.2-0.8,0.2-1.7,1-1.9
			c0.8-0.2,1.7,0.2,1.9,1c0.2,0.7,0.4,1.4,0.6,2.1c0.7-0.1,1.4-0.2,2.2-0.2c0.8-0.1,1.6,0.5,1.7,1.4c0.1,0.8-0.5,1.6-1.4,1.7
			c-1.2,0.1-2.4,0.2-3.4,0.4C179.9,220.3,179.9,220.3,179.8,220.3"/>
	</g>
	<g>
		<path fill="#FFFFFF" d="M210.1,286.2c-0.4,0-0.8-0.2-1.1-0.5c-0.6-0.6-0.5-1.6,0.1-2.2c1.7-1.5,3.3-3,4.7-4.5
			c0.6-0.6,1.6-0.6,2.2,0c0.6,0.6,0.6,1.6,0,2.2c-1.5,1.6-3.2,3.2-4.9,4.7C210.8,286,210.5,286.2,210.1,286.2 M219.3,276.6
			c-0.3,0-0.7-0.1-1-0.3c-0.7-0.5-0.8-1.5-0.2-2.2c1.4-1.7,2.7-3.5,3.8-5.2c0.5-0.7,1.4-0.9,2.1-0.5c0.7,0.5,0.9,1.4,0.5,2.1
			c-1.2,1.8-2.5,3.7-4,5.5C220.2,276.4,219.8,276.6,219.3,276.6 M226.5,265.4c-0.2,0-0.4,0-0.7-0.1c-0.8-0.4-1.1-1.3-0.7-2
			c0.9-2,1.7-4,2.3-6c0.2-0.8,1.1-1.3,1.9-1.1c0.8,0.2,1.3,1.1,1.1,1.9c-0.6,2.1-1.4,4.3-2.5,6.5C227.6,265,227.1,265.4,226.5,265.4
			 M230.1,252.6c0,0-0.1,0-0.1,0c-0.8-0.1-1.5-0.8-1.4-1.7c0.1-0.9,0.1-1.8,0.1-2.7c0-1.2-0.1-2.4-0.2-3.6c-0.1-0.8,0.5-1.6,1.3-1.7
			c0.8-0.1,1.6,0.5,1.7,1.3c0.2,1.3,0.2,2.7,0.2,4c0,1,0,2-0.1,3C231.6,252,230.9,252.6,230.1,252.6 M228.5,239.5
			c-0.6,0-1.2-0.4-1.4-1c-0.7-2-1.6-3.9-2.8-5.6c-0.5-0.7-0.3-1.7,0.4-2.1c0.7-0.5,1.7-0.3,2.1,0.4c1.3,1.9,2.3,4,3.1,6.3
			c0.3,0.8-0.1,1.7-0.9,2C228.8,239.5,228.7,239.5,228.5,239.5 M221.2,228.5c-0.4,0-0.7-0.1-1-0.4c-1.5-1.4-3.2-2.6-5.1-3.6
			c-0.7-0.4-1-1.3-0.6-2.1c0.4-0.7,1.3-1,2.1-0.6c2.1,1.2,4,2.5,5.7,4c0.6,0.6,0.7,1.5,0.1,2.2C222.1,228.3,221.6,228.5,221.2,228.5
			 M209.7,222c-0.2,0-0.3,0-0.5-0.1c-1.9-0.6-4-1.2-6.2-1.5c-0.8-0.2-1.4-0.9-1.2-1.8c0.2-0.8,1-1.4,1.8-1.2c2.4,0.4,4.6,1,6.7,1.7
			c0.8,0.3,1.2,1.1,1,1.9C210.9,221.6,210.3,222,209.7,222 M196.6,219.6c0,0-0.1,0-0.1,0c-2-0.2-4.3-0.2-6.5-0.1c0,0,0,0,0,0
			c-0.8,0-1.5-0.7-1.5-1.5c0-0.9,0.6-1.6,1.5-1.6c2.3,0,4.6,0,6.8,0.1c0.8,0.1,1.5,0.8,1.4,1.6C198.1,219,197.4,219.6,196.6,219.6"
			/>
	</g>
	<g>
		<path fill="#FFFFFF" d="M202.6,296.1c-0.8,0-1.4-0.6-1.5-1.4c-0.1-1.2-0.3-2.4-0.4-3.4c-0.1-0.6,0.2-1.1,0.6-1.5
			c0.9-0.6,1.8-1.3,2.8-2.1c0.7-0.5,1.6-0.4,2.2,0.3c0.5,0.7,0.4,1.6-0.3,2.2c-0.7,0.6-1.4,1.1-2.1,1.6c0.1,0.8,0.2,1.7,0.3,2.6
			c0.1,0.8-0.5,1.6-1.3,1.7C202.7,296.1,202.7,296.1,202.6,296.1"/>
	</g>
	<g>
		<path fill="#FFFFFF" d="M163.3,356.9c-1.2,0-2.4-0.1-3.6-0.2c-0.8-0.1-1.5-0.8-1.4-1.7c0.1-0.8,0.8-1.5,1.7-1.4
			c2.3,0.2,4.6,0.2,6.9,0c0.9-0.1,1.6,0.5,1.7,1.4c0.1,0.8-0.5,1.6-1.4,1.7C165.9,356.8,164.6,356.9,163.3,356.9 M174.2,355.5
			c-0.7,0-1.3-0.5-1.5-1.2c-0.2-0.8,0.3-1.7,1.1-1.9l0.2-0.1c2.2-0.6,4.3-1.3,6.3-2.3c0.8-0.4,1.7,0,2,0.7c0.4,0.8,0,1.7-0.7,2.1
			c-2.1,1-4.5,1.8-6.8,2.5l-0.3,0.1C174.5,355.5,174.4,355.5,174.2,355.5 M152.8,355.4c-0.1,0-0.3,0-0.4-0.1c-2.4-0.7-4.8-1.6-7-2.8
			c-0.7-0.4-1-1.3-0.6-2.1c0.4-0.8,1.3-1,2.1-0.6c2,1.1,4.2,1.9,6.4,2.6c0.8,0.2,1.3,1.1,1,1.9C154.1,355,153.5,355.4,152.8,355.4
			 M187.2,349.3c-0.5,0-0.9-0.2-1.2-0.6c-0.5-0.7-0.4-1.6,0.3-2.2c1.8-1.4,3.5-3,5-4.8c0.5-0.6,1.5-0.7,2.2-0.2
			c0.6,0.5,0.7,1.5,0.2,2.2c-1.6,1.9-3.5,3.7-5.5,5.2C187.9,349.2,187.5,349.3,187.2,349.3 M140,348.7c-0.3,0-0.7-0.1-1-0.3
			c-1.9-1.5-3.7-3.2-5.4-5.1c-0.6-0.6-0.5-1.6,0.1-2.2c0.6-0.6,1.6-0.5,2.2,0.1c1.6,1.8,3.3,3.4,5.1,4.8c0.7,0.5,0.8,1.5,0.2,2.2
			C140.9,348.5,140.5,348.7,140,348.7 M196.6,338.4c-0.3,0-0.5-0.1-0.8-0.2c-0.7-0.4-1-1.4-0.6-2.1c1.1-2,2.1-4.1,2.9-6.3
			c0.3-0.8,1.2-1.2,2-0.9c0.8,0.3,1.2,1.2,0.9,2c-0.9,2.4-1.9,4.7-3.1,6.8C197.6,338.1,197.1,338.4,196.6,338.4 M201.6,324.9
			c-0.1,0-0.2,0-0.3,0c-0.8-0.2-1.4-1-1.2-1.8c0.5-2.2,0.9-4.6,1.2-7c0.1-0.8,0.8-1.5,1.7-1.4c0.8,0.1,1.5,0.9,1.4,1.7
			c-0.3,2.5-0.7,5-1.2,7.3C203,324.4,202.3,324.9,201.6,324.9 M203.3,310.5L203.3,310.5c-0.9,0-1.6-0.7-1.5-1.6c0-0.7,0-1.4,0-2.2
			c0-1.6,0-3.3-0.1-5c0-0.8,0.6-1.6,1.5-1.6c0.9-0.1,1.6,0.6,1.6,1.5c0.1,1.7,0.1,3.4,0.1,5.1c0,0.7,0,1.5,0,2.2
			C204.8,309.9,204.1,310.5,203.3,310.5"/>
	</g>
</g>
</svg>
