<?xml version="1.0" encoding="utf-8"?>
<!-- Generator: Adobe Illustrator 18.0.0, SVG Export Plug-In . SVG Version: 6.00 Build 0)  -->
<!DOCTYPE svg PUBLIC "-//W3C//DTD SVG 1.1//EN" "http://www.w3.org/Graphics/SVG/1.1/DTD/svg11.dtd">
<svg version="1.1" id="Layer_1" xmlns="http://www.w3.org/2000/svg" xmlns:xlink="http://www.w3.org/1999/xlink" x="0px" y="0px"
	 viewBox="0 0 773.6 403.2" enable-background="new 0 0 773.6 403.2" xml:space="preserve">
<g>
	<g>
		<path fill="#F89C1C" d="M765.3,358.6c5.1,4.7,8.3,11.3,8.3,18.6c0,14.2-11.8,25.8-26.4,25.8c-7.4,0-14.4-3.2-19.2-8
			c-2.2,4.8-10.8,8.2-20.5,8.2c-9.6,0-17.7-3.5-20-8.3c-2.3,4.8-10.4,8.3-20.1,8.3c-9.6,0-17.7-3.5-20-8.3
			c-2.3,4.8-10.4,8.3-20.1,8.3c-9.6,0-17.7-3.5-20-8.3c-2.3,4.8-10.4,8.3-20.1,8.3c-9.6,0-17.7-3.5-20-8.3
			c-2.3,4.8-10.4,8.3-20.1,8.3c-9.6,0-17.7-3.5-20-8.3c-2.3,4.8-10.4,8.3-20.1,8.3c-9.6,0-17.7-3.5-20-8.3
			c-2.3,4.8-10.4,8.3-20.1,8.3c-9.7,0-17.8-3.5-20-8.3c-2.2,4.8-10.6,8.3-20.3,8.3c-9.6,0-17.7-3.5-20-8.3
			c-2.3,4.8-10.4,8.3-20.1,8.3c-9.6,0-17.7-3.5-20-8.3c-2.3,4.8-10.4,8.3-20.1,8.3c-9.6,0-17.7-3.5-20-8.3
			c-2.3,4.8-10.4,8.3-20.1,8.3c-9.6,0-17.7-3.5-20-8.3c-2.3,4.8-10.4,8.3-20.1,8.3c-9.6,0-17.7-3.5-20-8.3
			c-2.3,4.8-10.4,8.3-20.1,8.3c-9.6,0-17.7-3.5-20-8.3c-2.3,4.8-10.4,8.3-20.1,8.3c-9.7,0-18-3.6-20.2-8.4
			c-2.2,4.8-10.5,8.4-20.1,8.4c-9.6,0-17.6-3.5-19.9-8.3c-2.3,4.8-10.4,8.3-20,8.3c-9.6,0-17.8-3.6-20-8.4
			c-2.3,4.8-10.4,8.4-20.1,8.4c-9.6,0-17.7-3.5-20-8.3c-4.8,5.1-11.6,8.2-19.1,8.2c-14.6,0-26.4-11.8-26.4-26.4
			c0-7.4,3.3-14,8.1-18.8C3.4,355.8,0,347.8,0,338.4c0-9.4,3.5-17.3,8.3-19.6C3.5,316.6,0,308.7,0,299.2c0-9.4,3.5-17.3,8.3-19.6
			C3.5,277.4,0,269.5,0,260c0-9.4,3.5-17.3,8.3-19.6C3.5,238.2,0,230.3,0,220.9c0-9.4,3.5-17.3,8.3-19.6C3.5,199,0,191.1,0,181.7
			c0-9.5,3.6-17.6,8.4-19.7C3.6,159.7,0,151.7,0,142.3c0-9.3,3.5-17.2,8.3-19.5C3.5,120.5,0,112.7,0,103.3c0-9.4,3.6-17.4,8.4-19.6
			C3.6,81.5,0,73.5,0,64.1c0-9.4,3.5-17.3,8.3-19.5c-5.1-4.7-8.2-11.3-8.2-18.7c0-14.2,11.8-25.8,26.4-25.8c7.4,0,14,3,18.8,7.7
			l0.7,0.7C48.1,3.6,56.2,0,65.9,0c9.6,0,17.7,3.5,20,8.3C88.3,3.5,96.4,0,106,0c9.6,0,17.7,3.5,20,8.3c2.3-4.8,10.4-8.3,20.1-8.3
			c9.6,0,17.7,3.5,20,8.3c2.3-4.8,10.4-8.3,20.1-8.3c9.6,0,17.7,3.5,20,8.3c2.3-4.8,10.4-8.3,20.1-8.3c9.6,0,17.7,3.5,20,8.3
			c2.3-4.8,10.4-8.3,20.1-8.3c9.6,0,17.7,3.5,20,8.3c2.3-4.8,10.4-8.3,20.1-8.3c9.7,0,18,3.6,20.2,8.4C329,3.6,337.2,0,346.9,0
			c9.6,0,17.6,3.5,19.9,8.3c2.3-4.8,10.4-8.3,20-8.3c9.6,0,17.8,3.6,20,8.4c2.3-4.8,10.4-8.4,20.1-8.4c9.6,0,17.8,3.5,20.1,8.3
			c2.3-4.8,10.6-8.3,20.2-8.3c9.6,0,17.7,3.5,20,8.3c2.3-4.8,10.4-8.3,20.1-8.3c9.6,0,17.7,3.5,20,8.3c2.3-4.8,10.4-8.3,20.1-8.3
			c9.6,0,17.7,3.5,20,8.3c2.3-4.8,10.4-8.3,20.1-8.3c9.7,0,18,3.6,20.2,8.4C610,3.6,618.2,0,627.9,0c9.6,0,17.6,3.5,19.9,8.3
			c2.3-4.8,10.4-8.3,20-8.3c9.6,0,17.8,3.6,20,8.4c2.3-4.8,10.4-8.4,20.1-8.4c9.6,0,17.7,3.5,20,8.3c4.8-5.1,11.6-8.2,19.1-8.2
			c14.6,0,26.4,11.8,26.4,26.4c0,7.4-3.1,14-8,18.8c4.8,2.2,8.2,10.2,8.2,19.6c0,9.4-3.5,17.3-8.3,19.6c4.8,2.2,8.3,10.2,8.3,19.6
			c0,9.4-3.5,17.3-8.3,19.6c4.8,2.2,8.3,10.2,8.3,19.6c0,9.4-3.5,17.3-8.3,19.6c4.8,2.2,8.3,10.2,8.3,19.6c0,9.4-3.5,17.3-8.3,19.6
			c4.8,2.2,8.3,10.2,8.3,19.6c0,9.4-3.5,17.3-8.3,19.6c4.8,2.2,8.3,10.2,8.3,19.6c0,9.5-3.6,17.6-8.4,19.7
			c4.8,2.2,8.4,10.2,8.4,19.7c0,9.3-3.5,17.2-8.3,19.5c4.8,2.3,8.3,10.2,8.3,19.5C773.6,348.5,770.1,356.4,765.3,358.6"/>
	</g>
</g>
<g>
	<g>
		<path fill="#FFFFFF" d="M62.4,164.6h15.3v-99H62.4v-5.9h41.1c38.7,0,62,22.2,62,54.7c0,33-22.6,56.1-61.6,56.1H62.4V164.6z
			 M104.5,164.6c35.7,0,54.1-20.7,54.1-50.4c0-29.1-20-48.7-55.2-48.7H84.6v99H104.5z"/>
	</g>
	<g>
		<path fill="#FFFFFF" d="M163.8,164.6h12.1l37.1-99h-14v-5.9h42.1v5.9h-14l37.1,99h12.3v5.9h-34.2v-5.9h14.5l-13-35.2h-47.7
			l-13,35.2h14.8v5.9h-34.2V164.6z M241.6,123.5L220,65l-21.7,58.4H241.6z"/>
	</g>
	<g>
		<polygon fill="#FFFFFF" points="297.3,164.6 314.3,164.6 314.3,124.1 280,65.5 267.3,65.5 267.3,59.6 301.7,59.6 301.7,65.5 
			287.9,65.5 318,118.4 348.2,65.5 334.2,65.5 334.2,59.6 368.4,59.6 368.4,65.5 355.6,65.5 321.4,124.1 321.4,164.6 338.4,164.6 
			338.4,170.4 297.3,170.4 		"/>
	</g>
	<g>
		<path fill="#FFFFFF" d="M375.1,150.4c0-4.7,2.7-7.7,6.2-7.7c3,0,5.7,2.5,5.7,5.7c0,2.7-1.5,5.1-3.7,6.4
			c3.4,5.9,13.1,11.3,26.4,11.3c16.8,0,27.5-9.6,27.5-23.4c0-14-12.8-20-26.6-25.6c-16.7-6.6-31.5-13.5-31.5-31.3
			c0-16.2,13.3-27.8,32.2-27.8c17,0,30.7,10.4,30.7,20.6c0,4.4-2.9,7.1-6.1,7.1c-3.2,0-5.9-2.5-5.9-5.9c0-2.5,1.4-4.5,3.2-6.1
			c-2.9-5.4-13-9.6-22.2-9.6c-14.8,0-25.1,9.1-25.1,21.2c0,14.1,12.6,19.7,27.5,25.6c16.2,6.4,30.6,13.6,30.6,31.3
			c0,18.2-14.7,30-34.5,30C388.6,172.1,375.1,160,375.1,150.4"/>
	</g>
	<g>
		<path fill="#FFFFFF" d="M256.2,280.5c0-35.4,26.6-58.6,56.4-58.6c24.4,0,40.9,14.1,40.9,25.1c0,4.4-2.7,7.2-6.4,7.2
			c-3.4,0-5.9-2.7-5.9-6.1c0-2.5,1.2-4.7,3.7-5.9c-4-6.9-16.3-14.3-32.5-14.3c-29.8,0-49.2,23.9-49.2,52.6
			c0,29.6,21.1,49.5,47.2,49.5c13.5,0,26.1-4.4,38.1-13.5v-27.1h-34v-5.9h40.8v51h-6.6v-11.8c-11.5,8.6-23.4,13.1-38.6,13.1
			C281.8,336,256.2,315.1,256.2,280.5"/>
	</g>
	<g>
		<polygon fill="#FFFFFF" points="378.5,328.7 394.7,328.7 394.7,229.7 378.5,229.7 378.5,223.8 417.9,223.8 417.9,229.7 
			401.6,229.7 401.6,328.7 417.9,328.7 417.9,334.6 378.5,334.6 		"/>
	</g>
	<g>
		<path fill="#FFFFFF" d="M441.3,328.7h15.3v-99h-15.3v-5.9h41.4c23.2,0,37.9,13,37.9,31c0,16.2-10.8,26.8-26.8,30.5l27.6,43.5H535
			v5.9h-18.2l-30.2-48.2c-1.9,0.2-4.2,0.3-6.4,0.3c-6.1,0-12.1,0-16.7-0.2v42.1h15.7v5.9h-37.9V328.7z M513.6,254.9
			c0-15.5-12-25.3-31.3-25.3h-18.7v50.9c5.1,0.2,11.1,0.3,17,0.3C499.9,280.9,513.6,272,513.6,254.9"/>
	</g>
	<g>
		<polygon fill="#FFFFFF" points="552,328.7 567.3,328.7 567.3,229.7 552,229.7 552,223.8 590.2,223.8 590.2,229.7 574.2,229.7 
			574.2,328.7 619.2,328.7 619.2,309.2 625.8,309.2 625.8,334.6 552,334.6 		"/>
	</g>
	<g>
		<path fill="#FFFFFF" d="M640.9,314.6c0-4.7,2.7-7.7,6.2-7.7c3,0,5.7,2.5,5.7,5.7c0,2.7-1.5,5.1-3.7,6.4
			c3.4,5.9,13.1,11.3,26.5,11.3c16.8,0,27.4-9.6,27.4-23.4c0-14-12.8-20-26.6-25.6c-16.7-6.6-31.5-13.5-31.5-31.3
			c0-16.2,13.3-27.8,32.2-27.8c17,0,30.7,10.4,30.7,20.6c0,4.4-2.9,7.1-6.1,7.1c-3.2,0-5.9-2.5-5.9-5.9c0-2.5,1.3-4.5,3.2-6.1
			c-2.9-5.4-13-9.6-22.2-9.6c-14.8,0-25.1,9.1-25.1,21.2c0,14.1,12.6,19.7,27.4,25.6c16.2,6.4,30.7,13.6,30.7,31.3
			c0,18.2-14.7,30-34.5,30C654.4,336.3,640.9,324.2,640.9,314.6"/>
	</g>
	<g>
		<polygon fill="#FFFFFF" points="491.5,148.2 491.5,142.1 503.4,142.1 503.4,88.2 491.5,88.2 491.5,82.1 544.4,82.1 544.4,100.2 
			537.8,100.2 537.8,88.2 510.3,88.2 510.3,112.4 532.5,112.4 532.5,118.6 510.3,118.6 510.3,142.1 522.7,142.1 522.7,148.2 		"/>
	</g>
	<g>
		<path fill="#FFFFFF" d="M623.5,114.9c0,19.2-13.7,34.4-33.7,34.4c-19.8,0-33.5-15.2-33.5-34.4c0-19.1,13.7-34.3,33.6-34.3
			C609.8,80.7,623.5,95.8,623.5,114.9 M616.4,114.9c0-16.1-10.9-27.9-26.5-27.9c-15.6,0-26.5,11.7-26.5,27.9
			c0,16.5,10.9,28.1,26.4,28.1C605.4,143,616.4,131.4,616.4,114.9"/>
	</g>
	<g>
		<path fill="#FFFFFF" d="M660,142.1h12.1v6.1h-30.8v-6.1h11.9V88.2h-11.9v-6.1h29.3c15,0,24.5,7.3,24.5,19
			c0,9.1-6.1,15.7-14.6,18.3l14.2,22.7H705v6.1h-15L673.4,121c-2.1,0.1-3.6,0.1-4.6,0.1c-2.4,0-6.3,0-8.8-0.1V142.1z M660,88.2v26.8
			c3.2,0.1,6.7,0.1,9.8,0.1c10.8,0,18.5-4.9,18.5-13.8c0-8.4-7-13.1-17.9-13.1H660z"/>
	</g>
</g>
<g>
	<rect x="491.3" y="164.4" fill="#FFD08C" width="212.8" height="5.9"/>
</g>
<g>
	<rect x="491.3" y="59.5" fill="#FFD08C" width="212.8" height="5.9"/>
</g>
<g>
	<g>
		<path fill="#FFE9CA" d="M161.5,356.7c-18.2-2.4-26.6-20-29.4-27.8c-5.2,5.8-17.8,17.9-30.8,16.2c-2.9-0.4-5.6-1.4-8.1-3.1
			c-16.5-11.1-4.3-40.2-0.6-48.3c-3.6-1.6-11.5-6-23.1-17.1c-8.1-7.7-12.3-18.7-11.4-30.1c0.8-10.3,5.8-19.7,13.4-24.9
			c7.5-5.2,16.9-7,28-5.6c7.8,1,14.4,3.5,17.7,4.9c0.7-2.8,2.2-7.5,4.8-12.2c5.4-10,13.1-15.4,22.3-15.6c1.2,0,2.4,0,3.5,0.2
			c20.2,2.7,27,31.9,28.5,40.3c4.7-1,16.2-2.9,27-1.5c13.5,1.8,21.5,8.5,23,19.2c2.9,21.2-23.3,39.7-29.5,43.8
			c0.8,3.8,2.6,14.4,1.8,25.9c-1.4,19.1-9.5,31.1-23.4,34.7C170.3,356.9,165.8,357.2,161.5,356.7"/>
	</g>
	<g>
		<path fill-rule="evenodd" clip-rule="evenodd" fill="#FCBE67" d="M100.6,298.4c0.7-1.6,1.3-3.8,2.6-5.8c1.2-1.7,0.9-2.6-1.2-3.4
			c-11.1-4.3-20-11.6-26-22.1c-4.2-7.4-6.1-15.4-2.6-24c2.6-6.7,7.6-10.8,14-13.1c9.8-3.5,19.5-2.6,29.1,0.8
			c1.2,0.4,2.3,0.9,3.5,1.3c3.2,1.3,3.1,1.3,3.9-2.4c1.3-5.8,3.5-11.3,7.3-16c5.7-7,13.6-7.9,20.5-2.5c4.5,3.5,7.7,8.2,10.2,13.3
			c2.9,5.9,5.1,12.1,6.1,18.6c0.3,1.7,0.9,2.1,2.6,1.6c7.3-2.2,14.7-3.3,22.2-2.2c4.3,0.6,8.4,1.7,11.8,4.6c4.7,4.1,6,10.3,3.6,16.8
			c-3,8-8.6,13.9-14.8,19.3c-2.3,2-4.7,3.7-7.3,5.3c-1.3,0.8-1.6,1.7-1.2,3.2c2,8.6,2,17.3,0.2,26.1c-1.2,6.1-3.7,11.7-7.7,16.5
			c-7.1,8.3-17.4,9.4-26.5,2.9c-5.2-3.7-9-8.8-12-14.5c-1.2-2.3-2.3-4.7-3.1-7.1c-0.9-2.7-1-2.7-2.9-0.5c-5.7,6.4-12,12.1-20.1,15.3
			c-5.6,2.2-10.9,1.3-13.8-2.7c-1.9-2.6-2.6-5.7-2.6-9C96.1,311.8,97.8,305.3,100.6,298.4"/>
	</g>
	<g>
		<path fill-rule="evenodd" clip-rule="evenodd" fill="#BC202F" d="M151.7,278.1c-1.9,4.9-7,7.1-12,5.1c-4.8-1.9-7.1-7-5.2-11.8
			c1.8-4.7,7.1-7.1,11.8-5.3C151.3,268,153.6,273.2,151.7,278.1"/>
	</g>
</g>
<g>
	<g>
		<path fill="#FFFFFF" d="M131.5,347.4c-0.5,0-1-0.2-1.3-0.7c-0.4-0.5-0.7-1.1-1-1.6c-0.5,0.4-1,0.8-1.5,1.1
			c-0.7,0.5-1.7,0.4-2.2-0.3c-0.5-0.7-0.4-1.7,0.3-2.2c1-0.7,1.9-1.4,2.8-2.2c0.4-0.3,0.8-0.4,1.3-0.3c0.4,0.1,0.9,0.4,1.1,0.8
			c0.6,1,1.2,2,1.9,3c0.5,0.7,0.3,1.7-0.4,2.2C132.1,347.3,131.8,347.4,131.5,347.4"/>
	</g>
	<g>
		<path fill="#FFFFFF" d="M103.8,355.2c-1.3,0-2.6-0.1-3.8-0.2l-0.3,0c-0.9-0.1-1.5-0.9-1.4-1.8c0.1-0.9,0.9-1.5,1.8-1.3l0.3,0
			c2.1,0.3,4.3,0.3,6.5,0.1c0.9-0.1,1.7,0.5,1.8,1.4c0.1,0.9-0.5,1.7-1.4,1.8C106.1,355.1,105,355.2,103.8,355.2 M114.1,353.4
			c-0.7,0-1.3-0.4-1.5-1.1c-0.3-0.8,0.2-1.7,1-2c2.1-0.7,4.2-1.7,6.3-2.8c0.8-0.4,1.7-0.1,2.2,0.6c0.4,0.8,0.1,1.7-0.6,2.2
			c-2.3,1.2-4.6,2.3-6.8,3C114.4,353.4,114.3,353.4,114.1,353.4 M93,352.9c-0.2,0-0.4,0-0.6-0.1c-1.6-0.7-3.2-1.6-4.7-2.6
			c-0.6-0.4-1.2-0.9-1.8-1.3c-0.7-0.5-0.8-1.5-0.3-2.2c0.5-0.7,1.5-0.8,2.2-0.3c0.5,0.4,1,0.8,1.6,1.2c1.3,0.9,2.8,1.7,4.2,2.3
			c0.8,0.4,1.2,1.3,0.8,2.1C94.2,352.6,93.6,352.9,93,352.9 M81.9,344c-0.5,0-1-0.2-1.3-0.7c-1.4-2-2.6-4.3-3.5-6.7
			c-0.3-0.8,0.1-1.7,1-2c0.8-0.3,1.7,0.1,2,1c0.8,2.2,1.8,4.2,3.1,6c0.5,0.7,0.3,1.7-0.4,2.2C82.5,343.9,82.2,344,81.9,344
			 M76.9,330.7c-0.8,0-1.5-0.6-1.6-1.4c-0.2-1.8-0.3-3.7-0.3-5.6c0-0.6,0-1.3,0-1.9c0-0.9,0.8-1.6,1.6-1.5c0.9,0,1.6,0.8,1.5,1.7
			c0,0.6,0,1.2,0,1.8c0,1.8,0.1,3.5,0.3,5.2c0.1,0.9-0.5,1.7-1.4,1.8C77,330.7,77,330.7,76.9,330.7 M77.3,316.3c-0.1,0-0.2,0-0.3,0
			c-0.9-0.1-1.5-1-1.3-1.8c0.4-2.3,0.9-4.7,1.5-7.2c0.2-0.8,1.1-1.4,1.9-1.1c0.8,0.2,1.4,1.1,1.1,1.9c-0.6,2.4-1.1,4.7-1.4,6.9
			C78.8,315.8,78.1,316.3,77.3,316.3"/>
	</g>
	<g>
		<path fill="#FFFFFF" d="M80.9,302.3c-0.2,0-0.3,0-0.5-0.1c-0.8-0.3-1.3-1.2-1-2c0.3-0.8,0.5-1.5,0.8-2.3c-0.6-0.4-1.3-0.9-2-1.4
			c-0.7-0.5-0.9-1.5-0.4-2.2c0.5-0.7,1.5-0.9,2.2-0.4c1,0.7,2,1.4,3,2c0.6,0.4,0.9,1.2,0.6,1.9c-0.4,1.1-0.8,2.2-1.2,3.4
			C82.2,301.9,81.6,302.3,80.9,302.3"/>
	</g>
	<g>
		<path fill="#FFFFFF" d="M73.2,292.5c-0.3,0-0.7-0.1-1-0.4c-1.9-1.5-3.8-3.1-5.7-4.9c-0.7-0.6-0.7-1.6-0.1-2.2
			c0.6-0.7,1.6-0.7,2.2-0.1c1.9,1.7,3.8,3.3,5.6,4.8c0.7,0.6,0.8,1.6,0.2,2.2C74.2,292.3,73.7,292.5,73.2,292.5 M62.2,282.6
			c-0.4,0-0.8-0.2-1.1-0.5c-1.8-1.8-3.4-3.9-4.8-6c-0.5-0.7-0.3-1.7,0.4-2.2c0.7-0.5,1.7-0.3,2.2,0.4c1.3,2,2.8,3.8,4.5,5.5
			c0.6,0.6,0.6,1.6-0.1,2.2C63,282.4,62.6,282.6,62.2,282.6 M53.9,270.4c-0.6,0-1.2-0.3-1.4-0.9c-1.1-2.3-2-4.7-2.6-7.2
			c-0.2-0.8,0.3-1.7,1.1-2c0.8-0.2,1.7,0.3,2,1.1c0.6,2.3,1.5,4.5,2.5,6.7c0.4,0.8,0,1.7-0.8,2.1C54.4,270.3,54.1,270.4,53.9,270.4
			 M50,256.2c-0.8,0-1.5-0.6-1.6-1.4c-0.2-1.8-0.3-3.6-0.3-5.3c0-0.8,0-1.5,0.1-2.3c0-0.9,0.8-1.5,1.7-1.5c0.9,0,1.6,0.8,1.5,1.7
			c0,0.7-0.1,1.4-0.1,2.2c0,1.7,0.1,3.3,0.3,5c0.1,0.9-0.5,1.7-1.4,1.8C50.1,256.2,50,256.2,50,256.2 M50.7,241.5
			c-0.1,0-0.2,0-0.3,0c-0.9-0.2-1.4-1-1.2-1.9c0.5-2.5,1.3-5,2.2-7.3c0.3-0.8,1.2-1.2,2.1-0.9c0.8,0.3,1.2,1.2,0.9,2.1
			c-0.9,2.2-1.6,4.5-2.1,6.8C52.1,240.9,51.4,241.5,50.7,241.5 M56.1,227.8c-0.3,0-0.6-0.1-0.8-0.2c-0.7-0.5-1-1.4-0.5-2.2
			c1.4-2.2,2.9-4.3,4.6-6.2c0.6-0.6,1.6-0.7,2.2-0.1c0.7,0.6,0.7,1.6,0.1,2.2c-1.6,1.7-3,3.6-4.2,5.7
			C57.1,227.5,56.6,227.8,56.1,227.8 M66,216.9c-0.5,0-1-0.2-1.3-0.6c-0.5-0.7-0.4-1.7,0.3-2.2c0.2-0.2,0.5-0.4,0.7-0.5
			c1.9-1.3,3.8-2.4,5.9-3.4c0.8-0.4,1.7,0,2.1,0.8c0.4,0.8,0,1.7-0.7,2.1c-1.9,0.9-3.7,2-5.4,3.1c-0.2,0.2-0.4,0.3-0.7,0.5
			C66.6,216.8,66.3,216.9,66,216.9 M79.3,210.5c-0.7,0-1.3-0.5-1.5-1.2c-0.2-0.8,0.3-1.7,1.1-2c2.4-0.7,4.9-1.1,7.5-1.4
			c0.9-0.1,1.7,0.5,1.8,1.4c0.1,0.9-0.5,1.7-1.4,1.8c-2.4,0.3-4.8,0.7-7,1.3C79.5,210.5,79.4,210.5,79.3,210.5 M101.3,209.5
			c-0.1,0-0.1,0-0.2,0l-0.8-0.1c-2.2-0.3-4.3-0.5-6.4-0.5c-0.9,0-1.6-0.8-1.5-1.6c0-0.9,0.7-1.5,1.6-1.5c0,0,0,0,0,0
			c2.2,0.1,4.5,0.2,6.8,0.6l0.8,0.1c0.9,0.1,1.5,0.9,1.3,1.8C102.7,208.9,102.1,209.5,101.3,209.5"/>
	</g>
	<g>
		<path fill="#FFFFFF" d="M112.1,211.9c-0.1,0-0.3,0-0.4-0.1c-1.1-0.3-2.2-0.6-3.4-0.9c-0.9-0.2-1.4-1.1-1.2-1.9
			c0.2-0.9,1.1-1.4,1.9-1.2c0.8,0.2,1.5,0.4,2.2,0.6c0.3-0.7,0.6-1.4,1-2.1c0.4-0.8,1.3-1.1,2.1-0.7c0.8,0.4,1.1,1.3,0.7,2.1
			c-0.5,1.1-1,2.2-1.4,3.2C113.3,211.5,112.7,211.9,112.1,211.9"/>
	</g>
	<g>
		<path fill="#FFFFFF" d="M179.3,215.3c-0.6,0-1.2-0.4-1.5-1c-0.9-2.3-1.9-4.5-3-6.5c-0.4-0.8-0.1-1.7,0.7-2.1
			c0.8-0.4,1.7-0.1,2.1,0.7c1.1,2.1,2.2,4.4,3.2,6.8c0.3,0.8-0.1,1.7-0.9,2.1C179.7,215.3,179.5,215.3,179.3,215.3 M172.4,202.4
			c-0.5,0-1-0.2-1.3-0.7c-1.4-2-3-3.8-4.5-5.4c-0.6-0.6-0.6-1.6,0-2.2c0.6-0.6,1.6-0.6,2.3,0c1.7,1.7,3.4,3.7,4.9,5.8
			c0.5,0.7,0.3,1.7-0.4,2.2C173,202.3,172.7,202.4,172.4,202.4 M117.2,202.2c-0.3,0-0.6-0.1-0.9-0.3c-0.7-0.5-0.9-1.5-0.4-2.2
			c1.5-2.2,3.1-4.2,4.8-5.9c0.6-0.6,1.6-0.7,2.2,0c0.6,0.6,0.7,1.6,0,2.2c-1.6,1.6-3.1,3.5-4.4,5.5
			C118.3,202,117.8,202.2,117.2,202.2 M162,192c-0.3,0-0.6-0.1-0.9-0.3c-2-1.4-4-2.5-6.2-3.3c-0.8-0.3-1.2-1.3-0.9-2.1
			c0.3-0.8,1.3-1.2,2.1-0.9c2.3,0.9,4.6,2.2,6.8,3.7c0.7,0.5,0.9,1.5,0.4,2.2C163,191.7,162.5,192,162,192 M127.5,191.8
			c-0.5,0-1-0.2-1.3-0.7c-0.5-0.7-0.3-1.7,0.4-2.2c2.2-1.5,4.5-2.7,6.8-3.6c0.8-0.3,1.7,0.1,2,0.9c0.3,0.8-0.1,1.7-0.9,2
			c-2.1,0.8-4.2,1.9-6.2,3.2C128.1,191.7,127.8,191.8,127.5,191.8 M141.1,186.6c-0.8,0-1.5-0.6-1.6-1.4c-0.1-0.9,0.5-1.7,1.4-1.8
			c1-0.1,2.1-0.2,3.1-0.2l0.7,0h0c1.3,0,2.6,0.1,3.8,0.2c0.9,0.1,1.5,0.9,1.4,1.8c-0.1,0.9-0.9,1.5-1.8,1.4
			c-1.1-0.1-2.3-0.2-3.5-0.2l-0.7,0c-0.9,0-1.9,0.1-2.8,0.2C141.2,186.6,141.2,186.6,141.1,186.6"/>
	</g>
	<g>
		<path fill="#FFFFFF" d="M182.7,225.8c-0.7,0-1.3-0.5-1.5-1.2c-0.3-1.2-0.6-2.3-1-3.4c-0.2-0.8,0.2-1.7,1.1-2
			c0.8-0.3,1.7,0.2,2,1.1c0.2,0.7,0.4,1.5,0.6,2.2c0.7-0.1,1.5-0.2,2.3-0.2c0.9-0.1,1.7,0.6,1.7,1.4c0.1,0.9-0.6,1.6-1.4,1.7
			c-1.2,0.1-2.4,0.3-3.6,0.4C182.8,225.8,182.8,225.8,182.7,225.8"/>
	</g>
	<g>
		<path fill="#FFFFFF" d="M214,293.9c-0.4,0-0.9-0.2-1.2-0.5c-0.6-0.7-0.5-1.7,0.1-2.2c1.7-1.5,3.4-3.1,4.9-4.7
			c0.6-0.6,1.6-0.6,2.2,0c0.6,0.6,0.6,1.6,0,2.2c-1.6,1.6-3.3,3.3-5,4.9C214.7,293.7,214.4,293.9,214,293.9 M223.5,283.9
			c-0.3,0-0.7-0.1-1-0.4c-0.7-0.6-0.8-1.6-0.2-2.2c1.5-1.8,2.8-3.6,4-5.4c0.5-0.7,1.5-0.9,2.2-0.5c0.7,0.5,0.9,1.5,0.5,2.2
			c-1.2,1.9-2.6,3.8-4.1,5.7C224.4,283.7,224,283.9,223.5,283.9 M230.9,272.4c-0.2,0-0.5,0-0.7-0.2c-0.8-0.4-1.1-1.3-0.8-2.1
			c1-2.1,1.8-4.1,2.4-6.2c0.2-0.8,1.1-1.3,2-1.1c0.8,0.2,1.3,1.1,1.1,2c-0.6,2.2-1.5,4.5-2.6,6.7C232.1,272,231.5,272.4,230.9,272.4
			 M234.7,259.2c0,0-0.1,0-0.1,0c-0.9-0.1-1.5-0.8-1.4-1.7c0.1-0.9,0.1-1.9,0.1-2.8c0-1.2-0.1-2.5-0.2-3.8c-0.1-0.9,0.5-1.7,1.4-1.8
			c0.9-0.1,1.7,0.5,1.8,1.4c0.2,1.4,0.2,2.8,0.2,4.1c0,1,0,2-0.1,3.1C236.2,258.6,235.5,259.2,234.7,259.2 M233,245.6
			c-0.7,0-1.3-0.4-1.5-1.1c-0.7-2.1-1.7-4-2.9-5.8c-0.5-0.7-0.3-1.7,0.4-2.2c0.7-0.5,1.7-0.3,2.2,0.4c1.3,2,2.4,4.2,3.2,6.5
			c0.3,0.8-0.1,1.7-1,2C233.3,245.6,233.2,245.6,233,245.6 M225.5,234.3c-0.4,0-0.8-0.1-1.1-0.4c-1.6-1.4-3.3-2.7-5.3-3.8
			c-0.8-0.4-1-1.4-0.6-2.2c0.4-0.8,1.4-1,2.2-0.6c2.2,1.2,4.1,2.6,5.9,4.2c0.7,0.6,0.7,1.6,0.1,2.2
			C226.3,234.1,225.9,234.3,225.5,234.3 M213.6,227.6c-0.2,0-0.3,0-0.5-0.1c-2-0.7-4.2-1.2-6.4-1.6c-0.9-0.2-1.4-1-1.3-1.8
			c0.2-0.9,1-1.4,1.8-1.3c2.4,0.4,4.8,1,6.9,1.7c0.8,0.3,1.3,1.2,1,2C214.8,227.2,214.2,227.6,213.6,227.6 M200.1,225.1
			c0,0-0.1,0-0.1,0c-2.1-0.2-4.4-0.2-6.7-0.1c0,0,0,0,0,0c-0.9,0-1.6-0.7-1.6-1.6c0-0.9,0.7-1.6,1.5-1.6c2.3-0.1,4.7,0,7,0.1
			c0.9,0.1,1.5,0.8,1.5,1.7C201.6,224.5,200.9,225.1,200.1,225.1"/>
	</g>
	<g>
		<path fill="#FFFFFF" d="M206.2,304.1c-0.8,0-1.5-0.6-1.6-1.4c-0.1-1.3-0.3-2.5-0.5-3.6c-0.1-0.6,0.2-1.2,0.6-1.5
			c0.9-0.7,1.9-1.4,2.9-2.2c0.7-0.5,1.7-0.4,2.2,0.3c0.5,0.7,0.4,1.7-0.3,2.2c-0.7,0.6-1.5,1.1-2.2,1.7c0.1,0.9,0.2,1.8,0.3,2.7
			c0.1,0.9-0.5,1.7-1.4,1.8C206.3,304.1,206.3,304.1,206.2,304.1"/>
	</g>
	<g>
		<path fill="#FFFFFF" d="M165.7,366.9c-1.2,0-2.5-0.1-3.7-0.2c-0.9-0.1-1.5-0.8-1.4-1.7c0.1-0.9,0.8-1.5,1.7-1.4
			c2.4,0.2,4.8,0.2,7.2,0c0.9-0.1,1.6,0.6,1.7,1.4c0.1,0.9-0.6,1.7-1.4,1.7C168.4,366.9,167,366.9,165.7,366.9 M176.9,365.5
			c-0.7,0-1.4-0.5-1.5-1.2c-0.2-0.9,0.3-1.7,1.2-1.9l0.2-0.1c2.3-0.6,4.5-1.4,6.5-2.3c0.8-0.4,1.7,0,2.1,0.8c0.4,0.8,0,1.8-0.8,2.1
			c-2.2,1-4.6,1.9-7.1,2.5l-0.3,0.1C177.2,365.4,177.1,365.5,176.9,365.5 M154.8,365.4c-0.1,0-0.3,0-0.4-0.1
			c-2.5-0.7-4.9-1.7-7.2-2.9c-0.8-0.4-1.1-1.4-0.7-2.1c0.4-0.8,1.4-1.1,2.1-0.7c2.1,1.1,4.3,2,6.6,2.7c0.8,0.2,1.3,1.1,1.1,2
			C156.1,364.9,155.5,365.4,154.8,365.4 M190.3,359.1c-0.5,0-1-0.2-1.3-0.6c-0.5-0.7-0.4-1.7,0.3-2.2c1.9-1.4,3.6-3.1,5.2-4.9
			c0.6-0.7,1.6-0.7,2.2-0.2c0.7,0.6,0.7,1.6,0.2,2.2c-1.7,2-3.6,3.8-5.6,5.4C191,359,190.7,359.1,190.3,359.1 M141.6,358.5
			c-0.3,0-0.7-0.1-1-0.3c-2-1.6-3.8-3.3-5.6-5.3c-0.6-0.6-0.5-1.7,0.1-2.2c0.6-0.6,1.7-0.5,2.2,0.1c1.7,1.8,3.4,3.5,5.2,4.9
			c0.7,0.5,0.8,1.5,0.3,2.2C142.5,358.3,142.1,358.5,141.6,358.5 M200,347.8c-0.3,0-0.5-0.1-0.8-0.2c-0.8-0.4-1-1.4-0.6-2.2
			c1.1-2,2.2-4.2,3-6.5c0.3-0.8,1.2-1.2,2-0.9c0.8,0.3,1.2,1.2,0.9,2c-0.9,2.5-2,4.8-3.2,7C201.1,347.5,200.6,347.8,200,347.8
			 M205.2,333.9c-0.1,0-0.2,0-0.3,0c-0.9-0.2-1.4-1-1.2-1.9c0.5-2.3,0.9-4.7,1.2-7.2c0.1-0.9,0.9-1.5,1.8-1.4
			c0.9,0.1,1.5,0.9,1.4,1.8c-0.3,2.6-0.7,5.1-1.3,7.5C206.6,333.4,206,333.9,205.2,333.9 M207,319L207,319c-0.9,0-1.6-0.7-1.6-1.6
			c0-0.7,0-1.5,0-2.2c0-1.7,0-3.4-0.1-5.1c-0.1-0.9,0.6-1.6,1.5-1.7c0.9-0.1,1.6,0.6,1.7,1.5c0.1,1.8,0.1,3.6,0.1,5.3
			c0,0.8,0,1.5,0,2.3C208.5,318.3,207.8,319,207,319"/>
	</g>
</g>
</svg>
