<?xml version="1.0" encoding="utf-8"?>
<!-- Generator: Adobe Illustrator 18.0.0, SVG Export Plug-In . SVG Version: 6.00 Build 0)  -->
<!DOCTYPE svg PUBLIC "-//W3C//DTD SVG 1.1//EN" "http://www.w3.org/Graphics/SVG/1.1/DTD/svg11.dtd">
<svg version="1.1" id="Layer_1" xmlns="http://www.w3.org/2000/svg" xmlns:xlink="http://www.w3.org/1999/xlink" x="0px" y="0px"
	 viewBox="0 0 755 354" enable-background="new 0 0 755 354" xml:space="preserve">
<g>
	<g>
		<path fill="#FFFFFF" d="M19.7,123.4H37V11.6H19.7V4.9h46.4c43.8,0,70,25.1,70,61.8c0,37.3-25.5,63.4-69.6,63.4H19.7V123.4z
			 M67.2,123.4c40.3,0,61.1-23.4,61.1-56.9c0-32.9-22.6-55-62.4-55H44.8v111.9H67.2z"/>
	</g>
	<g>
		<path fill="#FFFFFF" d="M134.2,123.4h13.7l41.9-111.9H174V4.9h47.6v6.7h-15.8l41.9,111.9h13.9v6.7h-38.6v-6.7h16.4l-14.6-39.8
			h-53.8l-14.7,39.8h16.7v6.7h-38.6V123.4z M222.1,77l-24.4-66l-24.5,66H222.1z"/>
	</g>
	<g>
		<polygon fill="#FFFFFF" points="285.1,123.4 304.3,123.4 304.3,77.8 265.5,11.6 251.2,11.6 251.2,4.9 290,4.9 290,11.6 
			274.4,11.6 308.5,71.3 342.5,11.6 326.7,11.6 326.7,4.9 365.4,4.9 365.4,11.6 350.9,11.6 312.3,77.8 312.3,123.4 331.5,123.4 
			331.5,130.1 285.1,130.1 		"/>
	</g>
	<g>
		<path fill="#FFFFFF" d="M373,107.5c0-5.3,3-8.8,7-8.8c3.4,0,6.5,2.9,6.5,6.5c0,3-1.7,5.7-4.2,7.2c3.8,6.7,14.8,12.7,29.9,12.7
			c19,0,31-10.8,31-26.4c0-15.8-14.5-22.6-30.1-28.9c-18.8-7.4-35.6-15.2-35.6-35.4c0-18.3,15-31.4,36.3-31.4
			c19.2,0,34.6,11.8,34.6,23.2c0,4.9-3.2,8-6.9,8c-3.6,0-6.7-2.9-6.7-6.7c0-2.9,1.5-5.1,3.6-6.8c-3.2-6.1-14.6-10.8-25.1-10.8
			c-16.7,0-28.4,10.3-28.4,24c0,16,14.3,22.3,31,28.9c18.3,7.2,34.6,15.4,34.6,35.4c0,20.5-16.6,33.9-39,33.9
			C388.2,132,373,118.3,373,107.5"/>
	</g>
	<g>
		<path fill="#FFFFFF" d="M238.6,254.5c0-40,30.1-66.2,63.7-66.2c27.6,0,46.2,16,46.2,28.4c0,4.9-3,8.2-7.2,8.2
			c-3.8,0-6.7-3-6.7-6.9c0-2.9,1.3-5.3,4.2-6.7c-4.6-7.8-18.5-16.2-36.7-16.2c-33.7,0-55.6,27-55.6,59.4c0,33.5,23.8,55.9,53.3,55.9
			c15.2,0,29.5-4.9,43-15.2v-30.6h-38.4v-6.7h46v57.6h-7.4v-13.3c-12.9,9.7-26.4,14.8-43.6,14.8C267.6,317,238.6,293.5,238.6,254.5"
			/>
	</g>
	<g>
		<polygon fill="#FFFFFF" points="376.8,308.9 395,308.9 395,197 376.8,197 376.8,190.3 421.3,190.3 421.3,197 402.8,197 
			402.8,308.9 421.3,308.9 421.3,315.5 376.8,315.5 		"/>
	</g>
	<g>
		<path fill="#FFFFFF" d="M447.7,308.9H465V197h-17.3v-6.7h46.8c26.3,0,42.8,14.6,42.8,35c0,18.3-12.2,30.3-30.2,34.4l31.2,49.1
			h15.2v6.7H533l-34.1-54.4c-2.1,0.2-4.8,0.4-7.2,0.4c-6.8,0-13.7,0-18.8-0.2v47.6h17.7v6.7h-42.8V308.9z M529.3,225.5
			c0-17.5-13.5-28.5-35.4-28.5h-21.1v57.5c5.7,0.2,12.6,0.4,19.2,0.4C513.9,254.8,529.3,244.8,529.3,225.5"/>
	</g>
	<g>
		<polygon fill="#FFFFFF" points="572.7,308.9 590,308.9 590,197 572.7,197 572.7,190.3 615.9,190.3 615.9,197 597.8,197 
			597.8,308.9 648.6,308.9 648.6,286.8 656.1,286.8 656.1,315.5 572.7,315.5 		"/>
	</g>
	<g>
		<path fill="#FFFFFF" d="M673.2,292.9c0-5.3,3-8.7,7-8.7c3.4,0,6.5,2.9,6.5,6.5c0,3-1.7,5.7-4.2,7.2c3.8,6.7,14.8,12.7,29.9,12.7
			c19,0,31-10.8,31-26.4c0-15.8-14.5-22.6-30.1-28.9c-18.8-7.4-35.6-15.2-35.6-35.4c0-18.3,15-31.4,36.3-31.4
			c19.2,0,34.6,11.8,34.6,23.2c0,4.9-3.2,8-6.9,8c-3.6,0-6.7-2.9-6.7-6.7c0-2.9,1.5-5.1,3.6-6.8c-3.2-6.1-14.6-10.8-25.1-10.8
			c-16.7,0-28.3,10.3-28.3,24c0,16,14.3,22.3,31,28.9c18.3,7.2,34.6,15.4,34.6,35.4c0,20.5-16.6,33.9-39,33.9
			C688.4,317.4,673.2,303.7,673.2,292.9"/>
	</g>
	<g>
		<polygon fill="#FFFFFF" points="504.5,104.9 504.5,98.1 517.9,98.1 517.9,37.2 504.5,37.2 504.5,30.3 564.2,30.3 564.2,50.7 
			556.7,50.7 556.7,37.2 525.6,37.2 525.6,64.6 550.8,64.6 550.8,71.6 525.6,71.6 525.6,98.1 539.6,98.1 539.6,104.9 		"/>
	</g>
	<g>
		<path fill="#FFFFFF" d="M653.5,67.4c0,21.7-15.5,38.9-38.1,38.9c-22.3,0-37.8-17.1-37.8-38.9c0-21.6,15.5-38.7,38-38.7
			C638,28.7,653.5,45.8,653.5,67.4 M645.4,67.4c0-18.2-12.4-31.6-29.9-31.6c-17.6,0-29.9,13.3-29.9,31.6c0,18.6,12.4,31.7,29.8,31.7
			C633.1,99.1,645.4,86,645.4,67.4"/>
	</g>
	<g>
		<path fill="#FFFFFF" d="M694.7,98.1h13.7v6.8h-34.8v-6.8H687V37.2h-13.4v-6.8h33c17,0,27.7,8.2,27.7,21.4
			c0,10.3-6.8,17.7-16.5,20.7l16.1,25.6h11.6v6.8h-17l-18.6-30.7c-2.4,0.1-4,0.1-5.2,0.1c-2.7,0-7.1,0-10-0.1V98.1z M694.7,37.2
			v30.2c3.6,0.1,7.6,0.1,11,0.1c12.2,0,20.8-5.5,20.8-15.6c0-9.5-7.9-14.7-20.3-14.7H694.7z"/>
	</g>
</g>
<g>
	<rect x="504.2" y="123.3" fill="#FFD08C" width="240.4" height="6.7"/>
</g>
<g>
	<rect x="504.2" y="3.4" fill="#FFD08C" width="240.4" height="6.7"/>
</g>
<g>
	<g>
		<path fill="#FFE9CA" d="M131.7,340.4c-20.5-2.7-30-22.6-33.2-31.4c-5.9,6.5-20.1,20.2-34.8,18.3c-3.3-0.4-6.4-1.6-9.2-3.6
			c-18.6-12.6-4.9-45.4-0.6-54.5c-4.1-1.9-13-6.8-26.1-19.3c-9.2-8.7-13.9-21.1-12.9-34c0.9-11.7,6.5-22.2,15.1-28.1
			c8.4-5.9,19.1-8,31.7-6.3c8.8,1.2,16.3,3.9,20,5.5c0.8-3.1,2.5-8.4,5.4-13.8c6.1-11.3,14.8-17.3,25.2-17.6c1.3,0,2.7,0,4,0.2
			c22.8,3,30.5,36,32.2,45.5c5.3-1.1,18.3-3.3,30.5-1.7c15.3,2,24.2,9.6,25.9,21.7c3.3,23.9-26.4,44.9-33.4,49.4
			c0.9,4.3,2.9,16.3,2,29.2c-1.5,21.6-10.7,35.2-26.5,39.3C141.6,340.7,136.5,341.1,131.7,340.4"/>
	</g>
	<g>
		<path fill-rule="evenodd" clip-rule="evenodd" fill="#FCBE67" d="M62.9,274.6c0.8-1.8,1.4-4.3,3-6.5c1.3-1.9,1-3-1.4-3.9
			c-12.6-4.9-22.6-13.1-29.4-25c-4.8-8.4-6.8-17.4-3-27.1c3-7.5,8.6-12.2,15.8-14.8c11.1-4,22.1-2.9,32.8,0.9c1.3,0.5,2.6,1,3.9,1.5
			c3.6,1.5,3.5,1.4,4.4-2.7c1.5-6.6,3.9-12.8,8.2-18c6.4-7.9,15.3-9,23.2-2.9c5.1,4,8.6,9.3,11.5,15c3.3,6.6,5.7,13.6,6.9,21
			c0.3,2,1,2.4,2.9,1.8c8.2-2.4,16.6-3.7,25.1-2.5c4.8,0.7,9.5,2,13.3,5.2c5.3,4.6,6.7,11.6,4,18.9c-3.3,9-9.7,15.7-16.7,21.8
			c-2.6,2.2-5.3,4.2-8.3,6c-1.5,0.9-1.8,1.9-1.4,3.6c2.3,9.7,2.3,19.6,0.3,29.4c-1.4,6.9-4.2,13.3-8.7,18.6c-8,9.4-19.7,10.6-30,3.3
			c-5.9-4.2-10.2-9.9-13.6-16.4c-1.4-2.6-2.5-5.3-3.5-8.1c-1-3.1-1.1-3-3.2-0.6c-6.5,7.3-13.5,13.7-22.7,17.3
			c-6.3,2.5-12.3,1.5-15.6-3c-2.2-3-2.9-6.5-3-10.1C57.8,289.8,59.6,282.4,62.9,274.6"/>
	</g>
	<g>
		<path fill-rule="evenodd" clip-rule="evenodd" fill="#BC202F" d="M120.6,251.7c-2.2,5.6-7.9,8-13.5,5.8c-5.5-2.1-8-7.9-5.9-13.3
			c2.1-5.3,8-8,13.4-6C120.1,240.2,122.8,246.2,120.6,251.7"/>
	</g>
</g>
<g>
	<g>
		<path fill="#FFFFFF" d="M97.8,330c-0.6,0-1.1-0.3-1.5-0.8c-0.4-0.6-0.8-1.2-1.2-1.8c-0.6,0.4-1.1,0.9-1.7,1.3
			c-0.8,0.6-1.9,0.4-2.5-0.4c-0.6-0.8-0.4-1.9,0.4-2.5c1.1-0.8,2.2-1.6,3.2-2.5c0.4-0.3,0.9-0.5,1.5-0.4c0.5,0.1,1,0.4,1.2,0.9
			c0.7,1.1,1.4,2.2,2.1,3.4c0.6,0.8,0.3,1.9-0.5,2.5C98.5,329.9,98.1,330,97.8,330"/>
	</g>
	<g>
		<path fill="#FFFFFF" d="M66.5,338.8c-1.5,0-2.9-0.1-4.3-0.3l-0.3,0c-1-0.1-1.7-1.1-1.5-2c0.1-1,1-1.7,2-1.5l0.3,0
			c2.4,0.3,4.9,0.3,7.4,0.1c1-0.1,1.9,0.6,2,1.6c0.1,1-0.6,1.9-1.6,2C69.1,338.7,67.8,338.8,66.5,338.8 M78.1,336.7
			c-0.7,0-1.4-0.5-1.7-1.2c-0.3-0.9,0.2-2,1.1-2.3c2.3-0.8,4.7-1.9,7.1-3.2c0.9-0.5,2-0.2,2.4,0.7c0.5,0.9,0.2,2-0.7,2.4
			c-2.6,1.4-5.2,2.6-7.7,3.4C78.5,336.7,78.3,336.7,78.1,336.7 M54.3,336.2c-0.2,0-0.5,0-0.7-0.2c-1.8-0.8-3.6-1.8-5.3-2.9
			c-0.7-0.5-1.4-1-2-1.5c-0.8-0.6-0.9-1.7-0.3-2.5c0.6-0.8,1.7-0.9,2.5-0.3c0.6,0.5,1.2,0.9,1.8,1.3c1.5,1,3.1,1.9,4.7,2.6
			c0.9,0.4,1.3,1.5,0.9,2.4C55.6,335.8,55,336.2,54.3,336.2 M41.7,326.2c-0.6,0-1.1-0.3-1.5-0.8c-1.6-2.3-3-4.9-4-7.6
			c-0.3-0.9,0.1-2,1.1-2.3s2,0.1,2.3,1.1c0.9,2.4,2.1,4.7,3.5,6.7c0.6,0.8,0.4,1.9-0.4,2.5C42.5,326.1,42.1,326.2,41.7,326.2
			 M36.1,311.1c-0.9,0-1.7-0.7-1.8-1.6c-0.3-2-0.4-4.1-0.4-6.3c0-0.7,0-1.4,0-2.1c0-1,0.9-1.8,1.9-1.7c1,0,1.8,0.9,1.7,1.9
			c0,0.7,0,1.3,0,2c0,2,0.1,4,0.4,5.8c0.1,1-0.6,1.9-1.6,2C36.3,311.1,36.2,311.1,36.1,311.1 M36.6,294.9c-0.1,0-0.2,0-0.3,0
			c-1-0.2-1.7-1.1-1.5-2.1c0.4-2.6,1-5.4,1.7-8.1c0.2-1,1.2-1.5,2.2-1.3c1,0.2,1.5,1.2,1.3,2.2c-0.7,2.7-1.2,5.3-1.6,7.8
			C38.2,294.3,37.5,294.9,36.6,294.9"/>
	</g>
	<g>
		<path fill="#FFFFFF" d="M40.6,279.1c-0.2,0-0.4,0-0.6-0.1c-0.9-0.3-1.4-1.3-1.1-2.3c0.3-0.9,0.6-1.7,0.9-2.5
			c-0.7-0.5-1.5-1-2.3-1.5c-0.8-0.6-1-1.7-0.4-2.5c0.6-0.8,1.7-1,2.5-0.4c1.2,0.8,2.3,1.6,3.3,2.2c0.7,0.5,1,1.4,0.7,2.2
			c-0.5,1.2-0.9,2.5-1.4,3.8C42.1,278.6,41.4,279.1,40.6,279.1"/>
	</g>
	<g>
		<path fill="#FFFFFF" d="M32,267.9c-0.4,0-0.8-0.1-1.1-0.4c-2.1-1.7-4.3-3.5-6.4-5.5c-0.7-0.7-0.8-1.8-0.1-2.5
			c0.7-0.7,1.8-0.8,2.5-0.1c2.1,1.9,4.2,3.7,6.3,5.4c0.8,0.6,0.9,1.8,0.3,2.5C33,267.7,32.5,267.9,32,267.9 M19.5,256.7
			c-0.5,0-1-0.2-1.3-0.6c-2-2.1-3.8-4.3-5.4-6.7c-0.6-0.8-0.3-1.9,0.5-2.5c0.8-0.6,1.9-0.3,2.5,0.5c1.5,2.2,3.2,4.3,5.1,6.3
			c0.7,0.7,0.7,1.9-0.1,2.5C20.4,256.6,20,256.7,19.5,256.7 M10.1,243c-0.7,0-1.3-0.4-1.6-1c-1.2-2.6-2.2-5.3-3-8.1
			c-0.3-1,0.3-1.9,1.2-2.2c1-0.3,1.9,0.3,2.2,1.2c0.7,2.6,1.7,5.1,2.8,7.6c0.4,0.9,0,2-0.9,2.4C10.7,242.9,10.4,243,10.1,243
			 M5.7,226.9c-0.9,0-1.7-0.7-1.8-1.6c-0.2-2-0.3-4-0.3-6c0-0.9,0-1.7,0.1-2.6c0-1,0.9-1.7,1.9-1.7c1,0,1.8,0.9,1.7,1.9
			c0,0.8-0.1,1.6-0.1,2.4c0,1.9,0.1,3.8,0.3,5.6c0.1,1-0.6,1.9-1.6,2C5.8,226.9,5.7,226.9,5.7,226.9 M6.5,210.3c-0.1,0-0.2,0-0.4,0
			c-1-0.2-1.6-1.2-1.4-2.1c0.6-2.8,1.4-5.6,2.5-8.3c0.4-0.9,1.4-1.4,2.3-1c0.9,0.4,1.4,1.4,1,2.3c-1,2.5-1.8,5.1-2.3,7.7
			C8.1,209.7,7.3,210.3,6.5,210.3 M12.6,194.8c-0.3,0-0.6-0.1-0.9-0.3c-0.8-0.5-1.1-1.6-0.6-2.5c1.5-2.5,3.3-4.8,5.2-7
			c0.7-0.7,1.8-0.8,2.5-0.1c0.7,0.7,0.8,1.8,0.1,2.5c-1.8,2-3.4,4.1-4.8,6.4C13.8,194.5,13.2,194.8,12.6,194.8 M23.8,182.5
			c-0.5,0-1.1-0.3-1.4-0.7c-0.6-0.8-0.4-1.9,0.4-2.5c0.3-0.2,0.6-0.4,0.8-0.6c2.1-1.4,4.3-2.7,6.6-3.8c0.9-0.4,2,0,2.4,0.8
			c0.4,0.9,0,2-0.8,2.4c-2.1,1-4.2,2.2-6.1,3.6c-0.3,0.2-0.5,0.4-0.8,0.5C24.5,182.4,24.1,182.5,23.8,182.5 M38.7,175.3
			c-0.8,0-1.5-0.5-1.7-1.3c-0.3-1,0.3-1.9,1.3-2.2c2.7-0.7,5.6-1.3,8.5-1.6c1-0.1,1.9,0.6,2,1.6c0.1,1-0.6,1.9-1.6,2
			c-2.7,0.3-5.4,0.8-7.9,1.5C39.1,175.3,38.9,175.3,38.7,175.3 M63.6,174.2c-0.1,0-0.2,0-0.3,0l-0.9-0.1c-2.5-0.3-4.9-0.5-7.3-0.6
			c-1,0-1.8-0.8-1.7-1.8c0-1,0.8-1.7,1.8-1.7c0,0,0,0,0.1,0c2.5,0.1,5,0.3,7.6,0.6l0.9,0.1c1,0.1,1.7,1.1,1.5,2
			C65.3,173.6,64.5,174.2,63.6,174.2"/>
	</g>
	<g>
		<path fill="#FFFFFF" d="M75.9,176.9c-0.2,0-0.3,0-0.5-0.1c-1.2-0.4-2.5-0.7-3.9-1.1c-1-0.2-1.6-1.2-1.3-2.2c0.2-1,1.2-1.5,2.2-1.3
			c0.9,0.2,1.7,0.4,2.5,0.7c0.3-0.8,0.7-1.6,1.1-2.4c0.4-0.9,1.5-1.3,2.4-0.8c0.9,0.4,1.3,1.5,0.8,2.4c-0.6,1.2-1.1,2.5-1.6,3.6
			C77.2,176.5,76.6,176.9,75.9,176.9"/>
	</g>
	<g>
		<path fill="#FFFFFF" d="M151.7,180.7c-0.7,0-1.4-0.4-1.7-1.1c-1-2.6-2.2-5.1-3.4-7.4c-0.5-0.9-0.1-2,0.7-2.4
			c0.9-0.5,2-0.1,2.4,0.7c1.3,2.4,2.5,5,3.6,7.7c0.4,0.9-0.1,2-1,2.3C152.2,180.7,152,180.7,151.7,180.7 M143.9,166.1
			c-0.6,0-1.1-0.3-1.5-0.8c-1.6-2.3-3.3-4.3-5.1-6.1c-0.7-0.7-0.7-1.8,0-2.5c0.7-0.7,1.9-0.7,2.5,0c1.9,2,3.8,4.2,5.5,6.6
			c0.6,0.8,0.4,1.9-0.4,2.5C144.6,166,144.3,166.1,143.9,166.1 M81.7,166c-0.3,0-0.7-0.1-1-0.3c-0.8-0.6-1-1.7-0.5-2.5
			c1.7-2.5,3.5-4.7,5.4-6.7c0.7-0.7,1.8-0.7,2.5,0c0.7,0.7,0.7,1.8,0,2.5c-1.8,1.9-3.5,4-5,6.2C82.8,165.7,82.2,166,81.7,166
			 M132.2,154.4c-0.3,0-0.7-0.1-1-0.3c-2.2-1.5-4.6-2.8-6.9-3.8c-0.9-0.4-1.4-1.4-1-2.3c0.4-0.9,1.4-1.4,2.3-1
			c2.6,1.1,5.2,2.4,7.7,4.1c0.8,0.6,1,1.7,0.5,2.5C133.4,154.1,132.8,154.4,132.2,154.4 M93.2,154.2c-0.6,0-1.1-0.3-1.5-0.8
			c-0.6-0.8-0.3-1.9,0.5-2.5c2.4-1.7,5-3,7.7-4c0.9-0.4,2,0.1,2.3,1c0.4,0.9-0.1,2-1,2.3c-2.4,0.9-4.8,2.1-7,3.6
			C93.9,154.1,93.6,154.2,93.2,154.2 M108.6,148.4c-0.9,0-1.7-0.7-1.8-1.6c-0.1-1,0.6-1.9,1.6-2c1.2-0.1,2.3-0.2,3.5-0.2l0.8,0h0
			c1.5,0,2.9,0.1,4.3,0.3c1,0.1,1.7,1,1.6,2c-0.1,1-1,1.7-2,1.6c-1.3-0.2-2.6-0.2-3.9-0.2l-0.8,0c-1,0-2.1,0.1-3.2,0.2
			C108.8,148.4,108.7,148.4,108.6,148.4"/>
	</g>
	<g>
		<path fill="#FFFFFF" d="M155.6,192.6c-0.8,0-1.5-0.5-1.7-1.3c-0.3-1.3-0.7-2.6-1.1-3.9c-0.3-1,0.2-2,1.2-2.2c1-0.3,2,0.3,2.2,1.2
			c0.2,0.8,0.5,1.7,0.7,2.5c0.8-0.1,1.7-0.2,2.6-0.3c1-0.1,1.9,0.6,2,1.6c0.1,1-0.6,1.9-1.6,2c-1.4,0.1-2.7,0.3-4,0.4
			C155.7,192.6,155.7,192.6,155.6,192.6"/>
	</g>
	<g>
		<path fill="#FFFFFF" d="M190.9,269.5c-0.5,0-1-0.2-1.3-0.6c-0.7-0.7-0.6-1.9,0.1-2.5c1.9-1.7,3.8-3.5,5.5-5.3
			c0.7-0.7,1.8-0.7,2.5,0c0.7,0.7,0.7,1.8,0,2.5c-1.8,1.8-3.7,3.7-5.7,5.5C191.8,269.3,191.4,269.5,190.9,269.5 M201.7,258.3
			c-0.4,0-0.8-0.1-1.1-0.4c-0.8-0.6-0.9-1.8-0.3-2.5c1.6-2,3.1-4.1,4.5-6.1c0.5-0.8,1.7-1.1,2.5-0.5c0.8,0.5,1.1,1.7,0.5,2.5
			c-1.4,2.1-3,4.3-4.7,6.4C202.7,258.1,202.2,258.3,201.7,258.3 M210.1,245.2c-0.3,0-0.5-0.1-0.8-0.2c-0.9-0.4-1.3-1.5-0.9-2.4
			c1.1-2.3,2-4.7,2.7-7c0.3-1,1.3-1.5,2.2-1.2c1,0.3,1.5,1.3,1.2,2.2c-0.7,2.5-1.7,5-2.9,7.5C211.4,244.8,210.8,245.2,210.1,245.2
			 M214.3,230.3c0,0-0.1,0-0.2,0c-1-0.1-1.7-1-1.6-1.9c0.1-1,0.1-2.1,0.1-3.1c0-1.4-0.1-2.8-0.3-4.2c-0.1-1,0.6-1.9,1.6-2
			c1-0.1,1.9,0.6,2,1.6c0.2,1.5,0.3,3.1,0.3,4.7c0,1.1,0,2.3-0.2,3.5C216,229.6,215.2,230.3,214.3,230.3 M212.4,215
			c-0.7,0-1.4-0.5-1.7-1.2c-0.8-2.3-1.9-4.5-3.3-6.6c-0.5-0.8-0.3-1.9,0.5-2.5c0.8-0.6,1.9-0.3,2.5,0.5c1.5,2.3,2.7,4.7,3.6,7.3
			c0.3,0.9-0.2,2-1.1,2.3C212.8,215,212.6,215,212.4,215 M203.9,202.2c-0.4,0-0.9-0.2-1.2-0.5c-1.8-1.6-3.8-3-6-4.2
			c-0.9-0.5-1.2-1.6-0.7-2.4c0.5-0.9,1.6-1.2,2.4-0.7c2.4,1.4,4.7,2.9,6.7,4.7c0.7,0.7,0.8,1.8,0.1,2.5
			C204.9,202,204.4,202.2,203.9,202.2 M190.5,194.6c-0.2,0-0.4,0-0.6-0.1c-2.3-0.7-4.7-1.4-7.3-1.8c-1-0.2-1.6-1.1-1.5-2.1
			c0.2-1,1.1-1.6,2.1-1.5c2.7,0.5,5.4,1.1,7.8,1.9c0.9,0.3,1.4,1.3,1.1,2.3C191.9,194.1,191.2,194.6,190.5,194.6 M175.2,191.8
			c0,0-0.1,0-0.1,0c-2.3-0.2-5-0.2-7.6-0.1c0,0,0,0,0,0c-1,0-1.8-0.8-1.8-1.8c0-1,0.8-1.8,1.7-1.8c2.6-0.1,5.4,0,7.9,0.2
			c1,0.1,1.7,0.9,1.7,1.9C176.9,191.1,176.1,191.8,175.2,191.8"/>
	</g>
	<g>
		<path fill="#FFFFFF" d="M182.2,281.1c-0.9,0-1.7-0.7-1.8-1.6c-0.2-1.4-0.3-2.8-0.5-4c-0.1-0.7,0.2-1.3,0.7-1.7
			c1-0.7,2.1-1.6,3.2-2.4c0.8-0.6,1.9-0.5,2.5,0.3c0.6,0.8,0.5,1.9-0.3,2.5c-0.8,0.7-1.7,1.3-2.5,1.9c0.1,1,0.3,2,0.4,3.1
			c0.1,1-0.6,1.9-1.6,2C182.3,281.1,182.2,281.1,182.2,281.1"/>
	</g>
	<g>
		<path fill="#FFFFFF" d="M136.4,352c-1.4,0-2.8-0.1-4.2-0.2c-1-0.1-1.7-1-1.6-1.9c0.1-1,0.9-1.7,1.9-1.6c2.7,0.2,5.4,0.2,8.1,0
			c1-0.1,1.9,0.6,1.9,1.6c0.1,1-0.6,1.9-1.6,1.9C139.4,351.9,137.9,352,136.4,352 M149.1,350.4c-0.8,0-1.5-0.5-1.7-1.4
			c-0.2-1,0.4-1.9,1.3-2.2l0.2-0.1c2.6-0.7,5-1.6,7.4-2.6c0.9-0.4,2,0,2.4,0.9c0.4,0.9,0,2-0.9,2.4c-2.5,1.2-5.2,2.2-8,2.9l-0.3,0.1
			C149.4,350.4,149.2,350.4,149.1,350.4 M124,350.3c-0.2,0-0.3,0-0.5-0.1c-2.8-0.8-5.5-1.9-8.2-3.3c-0.9-0.5-1.2-1.5-0.7-2.4
			c0.5-0.9,1.5-1.2,2.4-0.8c2.4,1.3,4.9,2.3,7.5,3c1,0.3,1.5,1.3,1.2,2.2C125.5,349.8,124.8,350.3,124,350.3 M164.2,343.2
			c-0.5,0-1.1-0.2-1.4-0.7c-0.6-0.8-0.5-1.9,0.3-2.5c2.1-1.6,4.1-3.5,5.8-5.5c0.6-0.8,1.8-0.8,2.5-0.2c0.8,0.6,0.8,1.8,0.2,2.5
			c-1.9,2.2-4.1,4.3-6.4,6.1C165,343,164.6,343.2,164.2,343.2 M109.2,342.5c-0.4,0-0.8-0.1-1.1-0.4c-2.2-1.8-4.3-3.8-6.3-6
			c-0.7-0.7-0.6-1.9,0.1-2.5c0.7-0.7,1.9-0.6,2.5,0.1c1.9,2.1,3.9,3.9,5.9,5.6c0.8,0.6,0.9,1.7,0.3,2.5
			C110.2,342.3,109.7,342.5,109.2,342.5 M175.1,330.4c-0.3,0-0.6-0.1-0.9-0.2c-0.9-0.5-1.2-1.6-0.7-2.4c1.3-2.3,2.4-4.8,3.4-7.4
			c0.3-0.9,1.4-1.4,2.3-1.1c0.9,0.3,1.4,1.4,1.1,2.3c-1,2.8-2.3,5.5-3.7,7.9C176.4,330.1,175.8,330.4,175.1,330.4 M181.1,314.7
			c-0.1,0-0.3,0-0.4,0c-1-0.2-1.6-1.2-1.4-2.1c0.6-2.6,1-5.3,1.4-8.1c0.1-1,1-1.7,2-1.6c1,0.1,1.7,1,1.6,2c-0.3,2.9-0.8,5.8-1.4,8.5
			C182.6,314.1,181.9,314.7,181.1,314.7 M183,297.9L183,297.9c-1,0-1.8-0.8-1.8-1.8c0-0.8,0-1.7,0-2.5c0-1.9,0-3.9-0.1-5.8
			c-0.1-1,0.7-1.8,1.7-1.9c1.1-0.1,1.8,0.7,1.9,1.7c0.1,2,0.2,4,0.2,6c0,0.9,0,1.7,0,2.6C184.8,297.1,184,297.9,183,297.9"/>
	</g>
</g>
</svg>
