<svg xmlns="http://www.w3.org/2000/svg" version="1.1" x="0" y="0" viewBox="3.8 215.6 791.7 369.8" enable-background="new 3.8 215.6 791.7 369.8" xml:space="preserve"><path fill="#FFFFFF" d="M20.9 343.2h18.3V224.7H20.9v-7.1H70c46.4 0 74.2 26.6 74.2 65.5 0 39.5-27 67.2-73.7 67.2H20.9V343.2zM71.2 343.2c42.7 0 64.7-24.8 64.7-60.3 0-34.9-23.9-58.3-66.1-58.3H47.5v118.6H71.2z"/><path fill="#FFFFFF" d="M142.2 343.2h14.5l44.4-118.6h-16.7v-7h50.4v7.1h-16.7l44.4 118.6h14.7v7.1h-40.9v-7.1h17.4l-15.5-42.2h-57l-15.6 42.2h17.7v7.1h-40.9v-7.2H142.2zM235.3 294l-25.9-69.9 -26 69.9H235.3z"/><polygon fill="#FFFFFF" points="302.1 343.2 322.4 343.2 322.4 294.9 281.3 224.7 266.2 224.7 266.2 217.6 307.3 217.6 307.3 224.7 290.8 224.7 326.9 288 362.9 224.7 346.2 224.7 346.2 217.6 387.2 217.6 387.2 224.7 371.8 224.7 330.9 294.9 330.9 343.2 351.3 343.2 351.3 350.3 302.1 350.3 "/><path fill="#FFFFFF" d="M395.2 326.4c0-5.6 3.2-9.3 7.4-9.3 3.6 0 6.9 3.1 6.9 6.9 0 3.2-1.8 6-4.5 7.6 4 7.1 15.7 13.5 31.7 13.5 20.1 0 32.8-11.4 32.8-28 0-16.7-15.4-23.9-31.9-30.6 -19.9-7.8-37.7-16.1-37.7-37.5 0-19.4 15.9-33.3 38.5-33.3 20.3 0 36.7 12.5 36.7 24.6 0 5.2-3.4 8.5-7.3 8.5 -3.8 0-7.1-3.1-7.1-7.1 0-3.1 1.6-5.4 3.8-7.2 -3.4-6.5-15.5-11.4-26.6-11.4 -17.7 0-30.1 10.9-30.1 25.4 0 17 15.2 23.6 32.8 30.6 19.4 7.6 36.7 16.3 36.7 37.5 0 21.7-17.6 35.9-41.3 35.9C411.3 352.3 395.2 337.8 395.2 326.4"/><path fill="#FFFFFF" d="M252.8 482.1c0-42.4 31.9-70.1 67.5-70.1 29.2 0 49 17 49 30.1 0 5.2-3.2 8.7-7.6 8.7 -4 0-7.1-3.2-7.1-7.3 0-3.1 1.4-5.6 4.5-7.1 -4.9-8.3-19.6-17.2-38.9-17.2 -35.7 0-58.9 28.6-58.9 62.9 0 35.5 25.2 59.2 56.5 59.2 16.1 0 31.3-5.2 45.6-16.1v-32.4h-40.7v-7.1h48.7v61h-7.8v-14.1c-13.7 10.3-28 15.7-46.2 15.7C283.5 548.3 252.8 523.4 252.8 482.1"/><polygon fill="#FFFFFF" points="399.3 539.8 418.5 539.8 418.5 421.2 399.3 421.2 399.3 414.1 446.4 414.1 446.4 421.2 426.8 421.2 426.8 539.8 446.4 539.8 446.4 546.8 399.3 546.8 "/><path fill="#FFFFFF" d="M474.4 539.8h18.3V421.2h-18.3v-7.1H524c27.9 0 45.4 15.5 45.4 37.1 0 19.4-12.9 32.1-32 36.5l33.1 52h16.1v7.1h-21.7l-36.1-57.6c-2.2 0.2-5.1 0.4-7.6 0.4 -7.2 0-14.5 0-19.9-0.2v50.4h18.8v7.1h-45.4v-7.1H474.4zM560.8 451.4c0-18.5-14.3-30.2-37.5-30.2H501v60.9c6 0.2 13.4 0.4 20.3 0.4C544.5 482.4 560.8 471.8 560.8 451.4"/><polygon fill="#FFFFFF" points="606.8 539.8 625.2 539.8 625.2 421.2 606.8 421.2 606.8 414.1 652.6 414.1 652.6 421.2 633.4 421.2 633.4 539.8 687.3 539.8 687.3 516.3 695.2 516.3 695.2 546.8 606.8 546.8 "/><path fill="#FFFFFF" d="M713.3 522.8c0-5.6 3.2-9.2 7.4-9.2 3.6 0 6.9 3.1 6.9 6.9 0 3.2-1.8 6-4.5 7.6 4 7.1 15.7 13.5 31.7 13.5 20.1 0 32.8-11.4 32.8-28 0-16.7-15.4-23.9-31.9-30.6 -19.9-7.8-37.7-16.1-37.7-37.5 0-19.4 15.9-33.3 38.5-33.3 20.3 0 36.7 12.5 36.7 24.6 0 5.2-3.4 8.5-7.3 8.5 -3.8 0-7.1-3.1-7.1-7.1 0-3.1 1.6-5.4 3.8-7.2 -3.4-6.5-15.5-11.4-26.6-11.4 -17.7 0-30 10.9-30 25.4 0 17 15.2 23.6 32.8 30.6 19.4 7.6 36.7 16.3 36.7 37.5 0 21.7-17.6 35.9-41.3 35.9C729.4 548.8 713.3 534.3 713.3 522.8"/><polygon fill="#FFFFFF" points="534.6 323.6 534.6 316.4 548.8 316.4 548.8 251.9 534.6 251.9 534.6 244.6 597.8 244.6 597.8 266.2 589.9 266.2 589.9 251.9 556.9 251.9 556.9 280.9 583.6 280.9 583.6 288.3 556.9 288.3 556.9 316.4 571.8 316.4 571.8 323.6 "/><path fill="#FFFFFF" d="M692.5 283.9c0 23-16.4 41.2-40.4 41.2 -23.6 0-40.1-18.1-40.1-41.2 0-22.9 16.4-41 40.3-41C676 242.9 692.5 261 692.5 283.9M683.9 283.9c0-19.3-13.1-33.5-31.7-33.5 -18.6 0-31.7 14.1-31.7 33.5 0 19.7 13.1 33.6 31.6 33.6C670.8 317.5 683.9 303.6 683.9 283.9"/><path fill="#FFFFFF" d="M736.1 316.4h14.5v7.2h-36.9v-7.2h14.2v-64.5h-14.2v-7.2h35c18 0 29.4 8.7 29.4 22.7 0 10.9-7.2 18.8-17.5 21.9l17.1 27.1h12.3v7.2h-18l-19.7-32.5c-2.5 0.1-4.2 0.1-5.5 0.1 -2.9 0-7.5 0-10.6-0.1L736.1 316.4 736.1 316.4zM736.1 251.9v32c3.8 0.1 8.1 0.1 11.7 0.1 12.9 0 22-5.8 22-16.5 0-10.1-8.4-15.6-21.5-15.6H736.1z"/><rect x="534.3" y="343.1" fill="#FFD08C" width="254.7" height="7.1"/><rect x="534.3" y="216.1" fill="#FFD08C" width="254.7" height="7.1"/><path fill="#FFE9CA" d="M139.5 573.1c-21.7-2.9-31.8-23.9-35.2-33.3 -6.3 6.9-21.3 21.4-36.9 19.4 -3.5-0.4-6.8-1.7-9.7-3.8 -19.7-13.4-5.2-48.1-0.6-57.7 -4.3-2-13.8-7.2-27.7-20.5 -9.7-9.2-14.7-22.4-13.7-36 1-12.4 6.9-23.5 16-29.8 8.9-6.3 20.2-8.5 33.6-6.7 9.3 1.3 17.3 4.1 21.2 5.8 0.8-3.3 2.6-8.9 5.7-14.6 6.5-12 15.7-18.3 26.7-18.6 1.4 0 2.9 0 4.2 0.2 24.2 3.2 32.3 38.1 34.1 48.2 5.6-1.2 19.4-3.5 32.3-1.8 16.2 2.1 25.6 10.2 27.4 23 3.5 25.3-28 47.6-35.4 52.3 1 4.6 3.1 17.3 2.1 30.9 -1.6 22.9-11.3 37.3-28.1 41.6C150 573.5 144.6 573.9 139.5 573.1"/><path fill="#FCBE67" d="M66.6 503.4c0.8-1.9 1.5-4.6 3.2-6.9 1.4-2 1.1-3.2-1.5-4.1 -13.4-5.2-23.9-13.9-31.2-26.5 -5.1-8.9-7.2-18.4-3.2-28.7 3.2-7.9 9.1-12.9 16.7-15.7 11.8-4.2 23.4-3.1 34.8 1 1.4 0.5 2.8 1.1 4.1 1.6 3.8 1.6 3.7 1.5 4.7-2.9 1.6-7 4.1-13.6 8.7-19.1 6.8-8.4 16.2-9.5 24.6-3.1 5.4 4.2 9.1 9.9 12.2 15.9 3.5 7 6 14.4 7.3 22.3 0.3 2.1 1.1 2.5 3.1 1.9 8.7-2.5 17.6-3.9 26.6-2.6 5.1 0.7 10.1 2.1 14.1 5.5 5.6 4.9 7.1 12.3 4.2 20 -3.5 9.5-10.3 16.6-17.7 23.1 -2.8 2.3-5.6 4.5-8.8 6.4 -1.6 1-1.9 2-1.5 3.8 2.4 10.3 2.4 20.8 0.3 31.2 -1.5 7.3-4.5 14.1-9.2 19.7 -8.5 10-20.9 11.2-31.8 3.5 -6.3-4.5-10.8-10.5-14.4-17.4 -1.5-2.8-2.6-5.6-3.7-8.6 -1.1-3.3-1.2-3.2-3.4-0.6 -6.9 7.7-14.3 14.5-24.1 18.3 -6.7 2.6-13 1.6-16.5-3.2 -2.3-3.2-3.1-6.9-3.2-10.7C61.2 519.5 63.2 511.7 66.6 503.4"/><path fill="#BC202F" d="M127.8 479.2c-2.3 5.9-8.4 8.5-14.3 6.1 -5.8-2.2-8.5-8.4-6.3-14.1 2.2-5.6 8.5-8.5 14.2-6.4C127.3 467 130.1 473.3 127.8 479.2"/><path fill="#FFFFFF" d="M103.6 562.1c-0.6 0-1.2-0.3-1.6-0.8 -0.4-0.6-0.8-1.3-1.3-1.9 -0.6 0.4-1.2 1-1.8 1.4 -0.8 0.6-2 0.4-2.6-0.4s-0.4-2 0.4-2.6c1.2-0.8 2.3-1.7 3.4-2.6 0.4-0.3 1-0.5 1.6-0.4 0.5 0.1 1.1 0.4 1.3 1 0.7 1.2 1.5 2.3 2.2 3.6 0.6 0.8 0.3 2-0.5 2.6C104.4 562 103.9 562.1 103.6 562.1"/><path fill="#FFFFFF" d="M70.5 571.4c-1.6 0-3.1-0.1-4.6-0.3h-0.3c-1.1-0.1-1.8-1.2-1.6-2.1 0.1-1.1 1.1-1.8 2.1-1.6h0.3c2.5 0.3 5.2 0.3 7.8 0.1 1.1-0.1 2 0.6 2.1 1.7 0.1 1.1-0.6 2-1.7 2.1C73.2 571.3 71.8 571.4 70.5 571.4M82.8 569.2c-0.7 0-1.5-0.5-1.8-1.3 -0.3-1 0.2-2.1 1.2-2.4 2.4-0.8 5-2 7.5-3.4 1-0.5 2.1-0.2 2.5 0.7 0.5 1 0.2 2.1-0.7 2.5 -2.8 1.5-5.5 2.8-8.2 3.6C83.2 569.2 83 569.2 82.8 569.2M57.5 568.7c-0.2 0-0.5 0-0.7-0.2 -1.9-0.8-3.8-1.9-5.6-3.1 -0.7-0.5-1.5-1.1-2.1-1.6 -0.8-0.6-1-1.8-0.3-2.6 0.6-0.8 1.8-1 2.6-0.3 0.6 0.5 1.3 1 1.9 1.4 1.6 1.1 3.3 2 5 2.8 1 0.4 1.4 1.6 1 2.5C58.9 568.3 58.3 568.7 57.5 568.7M44.2 558.1c-0.6 0-1.2-0.3-1.6-0.8 -1.7-2.4-3.2-5.2-4.2-8.1 -0.3-1 0.1-2.1 1.2-2.4 1.1-0.3 2.1 0.1 2.4 1.2 1 2.5 2.2 5 3.7 7.1 0.6 0.8 0.4 2-0.4 2.6C45 558 44.6 558.1 44.2 558.1M38.3 542.1c-1 0-1.8-0.7-1.9-1.7 -0.3-2.1-0.4-4.3-0.4-6.7 0-0.7 0-1.5 0-2.2 0-1.1 1-1.9 2-1.8 1.1 0 1.9 1 1.8 2 0 0.7 0 1.4 0 2.1 0 2.1 0.1 4.2 0.4 6.1 0.1 1.1-0.6 2-1.7 2.1C38.5 542.1 38.4 542.1 38.3 542.1M38.8 524.9c-0.1 0-0.2 0-0.3 0 -1.1-0.2-1.8-1.2-1.6-2.2 0.4-2.8 1.1-5.7 1.8-8.6 0.2-1.1 1.3-1.6 2.3-1.4 1.1 0.2 1.6 1.3 1.4 2.3 -0.7 2.9-1.3 5.6-1.7 8.3C40.5 524.3 39.7 524.9 38.8 524.9"/><path fill="#FFFFFF" d="M43 508.2c-0.2 0-0.4 0-0.6-0.1 -1-0.3-1.5-1.4-1.2-2.4 0.3-1 0.6-1.8 1-2.6 -0.7-0.5-1.6-1.1-2.4-1.6 -0.8-0.6-1.1-1.8-0.4-2.6 0.6-0.8 1.8-1.1 2.6-0.4 1.3 0.8 2.4 1.7 3.5 2.3 0.7 0.5 1.1 1.5 0.7 2.3 -0.5 1.3-1 2.6-1.5 4C44.6 507.7 43.9 508.2 43 508.2"/><path fill="#FFFFFF" d="M33.9 496.3c-0.4 0-0.8-0.1-1.2-0.4 -2.2-1.8-4.6-3.7-6.8-5.8 -0.7-0.7-0.8-1.9-0.1-2.6 0.7-0.7 1.9-0.8 2.6-0.1 2.2 2 4.5 3.9 6.7 5.7 0.8 0.6 1 1.9 0.3 2.6C35 496.1 34.4 496.3 33.9 496.3M20.7 484.5c-0.5 0-1.1-0.2-1.4-0.6 -2.1-2.2-4-4.6-5.7-7.1 -0.6-0.8-0.3-2 0.5-2.6 0.8-0.6 2-0.3 2.6 0.5 1.6 2.3 3.4 4.6 5.4 6.7 0.7 0.7 0.7 2-0.1 2.6C21.6 484.3 21.2 484.5 20.7 484.5M10.7 469.9c-0.7 0-1.4-0.4-1.7-1.1 -1.3-2.8-2.3-5.6-3.2-8.6 -0.3-1.1 0.3-2 1.3-2.3 1.1-0.3 2 0.3 2.3 1.3 0.7 2.8 1.8 5.4 3 8.1 0.4 1 0 2.1-1 2.5C11.3 469.8 11 469.9 10.7 469.9M6 452.9c-1 0-1.8-0.7-1.9-1.7 -0.2-2.1-0.3-4.2-0.3-6.4 0-1 0-1.8 0.1-2.8 0-1.1 1-1.8 2-1.8s1.9 1 1.8 2c0 0.8-0.1 1.7-0.1 2.5 0 2 0.1 4 0.3 5.9 0.1 1.1-0.6 2-1.7 2.1C6.1 452.9 6 452.9 6 452.9M6.9 435.3c-0.1 0-0.2 0-0.4 0 -1.1-0.2-1.7-1.3-1.5-2.2 0.6-3 1.5-5.9 2.6-8.8 0.4-1 1.5-1.5 2.4-1.1 1 0.4 1.5 1.5 1.1 2.4 -1.1 2.6-1.9 5.4-2.4 8.2C8.6 434.6 7.7 435.3 6.9 435.3M13.4 418.9c-0.3 0-0.6-0.1-1-0.3 -0.8-0.5-1.2-1.7-0.6-2.6 1.6-2.6 3.5-5.1 5.5-7.4 0.7-0.7 1.9-0.8 2.6-0.1 0.7 0.7 0.8 1.9 0.1 2.6 -1.9 2.1-3.6 4.3-5.1 6.8C14.6 418.5 14 418.9 13.4 418.9M25.2 405.8c-0.5 0-1.2-0.3-1.5-0.7 -0.6-0.8-0.4-2 0.4-2.6 0.3-0.2 0.6-0.4 0.8-0.6 2.2-1.5 4.6-2.9 7-4 1-0.4 2.1 0 2.5 0.8 0.4 1 0 2.1-0.8 2.5 -2.2 1.1-4.5 2.3-6.5 3.8 -0.3 0.2-0.5 0.4-0.8 0.5C26 405.7 25.5 405.8 25.2 405.8M41 398.2c-0.8 0-1.6-0.5-1.8-1.4 -0.3-1.1 0.3-2 1.4-2.3 2.9-0.7 5.9-1.4 9-1.7 1.1-0.1 2 0.6 2.1 1.7s-0.6 2-1.7 2.1c-2.9 0.3-5.7 0.8-8.4 1.6C41.4 398.2 41.2 398.2 41 398.2M67.4 397c-0.1 0-0.2 0-0.3 0l-1-0.1c-2.6-0.3-5.2-0.5-7.7-0.6 -1.1 0-1.9-0.8-1.8-1.9 0-1.1 0.8-1.8 1.9-1.8 0 0 0 0 0.1 0 2.6 0.1 5.3 0.3 8.1 0.6l1 0.1c1.1 0.1 1.8 1.2 1.6 2.1C69.2 396.4 68.3 397 67.4 397"/><path fill="#FFFFFF" d="M80.4 399.9c-0.2 0-0.3 0-0.5-0.1 -1.3-0.4-2.6-0.7-4.1-1.2 -1.1-0.2-1.7-1.3-1.4-2.3 0.2-1.1 1.3-1.6 2.3-1.4 1 0.2 1.8 0.4 2.6 0.7 0.3-0.8 0.7-1.7 1.2-2.5 0.4-1 1.6-1.4 2.5-0.8 1 0.4 1.4 1.6 0.8 2.5 -0.6 1.3-1.2 2.6-1.7 3.8C81.8 399.5 81.2 399.9 80.4 399.9"/><path fill="#FFFFFF" d="M160.7 403.9c-0.7 0-1.5-0.4-1.8-1.2 -1.1-2.8-2.3-5.4-3.6-7.8 -0.5-1-0.1-2.1 0.7-2.5 1-0.5 2.1-0.1 2.5 0.7 1.4 2.5 2.6 5.3 3.8 8.2 0.4 1-0.1 2.1-1.1 2.4C161.3 403.9 161.1 403.9 160.7 403.9M152.5 388.5c-0.6 0-1.2-0.3-1.6-0.8 -1.7-2.4-3.5-4.6-5.4-6.5 -0.7-0.7-0.7-1.9 0-2.6s2-0.7 2.6 0c2 2.1 4 4.5 5.8 7 0.6 0.8 0.4 2-0.4 2.6C153.2 388.3 152.9 388.5 152.5 388.5M86.6 388.3c-0.3 0-0.7-0.1-1.1-0.3 -0.8-0.6-1.1-1.8-0.5-2.6 1.8-2.6 3.7-5 5.7-7.1 0.7-0.7 1.9-0.7 2.6 0 0.7 0.7 0.7 1.9 0 2.6 -1.9 2-3.7 4.2-5.3 6.6C87.7 388 87.1 388.3 86.6 388.3M140.1 376.1c-0.3 0-0.7-0.1-1.1-0.3 -2.3-1.6-4.9-3-7.3-4 -1-0.4-1.5-1.5-1.1-2.4 0.4-1 1.5-1.5 2.4-1.1 2.8 1.2 5.5 2.5 8.2 4.3 0.8 0.6 1.1 1.8 0.5 2.6C141.4 375.7 140.7 376.1 140.1 376.1M98.8 375.8c-0.6 0-1.2-0.3-1.6-0.8 -0.6-0.8-0.3-2 0.5-2.6 2.5-1.8 5.3-3.2 8.2-4.2 1-0.4 2.1 0.1 2.4 1.1 0.4 1-0.1 2.1-1.1 2.4 -2.5 1-5.1 2.2-7.4 3.8C99.5 375.7 99.2 375.8 98.8 375.8M115.1 369.7c-1 0-1.8-0.7-1.9-1.7 -0.1-1.1 0.6-2 1.7-2.1 1.3-0.1 2.4-0.2 3.7-0.2h0.8l0 0c1.6 0 3.1 0.1 4.6 0.3 1.1 0.1 1.8 1.1 1.7 2.1s-1.1 1.8-2.1 1.7c-1.4-0.2-2.8-0.2-4.1-0.2h-0.8c-1.1 0-2.2 0.1-3.4 0.2C115.3 369.7 115.2 369.7 115.1 369.7"/><path fill="#FFFFFF" d="M164.9 416.5c-0.8 0-1.6-0.5-1.8-1.4 -0.3-1.4-0.7-2.8-1.2-4.1 -0.3-1.1 0.2-2.1 1.3-2.3 1.1-0.3 2.1 0.3 2.3 1.3 0.2 0.8 0.5 1.8 0.7 2.6 0.8-0.1 1.8-0.2 2.8-0.3 1.1-0.1 2 0.6 2.1 1.7s-0.6 2-1.7 2.1c-1.5 0.1-2.9 0.3-4.2 0.4C165 416.5 165 416.5 164.9 416.5"/><path fill="#FFFFFF" d="M202.3 498c-0.5 0-1.1-0.2-1.4-0.6 -0.7-0.7-0.6-2 0.1-2.6 2-1.8 4-3.7 5.8-5.6 0.7-0.7 1.9-0.7 2.6 0 0.7 0.7 0.7 1.9 0 2.6 -1.9 1.9-3.9 3.9-6 5.8C203.2 497.8 202.8 498 202.3 498M213.7 486.1c-0.4 0-0.8-0.1-1.2-0.4 -0.8-0.6-1-1.9-0.3-2.6 1.7-2.1 3.3-4.3 4.8-6.5 0.5-0.8 1.8-1.2 2.6-0.5 0.8 0.5 1.2 1.8 0.5 2.6 -1.5 2.2-3.2 4.6-5 6.8C214.8 485.9 214.3 486.1 213.7 486.1M222.6 472.3c-0.3 0-0.5-0.1-0.8-0.2 -1-0.4-1.4-1.6-1-2.5 1.2-2.4 2.1-5 2.9-7.4 0.3-1.1 1.4-1.6 2.3-1.3 1.1 0.3 1.6 1.4 1.3 2.3 -0.7 2.6-1.8 5.3-3.1 7.9C224 471.8 223.4 472.3 222.6 472.3M227.1 456.5c0 0-0.1 0-0.2 0 -1.1-0.1-1.8-1.1-1.7-2 0.1-1.1 0.1-2.2 0.1-3.3 0-1.5-0.1-3-0.3-4.5 -0.1-1.1 0.6-2 1.7-2.1 1.1-0.1 2 0.6 2.1 1.7 0.2 1.6 0.3 3.3 0.3 5 0 1.2 0 2.4-0.2 3.7C228.9 455.7 228 456.5 227.1 456.5M225.1 440.3c-0.7 0-1.5-0.5-1.8-1.3 -0.8-2.4-2-4.8-3.5-7 -0.5-0.8-0.3-2 0.5-2.6s2-0.3 2.6 0.5c1.6 2.4 2.9 5 3.8 7.7 0.3 1-0.2 2.1-1.2 2.4C225.5 440.3 225.3 440.3 225.1 440.3M216.1 426.7c-0.4 0-1-0.2-1.3-0.5 -1.9-1.7-4-3.2-6.4-4.5 -1-0.5-1.3-1.7-0.7-2.5 0.5-1 1.7-1.3 2.5-0.7 2.5 1.5 5 3.1 7.1 5 0.7 0.7 0.8 1.9 0.1 2.6C217.1 426.5 216.6 426.7 216.1 426.7M201.9 418.6c-0.2 0-0.4 0-0.6-0.1 -2.4-0.7-5-1.5-7.7-1.9 -1.1-0.2-1.7-1.2-1.6-2.2 0.2-1.1 1.2-1.7 2.2-1.6 2.9 0.5 5.7 1.2 8.3 2 1 0.3 1.5 1.4 1.2 2.4C203.3 418.1 202.6 418.6 201.9 418.6M185.6 415.7h-0.1c-2.4-0.2-5.3-0.2-8.1-0.1l0 0c-1.1 0-1.9-0.8-1.9-1.9s0.8-1.9 1.8-1.9c2.8-0.1 5.7 0 8.4 0.2 1.1 0.1 1.8 1 1.8 2C187.4 414.9 186.6 415.7 185.6 415.7"/><path fill="#FFFFFF" d="M193.1 510.3c-1 0-1.8-0.7-1.9-1.7 -0.2-1.5-0.3-3-0.5-4.2 -0.1-0.7 0.2-1.4 0.7-1.8 1.1-0.7 2.2-1.7 3.4-2.5 0.8-0.6 2-0.5 2.6 0.3 0.6 0.8 0.5 2-0.3 2.6 -0.8 0.7-1.8 1.4-2.6 2 0.1 1.1 0.3 2.1 0.4 3.3 0.1 1.1-0.6 2-1.7 2.1C193.2 510.3 193.1 510.3 193.1 510.3"/><path fill="#FFFFFF" d="M144.5 585.4c-1.5 0-3-0.1-4.5-0.2 -1.1-0.1-1.8-1.1-1.7-2 0.1-1.1 1-1.8 2-1.7 2.9 0.2 5.7 0.2 8.6 0 1.1-0.1 2 0.6 2 1.7 0.1 1.1-0.6 2-1.7 2C147.7 585.3 146.1 585.4 144.5 585.4M158 583.7c-0.8 0-1.6-0.5-1.8-1.5 -0.2-1.1 0.4-2 1.4-2.3l0.2-0.1c2.8-0.7 5.3-1.7 7.8-2.8 1-0.4 2.1 0 2.5 1 0.4 1 0 2.1-1 2.5 -2.6 1.3-5.5 2.3-8.5 3.1l-0.3 0.1C158.3 583.7 158.1 583.7 158 583.7M131.4 583.6c-0.2 0-0.3 0-0.5-0.1 -3-0.8-5.8-2-8.7-3.5 -1-0.5-1.3-1.6-0.7-2.5 0.5-1 1.6-1.3 2.5-0.8 2.5 1.4 5.2 2.4 7.9 3.2 1.1 0.3 1.6 1.4 1.3 2.3C133 583.1 132.2 583.6 131.4 583.6M174 576.1c-0.5 0-1.2-0.2-1.5-0.7 -0.6-0.8-0.5-2 0.3-2.6 2.2-1.7 4.3-3.7 6.1-5.8 0.6-0.8 1.9-0.8 2.6-0.2 0.8 0.6 0.8 1.9 0.2 2.6 -2 2.3-4.3 4.6-6.8 6.5C174.8 575.9 174.4 576.1 174 576.1M115.7 575.4c-0.4 0-0.8-0.1-1.2-0.4 -2.3-1.9-4.6-4-6.7-6.4 -0.7-0.7-0.6-2 0.1-2.6 0.7-0.7 2-0.6 2.6 0.1 2 2.2 4.1 4.1 6.3 5.9 0.8 0.6 1 1.8 0.3 2.6C116.8 575.2 116.2 575.4 115.7 575.4M185.5 562.5c-0.3 0-0.6-0.1-1-0.2 -1-0.5-1.3-1.7-0.7-2.5 1.4-2.4 2.5-5.1 3.6-7.8 0.3-1 1.5-1.5 2.4-1.2s1.5 1.5 1.2 2.4c-1.1 3-2.4 5.8-3.9 8.4C186.9 562.2 186.3 562.5 185.5 562.5M191.9 545.9c-0.1 0-0.3 0-0.4 0 -1.1-0.2-1.7-1.3-1.5-2.2 0.6-2.8 1.1-5.6 1.5-8.6 0.1-1.1 1.1-1.8 2.1-1.7 1.1 0.1 1.8 1.1 1.7 2.1 -0.3 3.1-0.8 6.1-1.5 9C193.5 545.3 192.7 545.9 191.9 545.9M193.9 528.1L193.9 528.1c-1.1 0-1.9-0.8-1.9-1.9 0-0.8 0-1.8 0-2.6 0-2 0-4.1-0.1-6.1 -0.1-1.1 0.7-1.9 1.8-2 1.2-0.1 1.9 0.7 2 1.8 0.1 2.1 0.2 4.2 0.2 6.4 0 1 0 1.8 0 2.8C195.8 527.3 195 528.1 193.9 528.1"/></svg>
