<svg xmlns="http://www.w3.org/2000/svg" version="1.1" x="0" y="0" viewBox="0 0 188.3 196.5" enable-background="new 0 0 188.3 196.5" xml:space="preserve"><path fill="#FFFFFF" d="M55.7 0H14.3"/><path fill="#FFFFFF" d="M149.8 0h-34.2"/><path fill="#FFE9CA" d="M113.4 186.2c-18.2-2.4-26.6-20-29.4-27.8 -5.2 5.8-17.8 17.9-30.8 16.2 -2.9-0.4-5.6-1.4-8.1-3.1 -16.5-11.1-4.3-40.2-0.6-48.3 -3.6-1.6-11.5-6-23.1-17.1C13.3 98.3 9.1 87.3 10 75.9c0.8-10.3 5.8-19.7 13.4-24.9 7.5-5.2 16.9-7 28-5.6 7.8 1 14.4 3.5 17.7 4.9 0.7-2.8 2.2-7.5 4.8-12.2 5.4-10 13.1-15.4 22.3-15.6 1.2 0 2.4 0 3.5 0.2 20.2 2.7 27 31.9 28.5 40.3 4.7-1 16.2-2.9 27-1.5 13.5 1.8 21.5 8.5 23 19.2 2.9 21.2-23.3 39.7-29.5 43.8 0.8 3.8 2.6 14.4 1.8 25.9 -1.4 19.1-9.5 31.1-23.4 34.7C122.2 186.4 117.7 186.8 113.4 186.2"/><path fill-rule="evenodd" clip-rule="evenodd" fill="#FCBE67" d="M52.5 127.9c0.7-1.6 1.3-3.8 2.6-5.8 1.2-1.7 0.9-2.6-1.2-3.4 -11.1-4.3-20-11.6-26-22.1 -4.2-7.4-6.1-15.4-2.6-24 2.6-6.7 7.6-10.8 14-13.1 9.8-3.5 19.5-2.6 29.1 0.8 1.2 0.4 2.3 0.9 3.5 1.3 3.2 1.3 3.1 1.3 3.9-2.4 1.3-5.8 3.5-11.3 7.3-16 5.7-7 13.6-7.9 20.5-2.5 4.5 3.5 7.7 8.2 10.2 13.3 2.9 5.9 5.1 12.1 6.1 18.6 0.3 1.7 0.9 2.1 2.6 1.6 7.3-2.2 14.7-3.3 22.2-2.2 4.3 0.6 8.4 1.7 11.8 4.6 4.7 4.1 6 10.3 3.6 16.8 -3 8-8.6 13.9-14.8 19.3 -2.3 2-4.7 3.7-7.3 5.3 -1.3 0.8-1.6 1.7-1.2 3.2 2 8.6 2 17.3 0.2 26.1 -1.2 6.1-3.7 11.7-7.7 16.5 -7.1 8.3-17.4 9.4-26.5 2.9 -5.2-3.7-9-8.8-12-14.5 -1.2-2.3-2.3-4.7-3.1-7.1 -0.9-2.7-1-2.7-2.9-0.5 -5.7 6.4-12 12.1-20.1 15.3 -5.6 2.2-10.9 1.3-13.8-2.7 -1.9-2.6-2.6-5.7-2.6-9C48 141.4 49.7 134.8 52.5 127.9"/><path fill-rule="evenodd" clip-rule="evenodd" fill="#BC202F" d="M103.6 107.6c-1.9 4.9-7 7.1-12 5.1 -4.8-1.9-7.1-7-5.2-11.8 1.8-4.7 7.1-7.1 11.8-5.3C103.2 97.5 105.5 102.8 103.6 107.6"/><path fill="#FFFFFF" d="M83.4 177c-0.5 0-1-0.2-1.3-0.7 -0.4-0.5-0.7-1.1-1-1.6 -0.5 0.4-1 0.8-1.5 1.1 -0.7 0.5-1.7 0.4-2.2-0.3 -0.5-0.7-0.4-1.7 0.3-2.2 1-0.7 1.9-1.4 2.8-2.2 0.4-0.3 0.8-0.4 1.3-0.3 0.4 0.1 0.9 0.4 1.1 0.8 0.6 1 1.2 2 1.9 3 0.5 0.7 0.3 1.7-0.4 2.2C84 176.9 83.7 177 83.4 177"/><path fill="#FFFFFF" d="M55.7 184.7c-1.3 0-2.6-0.1-3.8-0.2l-0.3 0c-0.9-0.1-1.5-0.9-1.4-1.8 0.1-0.9 0.9-1.5 1.8-1.3l0.3 0c2.1 0.3 4.3 0.3 6.5 0.1 0.9-0.1 1.7 0.5 1.8 1.4 0.1 0.9-0.5 1.7-1.4 1.8C58 184.7 56.9 184.7 55.7 184.7M66 182.9c-0.7 0-1.3-0.4-1.5-1.1 -0.3-0.8 0.2-1.7 1-2 2.1-0.7 4.2-1.7 6.3-2.8 0.8-0.4 1.7-0.1 2.2 0.6 0.4 0.8 0.1 1.7-0.6 2.2 -2.3 1.2-4.6 2.3-6.8 3C66.3 182.9 66.2 182.9 66 182.9M44.9 182.5c-0.2 0-0.4 0-0.6-0.1 -1.6-0.7-3.2-1.6-4.7-2.6 -0.6-0.4-1.2-0.9-1.8-1.3 -0.7-0.5-0.8-1.5-0.3-2.2 0.5-0.7 1.5-0.8 2.2-0.3 0.5 0.4 1 0.8 1.6 1.2 1.3 0.9 2.8 1.7 4.2 2.3 0.8 0.4 1.2 1.3 0.8 2.1C46.1 182.1 45.5 182.5 44.9 182.5M33.8 173.6c-0.5 0-1-0.2-1.3-0.7 -1.4-2-2.6-4.3-3.5-6.7 -0.3-0.8 0.1-1.7 1-2s1.7 0.1 2 1c0.8 2.2 1.8 4.2 3.1 6 0.5 0.7 0.3 1.7-0.4 2.2C34.4 173.5 34.1 173.6 33.8 173.6M28.8 160.2c-0.8 0-1.5-0.6-1.6-1.4 -0.2-1.8-0.3-3.7-0.3-5.6 0-0.6 0-1.3 0-1.9 0-0.9 0.8-1.6 1.6-1.5 0.9 0 1.6 0.8 1.5 1.7 0 0.6 0 1.2 0 1.8 0 1.8 0.1 3.5 0.3 5.2 0.1 0.9-0.5 1.7-1.4 1.8C28.9 160.2 28.9 160.2 28.8 160.2M29.3 145.9c-0.1 0-0.2 0-0.3 0 -0.9-0.1-1.5-1-1.3-1.8 0.4-2.3 0.9-4.7 1.5-7.2 0.2-0.8 1.1-1.4 1.9-1.1 0.8 0.2 1.4 1.1 1.1 1.9 -0.6 2.4-1.1 4.7-1.4 6.9C30.7 145.3 30 145.9 29.3 145.9"/><path fill="#FFFFFF" d="M32.8 131.9c-0.2 0-0.3 0-0.5-0.1 -0.8-0.3-1.3-1.2-1-2 0.3-0.8 0.5-1.5 0.8-2.3 -0.6-0.4-1.3-0.9-2-1.4 -0.7-0.5-0.9-1.5-0.4-2.2 0.5-0.7 1.5-0.9 2.2-0.4 1 0.7 2 1.4 3 2 0.6 0.4 0.9 1.2 0.6 1.9 -0.4 1.1-0.8 2.2-1.2 3.4C34.1 131.5 33.5 131.9 32.8 131.9"/><path fill="#FFFFFF" d="M25.1 122c-0.3 0-0.7-0.1-1-0.4 -1.9-1.5-3.8-3.1-5.7-4.9 -0.7-0.6-0.7-1.6-0.1-2.2 0.6-0.7 1.6-0.7 2.2-0.1 1.9 1.7 3.8 3.3 5.6 4.8 0.7 0.6 0.8 1.6 0.2 2.2C26.1 121.8 25.6 122 25.1 122M14.1 112.1c-0.4 0-0.8-0.2-1.1-0.5 -1.8-1.8-3.4-3.8-4.8-6 -0.5-0.7-0.3-1.7 0.4-2.2 0.7-0.5 1.7-0.3 2.2 0.4 1.3 2 2.8 3.8 4.5 5.5 0.6 0.6 0.6 1.6-0.1 2.2C14.9 112 14.5 112.1 14.1 112.1M5.8 99.9c-0.6 0-1.2-0.3-1.4-0.9 -1.1-2.3-2-4.7-2.6-7.2 -0.2-0.8 0.3-1.7 1.1-2 0.8-0.2 1.7 0.3 2 1.1 0.6 2.3 1.5 4.5 2.5 6.7 0.4 0.8 0 1.7-0.8 2.1C6.3 99.9 6.1 99.9 5.8 99.9M1.9 85.7c-0.8 0-1.5-0.6-1.6-1.4C0.1 82.6 0 80.8 0 79c0-0.8 0-1.5 0.1-2.3 0-0.9 0.8-1.5 1.7-1.5 0.9 0 1.6 0.8 1.5 1.7 0 0.7-0.1 1.4-0.1 2.2 0 1.7 0.1 3.3 0.3 5 0.1 0.9-0.5 1.7-1.4 1.8C2 85.7 1.9 85.7 1.9 85.7M2.6 71c-0.1 0-0.2 0-0.3 0 -0.9-0.2-1.4-1-1.2-1.9 0.5-2.5 1.3-5 2.2-7.3 0.3-0.8 1.2-1.2 2.1-0.9 0.8 0.3 1.2 1.2 0.9 2.1 -0.9 2.2-1.6 4.5-2.1 6.8C4 70.5 3.3 71 2.6 71M8 57.3c-0.3 0-0.6-0.1-0.8-0.2 -0.7-0.5-1-1.4-0.5-2.2 1.4-2.2 2.9-4.3 4.6-6.2 0.6-0.6 1.6-0.7 2.2-0.1 0.7 0.6 0.7 1.6 0.1 2.2 -1.6 1.7-3 3.6-4.2 5.7C9 57 8.5 57.3 8 57.3M17.9 46.4c-0.5 0-1-0.2-1.3-0.6 -0.5-0.7-0.4-1.7 0.3-2.2 0.2-0.2 0.5-0.4 0.7-0.5 1.9-1.3 3.8-2.4 5.9-3.4 0.8-0.4 1.7 0 2.1 0.8 0.4 0.8 0 1.7-0.7 2.1 -1.9 0.9-3.7 2-5.4 3.1 -0.2 0.2-0.4 0.3-0.7 0.5C18.5 46.3 18.2 46.4 17.9 46.4M31.2 40.1c-0.7 0-1.3-0.5-1.5-1.2 -0.2-0.8 0.3-1.7 1.1-2 2.4-0.7 4.9-1.1 7.5-1.4 0.9-0.1 1.7 0.5 1.8 1.4 0.1 0.9-0.5 1.7-1.4 1.8 -2.4 0.3-4.8 0.7-7 1.3C31.4 40 31.3 40.1 31.2 40.1M53.2 39.1c-0.1 0-0.1 0-0.2 0l-0.8-0.1c-2.2-0.3-4.3-0.5-6.4-0.5 -0.9 0-1.6-0.8-1.5-1.6 0-0.9 0.7-1.5 1.6-1.5 0 0 0 0 0 0 2.2 0.1 4.5 0.2 6.8 0.6l0.8 0.1c0.9 0.1 1.5 0.9 1.3 1.8C54.6 38.5 54 39.1 53.2 39.1"/><path fill="#FFFFFF" d="M64 41.5c-0.1 0-0.3 0-0.4-0.1 -1.1-0.3-2.2-0.6-3.4-0.9 -0.9-0.2-1.4-1.1-1.2-1.9 0.2-0.9 1.1-1.4 1.9-1.2 0.8 0.2 1.5 0.4 2.2 0.6 0.3-0.7 0.6-1.4 1-2.1 0.4-0.8 1.3-1.1 2.1-0.7 0.8 0.4 1.1 1.3 0.7 2.1 -0.5 1.1-1 2.2-1.4 3.2C65.2 41.1 64.6 41.5 64 41.5"/><path fill="#FFFFFF" d="M131.2 44.8c-0.6 0-1.2-0.4-1.5-1 -0.9-2.3-1.9-4.5-3-6.5 -0.4-0.8-0.1-1.7 0.7-2.1 0.8-0.4 1.7-0.1 2.1 0.7 1.1 2.1 2.2 4.4 3.2 6.8 0.3 0.8-0.1 1.7-0.9 2.1C131.6 44.8 131.4 44.8 131.2 44.8M124.3 31.9c-0.5 0-1-0.2-1.3-0.7 -1.4-2-3-3.8-4.5-5.4 -0.6-0.6-0.6-1.6 0-2.2 0.6-0.6 1.6-0.6 2.3 0 1.7 1.7 3.4 3.7 4.9 5.8 0.5 0.7 0.3 1.7-0.4 2.2C124.9 31.8 124.6 31.9 124.3 31.9M69.1 31.8c-0.3 0-0.6-0.1-0.9-0.3 -0.7-0.5-0.9-1.5-0.4-2.2 1.5-2.2 3.1-4.2 4.8-5.9 0.6-0.6 1.6-0.7 2.2 0 0.6 0.6 0.7 1.6 0 2.2 -1.6 1.6-3.1 3.5-4.4 5.5C70.2 31.5 69.7 31.8 69.1 31.8M113.9 21.5c-0.3 0-0.6-0.1-0.9-0.3 -2-1.4-4-2.5-6.2-3.3 -0.8-0.3-1.2-1.3-0.9-2.1 0.3-0.8 1.3-1.2 2.1-0.9 2.3 0.9 4.6 2.2 6.8 3.7 0.7 0.5 0.9 1.5 0.4 2.2C114.9 21.3 114.4 21.5 113.9 21.5M79.4 21.3c-0.5 0-1-0.2-1.3-0.7 -0.5-0.7-0.3-1.7 0.4-2.2 2.2-1.5 4.5-2.7 6.8-3.6 0.8-0.3 1.7 0.1 2 0.9 0.3 0.8-0.1 1.7-0.9 2 -2.1 0.8-4.2 1.9-6.2 3.2C80 21.2 79.7 21.3 79.4 21.3M93 16.2c-0.8 0-1.5-0.6-1.6-1.4 -0.1-0.9 0.5-1.7 1.4-1.8 1-0.1 2.1-0.2 3.1-0.2l0.7 0h0c1.3 0 2.6 0.1 3.8 0.2 0.9 0.1 1.5 0.9 1.4 1.8 -0.1 0.9-0.9 1.5-1.8 1.4C99 16 97.9 16 96.7 16L96 16c-0.9 0-1.9 0.1-2.8 0.2C93.1 16.2 93.1 16.2 93 16.2"/><path fill="#FFFFFF" d="M134.6 55.3c-0.7 0-1.3-0.5-1.5-1.2 -0.3-1.2-0.6-2.3-1-3.4 -0.2-0.8 0.2-1.7 1.1-2 0.8-0.3 1.7 0.2 2 1.1 0.2 0.7 0.4 1.5 0.6 2.2 0.7-0.1 1.5-0.2 2.3-0.2 0.9-0.1 1.7 0.6 1.7 1.4 0.1 0.9-0.6 1.6-1.4 1.7 -1.2 0.1-2.4 0.3-3.6 0.4C134.7 55.3 134.7 55.3 134.6 55.3"/><path fill="#FFFFFF" d="M165.9 123.4c-0.4 0-0.9-0.2-1.2-0.5 -0.6-0.7-0.5-1.7 0.1-2.2 1.7-1.5 3.4-3.1 4.9-4.7 0.6-0.6 1.6-0.6 2.2 0 0.6 0.6 0.6 1.6 0 2.2 -1.6 1.6-3.3 3.3-5 4.9C166.6 123.3 166.3 123.4 165.9 123.4M175.4 113.5c-0.3 0-0.7-0.1-1-0.4 -0.7-0.6-0.8-1.6-0.2-2.2 1.5-1.8 2.8-3.6 4-5.4 0.5-0.7 1.5-0.9 2.2-0.5 0.7 0.5 0.9 1.5 0.5 2.2 -1.2 1.9-2.6 3.8-4.1 5.7C176.3 113.3 175.9 113.5 175.4 113.5M182.8 101.9c-0.2 0-0.5 0-0.7-0.2 -0.8-0.4-1.1-1.3-0.8-2.1 1-2.1 1.8-4.1 2.4-6.2 0.2-0.8 1.1-1.3 2-1.1 0.8 0.2 1.3 1.1 1.1 2 -0.6 2.2-1.5 4.5-2.6 6.7C184 101.6 183.4 101.9 182.8 101.9M186.6 88.7c0 0-0.1 0-0.1 0 -0.9-0.1-1.5-0.8-1.4-1.7 0.1-0.9 0.1-1.9 0.1-2.8 0-1.2-0.1-2.5-0.2-3.8 -0.1-0.9 0.5-1.7 1.4-1.8 0.9-0.1 1.7 0.5 1.8 1.4 0.2 1.4 0.2 2.8 0.2 4.1 0 1 0 2-0.1 3.1C188.1 88.1 187.4 88.7 186.6 88.7M184.9 75.2c-0.7 0-1.3-0.4-1.5-1.1 -0.7-2.1-1.7-4-2.9-5.8 -0.5-0.7-0.3-1.7 0.4-2.2 0.7-0.5 1.7-0.3 2.2 0.4 1.3 2 2.4 4.2 3.2 6.5 0.3 0.8-0.1 1.7-1 2C185.3 75.2 185.1 75.2 184.9 75.2M177.4 63.8c-0.4 0-0.8-0.1-1.1-0.4 -1.6-1.4-3.3-2.7-5.3-3.8 -0.8-0.4-1-1.4-0.6-2.2 0.4-0.8 1.4-1 2.2-0.6 2.2 1.2 4.1 2.6 5.9 4.2 0.7 0.6 0.7 1.6 0.1 2.2C178.2 63.7 177.8 63.8 177.4 63.8M165.5 57.1c-0.2 0-0.3 0-0.5-0.1 -2-0.7-4.2-1.2-6.4-1.6 -0.9-0.2-1.4-1-1.3-1.8 0.2-0.9 1-1.4 1.8-1.3 2.4 0.4 4.8 1 6.9 1.7 0.8 0.3 1.3 1.2 1 2C166.8 56.7 166.1 57.1 165.5 57.1M152 54.7c0 0-0.1 0-0.1 0 -2.1-0.2-4.4-0.2-6.7-0.1 0 0 0 0 0 0 -0.9 0-1.6-0.7-1.6-1.6 0-0.9 0.7-1.6 1.5-1.6 2.3-0.1 4.7 0 7 0.1 0.9 0.1 1.5 0.8 1.5 1.7C153.5 54 152.8 54.7 152 54.7"/><path fill="#FFFFFF" d="M158.1 133.7c-0.8 0-1.5-0.6-1.6-1.4 -0.1-1.3-0.3-2.5-0.5-3.6 -0.1-0.6 0.2-1.2 0.6-1.5 0.9-0.7 1.9-1.4 2.9-2.2 0.7-0.5 1.7-0.4 2.2 0.3 0.5 0.7 0.4 1.7-0.3 2.2 -0.7 0.6-1.5 1.1-2.2 1.7 0.1 0.9 0.2 1.8 0.3 2.7 0.1 0.9-0.5 1.7-1.4 1.8C158.3 133.7 158.2 133.7 158.1 133.7"/><path fill="#FFFFFF" d="M117.6 196.5c-1.2 0-2.5-0.1-3.7-0.2 -0.9-0.1-1.5-0.8-1.4-1.7 0.1-0.9 0.8-1.5 1.7-1.4 2.4 0.2 4.8 0.2 7.2 0 0.9-0.1 1.6 0.6 1.7 1.4 0.1 0.9-0.6 1.7-1.4 1.7C120.3 196.4 118.9 196.5 117.6 196.5M128.8 195c-0.7 0-1.4-0.5-1.5-1.2 -0.2-0.9 0.3-1.7 1.2-1.9l0.2-0.1c2.3-0.6 4.5-1.4 6.5-2.3 0.8-0.4 1.7 0 2.1 0.8 0.4 0.8 0 1.8-0.8 2.1 -2.2 1-4.6 1.9-7.1 2.5l-0.3 0.1C129.1 195 129 195 128.8 195M106.7 194.9c-0.1 0-0.3 0-0.4-0.1 -2.5-0.7-4.9-1.7-7.2-2.9 -0.8-0.4-1.1-1.4-0.7-2.1 0.4-0.8 1.4-1.1 2.1-0.7 2.1 1.1 4.3 2 6.6 2.7 0.8 0.2 1.3 1.1 1.1 2C108 194.5 107.4 194.9 106.7 194.9M142.2 188.6c-0.5 0-1-0.2-1.3-0.6 -0.5-0.7-0.4-1.7 0.3-2.2 1.9-1.4 3.6-3.1 5.2-4.9 0.6-0.7 1.6-0.7 2.2-0.2 0.7 0.6 0.7 1.6 0.2 2.2 -1.7 2-3.6 3.8-5.6 5.4C142.9 188.5 142.6 188.6 142.2 188.6M93.5 188c-0.3 0-0.7-0.1-1-0.3 -2-1.6-3.8-3.3-5.6-5.3 -0.6-0.6-0.5-1.7 0.1-2.2 0.6-0.6 1.7-0.5 2.2 0.1 1.7 1.8 3.4 3.5 5.2 4.9 0.7 0.5 0.8 1.5 0.3 2.2C94.4 187.8 94 188 93.5 188M151.9 177.4c-0.3 0-0.5-0.1-0.8-0.2 -0.8-0.4-1-1.4-0.6-2.2 1.1-2 2.2-4.2 3-6.5 0.3-0.8 1.2-1.2 2-0.9 0.8 0.3 1.2 1.2 0.9 2 -0.9 2.5-2 4.8-3.2 7C153 177.1 152.5 177.4 151.9 177.4M157.1 163.4c-0.1 0-0.2 0-0.3 0 -0.9-0.2-1.4-1-1.2-1.9 0.5-2.3 0.9-4.7 1.2-7.2 0.1-0.9 0.9-1.5 1.8-1.4 0.9 0.1 1.5 0.9 1.4 1.8 -0.3 2.6-0.7 5.1-1.3 7.5C158.5 162.9 157.9 163.4 157.1 163.4M158.9 148.6L158.9 148.6c-0.9 0-1.6-0.7-1.6-1.6 0-0.7 0-1.5 0-2.2 0-1.7 0-3.4-0.1-5.1 -0.1-0.9 0.6-1.6 1.5-1.7 0.9-0.1 1.6 0.6 1.7 1.5 0.1 1.8 0.1 3.6 0.1 5.3 0 0.8 0 1.5 0 2.3C160.4 147.9 159.7 148.6 158.9 148.6"/></svg>