<svg xmlns="http://www.w3.org/2000/svg" xmlns:xlink="http://www.w3.org/1999/xlink" version="1.1" x="0px" y="0px" width="565.929px" height="303.875px" viewBox="0 0 565.929 303.875" enable-background="new 0 0 565.929 303.875" xml:space="preserve"><style>.style0{clip-rule:	evenodd;fill-rule:	evenodd;}</style><g display="none"></g><g><g><g><g><path d="M1.454 309.772c-0.619-6.045-1.154-12.093-1.323-18.167 c-0.018-0.628-0.064-1.257-0.115-1.883c-0.071-0.861 0.104-20.981 0.155-22.027c0.107-2.197 0.122-4.4 0.317-6.59 c0.46-5.212 0.881-10.43 1.569-15.623c0.84-6.333 1.858-12.63 3.096-18.896c3.153-15.959 7.73-31.497 13.713-46.619 c14.982-37.866 37.215-70.893 66.539-99.115c30.652-29.497 66.2-51.036 106.433-64.835c14.684-5.036 29.711-8.729 45.029-11.223 c5.577-0.908 11.182-1.63 16.813-2.174c6.049-0.584 12.1-1.06 18.171-1.279c0.733-0.027 1.469-0.034 2.195-0.117 c0.514-0.058 18.9 0.1 20 0.108c8.162 0.3 16.3 0.9 24.4 1.936c6.65 0.8 13.3 1.9 19.8 3.1 c13.891 2.7 27.5 6.4 40.8 11.202c50.957 18.4 93.4 48.9 127.1 91.22c21.691 27.2 37.6 57.5 47.9 90.8 c3.751 12.1 6.7 24.4 8.7 36.923c1.186 7.3 3.1 52.6 3.1 66.649c-0.136 0.278-0.339 0.537-0.395 0.8 c-0.099 0.513-0.144 1.039-0.152 1.6 M520.118 198.969c0.756-0.122 1.05-0.577 1.438-0.918 c0.666-0.586 1.293-0.54 1.9 0.078c0.151 0.1 0.3 0.3 0.4 0.446c1.978 2.4 2.2 1.9 4.2 0.1 c0.077-0.072 0.15-0.148 0.227-0.217c2.482-2.279 2.236-2.371 4.5 0.402c1.315 1.6 2.3 3.5 3.1 5.4 c0.969 2.5 1.6 5 1.8 7.61c0.161 2.2 0.3 4.4 0.4 6.586c0.04 0.8 0.4 1.4 1.2 1.6 c0.1 0 0.2 0.1 0.3 0.083c1.859 0.5 1.8 1 1.7 2.437c-0.031 0.731-0.185 1.451-0.275 2.2 c-0.115 0.933-0.255 1.867-0.325 2.804c-0.185 2.4 0.6 4.5 2.4 6.219c0.378 0.4 0.8 0.7 1.1 1.1 c1.075 1.1 1.6 2.4 1.6 3.98c-0.014 0.957-0.189 1.869-0.524 2.762c-0.369 0.978-0.736 1.957-1.089 2.9 c-0.35 0.978-0.131 1.9 0.5 2.634c0.339 0.4 0.7 0.7 1.1 1.092c0.169 0.2 0.7 0.2 0.9 0 c1.154-1.181 1.805-2.502 1.476-4.241c-0.799-4.215-1.495-8.45-2.289-12.665c-2.583-13.709-6.297-27.111-11.081-40.212 c-11.819-32.371-29.487-61.214-52.504-86.813c-3.991-4.441-8.159-8.714-12.487-12.833c-0.443-0.421-0.818-0.984-1.603-1.016 c-0.187 0.164-0.436 0.339-0.635 0.558c-1.066 1.186-2.414 1.608-3.963 1.466c-0.937-0.086-1.869-0.233-2.807-0.316 c-2.026-0.181-2.967 0.64-3.55 2.75c-0.163 0.589-0.134 1.247-0.104 1.872c0.037 0.7 0.1 1.5 0.3 2.2 c0.235 1.3 0 2.526-0.388 3.711c-1.16 3.282-5.863 3.864-7.873 1.831c-0.291-0.295-0.579-0.621-0.764-0.986 c-0.281-0.555-0.53-1.14-0.685-1.741c-0.262-1.016-0.404-2.056-0.301-3.114c0.077-0.805-0.269-1.411-0.857-1.921 c-3.252-2.825-6.039-6.099-8.945-9.258c-1.488-1.619-3.024-3.194-4.588-4.741c-2.219-2.196-5.055-3.293-7.925-4.309 c-0.444-0.156-1.151 0.407-1.095 0.845c0.055 0.4 0.1 0.8 0.2 1.235c0.157 1 0.3 2.1 0.5 3.1 c0.04 0.28-0.308 0.634-0.582 0.59c-1.755-0.267-3.515-0.518-5.263-0.826c-1.56-0.272-3.039-0.773-4.321-1.757 c-1.122-0.858-2.431-1.188-3.823-1.225c-0.627-0.016-1.258-0.048-1.884-0.024c-2.422 0.096-4.538-0.712-6.373-2.228 c-0.964-0.794-1.916-1.648-2.696-2.619c-3.375-4.212-4.762-9.01-4.023-14.386c0.015-0.102 0.033-0.239 0.102-0.292 c0.158-0.118 0.372-0.307 0.52-0.271c0.397 0.1 0.8 0.2 1.1 0.453c3.054 1.9 6.3 3.2 9.8 4.3 c2.597 0.8 5.2 1.5 7.9 2.213c2.284 0.7 4.5 0.7 6.779-0.145c1.796-0.681 3.672-0.802 5.569-0.754 c1.575 0 3.1 0.3 4.6 0.673c6.704 1.8 12.3 5.2 16.4 10.851c0.185 0.3 0.3 0.6 0.6 0.7 c0.312 0.3 0.7 0.6 1 0.603c1.664 0.2 3.3 0.2 5.002-0.036c0.256-0.036 0.383-0.173 0.364-0.433 c-0.007-0.093-0.003-0.219-0.06-0.272c-0.534-0.497-1.06-1.007-1.626-1.468c-10.315-8.432-21.173-16.093-32.601-22.941 c-13.594-8.146-27.813-15.004-42.64-20.601c-0.881-0.331-1.769-0.649-2.668-0.922c-0.411-0.125-0.834-0.019-1.131 0.3 c-0.665 0.805-1.277 1.666-1.998 2.418c-1.178 1.231-2.753 1.526-4.324 0.805c-0.851-0.389-1.64-0.92-2.436-1.422 c-0.973-0.615-1.902-1.302-2.886-1.895c-3.677-2.216-7.403-4.352-11.04-6.63c-2.342-1.466-4.827-2.435-7.51-3.058 c-7.039-1.633-14.119-3.045-21.25-4.187c-3.409-0.546-6.838-0.994-10.269-1.389c-3.12-0.36-6.255-0.572-9.381-0.884 c-5.841-0.582-11.704-0.79-17.566-0.9c-11.007-0.207-21.98 0.413-32.927 1.589c-7.186 0.771-14.323 1.829-21.429 3.1 c-14.447 2.655-28.575 6.482-42.354 11.55c-19.531 7.182-38.103 16.276-55.281 28.108c-3.535 2.435-7.182 4.705-10.798 7 c-2.211 1.415-4.332 2.947-6.259 4.729c-1.613 1.492-3.183 3.036-4.749 4.579c-2.836 2.79-5.657 5.596-8.477 8.4 c-0.217 0.215-0.405 0.478-0.533 0.752c-0.075 0.166-0.043 0.4 0 0.599c0.084 0.3 0.4 0.6 0.7 0.5 c0.618-0.041 1.251-0.113 1.841-0.293c0.798-0.244 1.549-0.636 2.34-0.909c1.214-0.42 2.447-0.534 3.694-0.1 c0.502 0.2 0.9 0.7 0.7 1.233c-0.465 1.392-0.886 2.783-0.907 4.277c-0.037 2.545-1.353 4.349-3.476 5.6 c-0.9 0.527-1.859 0.969-2.829 1.351c-2.435 0.96-4.857 1.97-7.35 2.749c-1.864 0.584-3.166 1.523-3.563 3.5 c-2.168 5.063-5.575 9.065-10.247 11.984c-0.623 0.388-1.248 0.767-1.875 1.15c-0.475 0.29-0.77 0.704-0.82 1.3 c-0.089 1.043-0.148 2.09-0.238 3.133c-0.143 1.658-0.281 3.322-0.675 4.998c-0.855 0.277-1.638 0.548-2.431 0.8 c-1.604 0.474-3.215 0.926-4.821 1.392c-0.234 0.07-0.464 0.552-0.382 0.777c0.106 0.3 0.2 0.6 0.3 0.9 c1.111 2 3 2.9 5.1 3.141c1.038 0.1 2.1 0.1 3.1 0.123c1.054 0 2.1 0.2 3.1 0.5 c1.277 0.5 2.1 1.4 2.4 2.701c0.269 1.1 0.4 2.3 0.4 3.428c-0.016 1.466-0.014 2.9 0 4.4 c0.025 1.2 0.3 1.5 1.4 1.58c2.205 0.1 4.4 0 6.569-0.391c3.709-0.662 7.419-1.365 11.2-1.446 c3.007-0.061 5.776-0.92 8.372-2.372c1.278-0.715 2.515-1.506 3.735-2.316c2.009-1.336 4.073-2.564 6.319-3.468 c3.14-1.267 5.436-3.491 7.114-6.383c0.999-1.726 1.845-3.531 2.24-5.503c0.394-1.974 1.475-3.434 3.158-4.483 c0.62-0.385 1.249-0.754 1.891-1.138c0.27 0.2 0.6 0.4 0.7 0.647c0.392 0.6 0.8 1.2 1.1 1.9 c0.567 1.4 1.6 1.8 3 1.767c1.149-0.047 2.302-0.03 3.448-0.113c1.834-0.134 3.427-0.902 4.857-2.021 c0.411-0.32 0.789-0.687 1.16-1.058c1.02-1.022 2.278-1.432 3.687-1.509c1.581-0.088 3.1 0.1 4.7 0.4 c3.998 0.8 8 1.6 12 2.471c2.391 0.6 4.6 0.2 6.684-0.914c1.028-0.517 2.055-1.037 3.071-1.581 c3.139-1.677 6.272-3.369 9.408-5.05c0.647-0.345 1.303-0.67 1.957-1.001c0.422-0.215 0.837-0.108 1.2 0.2 c0.838 0.6 1.5 1.4 2.1 2.348c0.572 1 0.7 2 0.2 3c-0.479 0.922-1.011 1.848-1.681 2.6 c-1.897 2.234-3.871 4.404-5.831 6.585c-0.347 0.387-0.752 0.729-1.159 1.055c-1.398 1.122-2.952 1.551-4.7 1 c-0.794-0.261-1.581-0.549-2.365-0.838c-0.687-0.254-1.358-0.55-2.052-0.789c-3.649-1.26-7.013-0.693-10.078 1.6 c-0.666 0.504-1.275 1.086-1.891 1.652c-1.391 1.273-2.77 2.558-4.156 3.835c-0.38 0.35-0.754 0.717-1.412 0.8 c-0.339-0.291-0.752-0.611-1.122-0.973c-1.502-1.462-2.983-2.941-4.484-4.401c-0.217-0.211-0.489-0.396-0.769-0.504 c-0.117-0.047-0.471 0.131-0.469 0.207c0.006 1 0 2.1 0.1 3.122c0.285 3.1 0.4 6.272-0.66 9.3 c-0.309 0.905-0.408 1.857-0.225 2.791c0.119 0.6 0.4 1.2 0.7 1.725c0.132 0.2 0.5 0.4 0.8 0.5 c1.592 0.3 2.757-0.4 3.301-1.748c0.234-0.578 0.346-1.205 0.518-1.808c0.198-0.704 0.368-1.419 0.613-2.105 c0.184-0.514 0.586-0.877 1.125-1.003c0.608-0.146 1.232-0.234 1.851-0.335c0.721-0.119 1.449-0.203 2.169-0.341 c1.95-0.373 3.478-1.406 4.581-3.049c0.525-0.781 1.003-1.593 1.49-2.399c0.542-0.896 1.062-1.804 1.61-2.697 c0.23-0.371 0.589-0.641 1.034-0.593c2.08 0.2 4.2 0.5 6.2 0.725c0.804 0.1 1.1 0.5 1.1 1.2 c0.024 2.723-0.003 5.4 0 8.169c0.02 1.159-0.43 2.033-1.37 2.64c-0.965 0.624-1.944 1.24-2.97 1.7 c-1.029 0.508-2.128 0.876-3.194 1.314c-1.161 0.476-2.341 0.914-3.472 1.454c-1.331 0.634-2.545 1.458-3.549 2.6 c-0.212 0.231-0.405 0.48-0.603 0.724c-0.367 0.449-0.277 1.1 0.2 1.319c1.133 0.5 2.3 1.1 3.4 1.6 c2.804 1.2 2.7 1.6 5.049-0.997c0.493-0.544 0.934-1.131 1.418-1.683c0.691-0.786 1.402-1.555 2.093-2.339 c1.252-1.42 2.798-1.742 4.566-1.24c0.4 0.1 0.8 0.3 1.2 0.416c0.489 0.2 1 0.4 1.5 0.6 c0.875 0.3 1.2 0.2 1.863-0.604c0.314-0.416 0.615-0.845 0.916-1.274c2.54-3.59 5.052-7.202 7.625-10.77 c2.328-3.228 4.712-6.413 7.091-9.603c2.29-3.072 5.254-5.38 8.474-7.39c1.097-0.686 2.295-0.963 3.588-0.963 c1.186 0 2.3 0.3 3.3 0.873c1.585 1 3.3 1.2 5.1 1.071c0.626-0.051 1.251-0.117 1.878-0.159 c1.052-0.071 2.1 0 3.1 0.319c0.209 0.1 0.5 0.5 0.5 0.724c-0.067 0.411-0.092 0.843-0.243 1.2 c-0.512 1.287-1.329 2.378-2.371 3.28c-0.949 0.822-1.946 1.588-2.933 2.364c-4.085 3.208-7.493 6.998-9.977 11.6 c-0.298 0.551-0.594 1.108-0.829 1.69c-0.153 0.381-0.224 0.805-0.278 1.217c-0.169 1.3 0.7 2.3 2 2.3 c0.518-0.017 1.055-0.059 1.544-0.217c3.287-1.054 6.569-2.132 9.844-3.231c0.373-0.126 0.69-0.423 1.083-0.672 c-0.205-0.888-0.371-1.701-0.583-2.502c-0.372-1.418-0.776-2.825-1.156-4.24c-0.217-0.796 0.025-1.405 0.71-1.896 c4.34-3.115 8.668-6.245 13-9.366c0.168-0.124 0.346-0.288 0.536-0.314c0.287-0.041 0.674-0.086 0.9 0.1 c0.492 0.4 0.9 0.9 1.3 1.311c0.874 0.9 1.7 1.8 2.6 2.703c0.26 0.3 0.9 0.1 1.078-0.227 c0.243-0.455 0.526-0.917 0.633-1.408c0.222-1.02 0.308-2.07 0.51-3.093c0.786-3.954 3.043-6.844 6.548-8.743 c1.188-0.642 2.502-1.05 3.757-1.568c0.87-0.36 1.776-0.651 2.598-1.097c1.678-0.911 2.614-2.372 2.828-4.27 c0.058-0.518 0.007-1.047 0.041-1.57c0.034-0.566 0.322-0.95 0.87-1.171c1.456-0.585 2.904-1.19 4.346-1.807 c0.418-0.177 0.621-0.533 0.604-0.997c-0.04-1.044-0.106-2.088-0.111-3.133c-0.006-0.992 0.44-1.825 1.102-2.533 c2.668-2.858 7.375-2.903 9.838-1.245c1.143 0.8 2.1 1.7 2.8 2.888c0.82 1.3 0.9 2.7 0.3 4.2 c-0.368 0.821-0.91 1.384-1.834 1.53c-1.138 0.179-2.278 0.354-3.407 0.573c-1.603 0.309-2.621 1.288-2.968 2.9 c-0.312 1.43-0.511 2.885-0.78 4.327c-0.405 2.158-0.817 4.317-1.247 6.471c-0.102 0.51-0.261 1.013-0.444 1.5 c-0.76 2.021-2.182 3.299-4.322 3.687c-1.13 0.204-2.28 0.297-3.42 0.453c-1.347 0.183-2.698 0.348-4.037 0.6 c-0.904 0.156-1.142 0.61-0.941 1.595c0.128 0.6 0.4 1.2 0.4 1.837c0.128 1.2 0.2 2.5 0.2 3.8 c0.014 1.101-0.498 2.025-1.311 2.753c-0.466 0.418-0.95 0.839-1.491 1.142c-3.564 2.004-7.288 3.683-11.105 5.1 c-1.595 0.602-3.293 0.566-4.879-0.275c-0.385-0.203-0.716-0.463-0.818-0.894c-0.238-1.017-0.448-2.043-0.655-3.067 c-0.207-1.018-0.29-2.071-0.879-3.002c-0.329 0.047-0.664 0.028-0.939 0.148c-1.437 0.632-2.863 1.289-4.283 2 c-0.617 0.292-0.966 0.765-0.884 1.498c0.408 3.6 1 7.3 2.3 10.702c0.537 1.4 1.1 2.7 1.6 4.1 c0.212 0.575-0.134 1.02-0.752 1.009c-1.677-0.027-3.351-0.083-5.026-0.087c-2.626-0.008-5.232 0.198-7.796 0.8 c-2.771 0.647-5.446 1.525-7.761 3.249c-0.328 0.242-0.605 0.573-0.839 0.91c-0.079 0.117-0.027 0.5 0.1 0.6 c1.282 0.9 2.7 1.6 4.2 2.085c1.013 0.3 2.1 0.3 3.087-0.066c0.291-0.109 0.564-0.271 0.857-0.382 c0.43-0.162 0.835-0.033 1.2 0.23c0.411 0.3 0.8 0.7 1.2 1.048c1.308 1.2 2.6 2.4 3.9 3.6 c1.775 1.6 1.8 1.8 4.1 0.802c2.105-0.932 4.245-1.786 6.361-2.693c0.572-0.245 1.12-0.552 1.631-0.805 c0.072-0.531-0.059-0.905-0.396-1.203c-0.706-0.622-1.438-1.219-2.113-1.874c-1.003-0.978-1.25-2.141-0.679-3.444 c0.082-0.188 0.218-0.352 0.328-0.527c0.2-0.054 0.398-0.139 0.602-0.152c0.312-0.02 0.629-0.011 0.9 0 c1.874 0.2 3.7 0.4 5.6 0.582c1.049 0.1 1.3 0.5 0.9 1.415c-0.305 0.666-0.643 1.317-0.941 2 c-0.251 0.565-0.464 1.142-0.665 1.643c0.413 0.7 1.1 0.8 1.6 1.129c0.721 0.4 1.5 0.8 2.1 1.4 c1.009 0.9 1.5 2 1.4 3.329c-0.054 0.625-0.151 1.252-0.157 1.877c-0.009 1 0.3 1.9 0.9 2.6 c0.482 0.6 1 1.1 1.5 1.633c0.29 0.3 0.3 0.8 0.2 1.182c-1.084 2.846-3.044 4.703-6.056 5.4 c-0.773 0.176-1.444 0.06-2.063-0.43c-0.821-0.649-1.643-1.3-2.472-1.94c-0.835-0.643-1.743-1.155-2.752-1.483 c-1.477-0.478-2.89-0.38-4.197 0.499c-0.081 0.052-0.075 0.4 0 0.514c0.203 0.2 0.5 0.4 0.7 0.5 c0.949 0.4 2 0.8 2.9 1.265c1.167 0.6 1.7 2 1.4 3.24c-0.621 2.729-2.766 4.423-5.481 4.1 c-3.435-0.403-6.812-1.122-10.096-2.246c-0.925-0.316-1.678-0.855-2.299-1.58c-0.473-0.559-0.872-1.178-1.341-1.739 c-0.47-0.561-0.936-1.137-1.489-1.607c-1.379-1.174-3.517-1.271-4.966-0.219c-2.043 1.479-3.318 3.487-3.715 6 c-0.683 4.3 1.6 9.1 5.3 11.312c1.215 0.7 3 0.9 4.238-0.662c0.592-0.725 1.066-1.545 1.608-2.313 c0.421-0.597 0.803-1.237 1.308-1.756c0.78-0.805 1.751-1.063 2.876-0.762c1.993 0.5 3.2 1.9 3.9 3.7 c-0.689 1.599-1.365 3.124-2.402 4.523c-0.928 0.13-1.859 0.234-2.784 0.392c-1.147 0.196-2.223 0.556-3.114 1.4 c-0.538 0.495-1.122 0.946-1.722 1.367c-1.198 0.841-2.383 1.715-3.64 2.46c-2.734 1.618-5.653 2.724-8.869 2.9 c-0.418 0.023-0.839 0.06-1.25 0.133c-1.062 0.186-1.977 0.67-2.684 1.49c-0.107 0.123-0.156 0.448-0.073 0.6 c0.873 1.2 1.8 2.3 2.7 3.464c0.26 0.3 0.7 0.4 1.2 0.217c1.178-0.461 2.252-1.109 3.285-1.827 c0.859-0.599 1.693-1.237 2.565-1.816c0.695-0.461 1.411-0.906 2.156-1.282c1.77-0.895 3.604-0.997 5.479-0.335 c0.355 0.1 0.7 0.7 0.6 1.003c-0.198 0.595-0.4 1.189-0.617 1.777c-0.943 2.555-2.591 4.521-4.94 5.9 c-0.633 0.371-1.26 0.751-1.878 1.146c-0.53 0.337-1.069 0.668-1.556 1.06c-1.9 1.528-2.951 3.498-2.988 6 c-0.007 0.523-0.01 1.1 0.1 1.567c0.223 1.7 0.4 3.3 0.4 5.01c0.002 1.2 0.2 2.3 0.6 3.4 c0.088 0.2 0.6 0.4 0.8 0.206c0.309-0.274 0.689-0.512 0.894-0.851c0.591-0.984 1.112-2.011 1.66-3.02 c0.5-0.917 0.927-1.884 1.518-2.739c0.68-0.988 1.688-1.571 2.915-1.626c1.438-0.065 2.412-0.071 2.7 1.8 c0.057 0.3 0.2 0.6 0.3 0.889c0.202 0.5 0.5 0.9 1.1 0.967c2.579 0.4 5.2 0.9 7.7 1.3 c2.476 0.5 4.9 0.8 7.5 0.798c1.027-0.011 2.1 0.3 3.1 0.525c1.622 0.4 2.6 1.8 2.7 3.5 c0.021 0.828-0.109 1.665-0.237 2.488c-0.164 1.033-0.465 2.049-0.583 3.084c-0.161 1.4 0.8 2.9 2.1 3.5 c0.266 0.1 0.6 0.2 0.9 0.102c2.52-0.7 5.033-1.366 7.042-3.251c2.128-1.999 4.726-2.548 7.588-2.063 c1.353 0.2 2.6 0.7 3.9 1.117c2.065 0.8 4.1 1.5 6.2 2.279c2.885 1 5.3 0.4 7.342-1.921 c0.068-0.078 0.134-0.161 0.209-0.237c1.718-1.685 3.431-3.377 5.163-5.049c0.374-0.361 0.803-0.674 1.232-0.972 c1.703-1.182 3.506-1.278 5.346-0.372c0.748 0.4 1.5 0.8 2.2 1.285c1.047 0.7 2.1 1.4 3.1 2.1 c0.518 0.3 1.1 0.6 1.7 1.011c0.431-0.516 0.822-0.988 1.22-1.456c1.02-1.203 2.345-1.728 3.892-1.692 c0.73 0 1.5 0.1 2.2 0.202c3.532 0.5 7.1 0.6 10.7 0.606c1.57-0.013 3.141-0.015 4.712-0.01 c0.522 0 1 0 1.6 0.068c0.449 0.1 0.7 0.4 0.9 0.779c0.359 0.9 0.4 1.8 0.4 2.8 c0.023 0.89-0.289 1.658-0.958 2.229c-0.714 0.615-1.458 1.194-2.234 1.724c-0.685 0.464-0.941 1.096-0.941 1.9 c-0.002 3.4 0 6.7 0 10.057c0 0.2 0.1 0.4 0.1 0.613c0.026 0.3 0.1 0.4 0.4 0.4 c0.186-0.015 0.414-0.041 0.545-0.153c1.04-0.889 1.976-1.872 2.658-3.072c0.39-0.685 0.427-1.416 0.075-2.105 c-0.334-0.651-0.791-1.234-1.159-1.866c-0.147-0.252-0.203-0.566-0.298-0.844c1.541-1.622 3.374-2.475 5.535-2.742 c2.608-0.32 5.219-0.411 7.839-0.392c2.1 0 4.2 0.2 6.2 0.7c7.374 1.6 13.3 5.5 17.8 11.5 c0.565 0.7 0.6 1.5 0.3 2.341c-0.545 1.542-1.438 2.788-2.763 3.715c-0.681 0.481-1.419 0.888-2.152 1.3 c-0.637 0.346-1.302 0.643-1.997 0.982c0.113 0.4 0.1 0.7 0.3 0.937c0.41 0.6 0.9 1.2 1.3 1.8 c1.365 1.9 2.9 3.5 5 4.648c1.624 0.9 2.8 2.2 3.3 3.993c0.297 1 1.2 1.4 2.1 1.7 c0.664 0.1 1.269-0.004 1.716-0.509c0.341-0.384 0.697-0.816 0.852-1.294c0.389-1.189 0.699-2.409 0.978-3.628 c0.384-1.686 0.185-3.331-0.495-4.919c-0.165-0.384-0.334-0.772-0.461-1.168c-0.667-2.103-1.12-4.245-1.171-6.458 c-0.006-0.252 0.38-0.564 0.648-0.52c0.72 0.1 1.4 0.2 2.2 0.411c1.423 0.3 2.8 0.7 4.3 1.1 c1.478 0.3 1.5 0.3 2.316-0.884c0.228-0.35 0.425-0.719 0.658-1.065c0.314-0.471 0.756-0.628 1.369-0.471 c4.057 1 8.1 2.1 12.2 3.109c0.869 0.2 1.5 0.7 1.8 1.561c0.19 0.5 0.4 1 0.5 1.5 c0.328 1.4 0 2.68-0.954 3.785c-0.471 0.521-1.232 0.814-1.347 1.575c1.115 1.8 2.2 3.6 3.3 5.4 c0.559 0.9 1.2 1.7 1.8 2.534c1.137 1.3 2.6 2.1 4.3 2.337c0.493 0.1 1.034-0.25 1.19-0.78 c0.176-0.602 0.288-1.223 0.482-1.819c0.357-1.094 0.718-2.186 1.15-3.251c0.192-0.473 0.51-0.926 0.865-1.291 c0.536-0.553 1.211-0.795 2.004-0.587c0.928 0.2 1.8 0.7 2.5 1.26c0.343 0.3 0.5 0.6 0.5 1.1 c-0.064 1.147-0.225 2.303-0.176 3.447c0.142 3.2 1.1 6.2 3.5 8.477c0.221 0.2 0.5 0.4 0.8 0.5 c0.136 0.1 0.362-0.011 0.529-0.072c0.067-0.023 0.139-0.191 0.12-0.274c-0.461-1.93-0.936-3.857-1.402-5.784 c-0.172-0.712-0.382-1.419-0.477-2.139c-0.239-1.836 0.476-3.267 1.967-4.332c0.919-0.655 1.931-0.842 2.98-0.454 c1.487 0.5 2.9 1.3 3.8 2.638c0.293 0.4 0.6 0.9 1 1.132c0.21 0 0.4 0.1 0.6 0 c1.905-0.564 3.831-1.081 5.698-1.754c1.171-0.42 2.322-0.986 3.367-1.664c3.784-2.457 7.181-5.415 10.577-8.373 c0.113-0.095 0.079-0.38 0.071-0.573c-0.002-0.051-0.168-0.146-0.255-0.138c-1.353 0.091-2.704 0.21-4.059 0.3 c-0.41 0.023-0.834-0.026-1.236-0.114c-0.165-0.038-0.379-0.248-0.41-0.409c-0.098-0.509-0.157-1.031-0.165-1.548 c-0.024-1.885-0.009-3.766-0.035-5.653c-0.013-0.922-0.394-1.374-1.222-1.565c-1.251-0.293-2.422-0.362-3.619 0.4 c-1.72 1.077-3.679 1.478-5.706 1.486c-1.572 0.004-3.145 0.027-4.713-0.059c-1.93-0.106-3.738 0.263-5.483 1.1 c-1.326 0.621-2.687 1.168-4.029 1.758c-3.639 1.603-7.286 3.187-10.907 4.835c-0.879 0.396-1.541 0.361-2.281-0.282 c-3.992-3.484-7.275-7.519-9.689-12.247c-0.523-1.024-1.012-2.067-1.557-3.083c-0.654-1.211-1.549-2.216-2.676-3.032 c-3.654-2.65-7.565-4.879-11.443-7.167c-0.382-0.225-0.812-0.138-1.166 0.147c-0.731 0.594-1.447 1.211-2.187 1.8 c-3.09 2.424-6.661 3.425-10.53 3.531c-0.94 0.023-1.595-0.433-1.991-1.26c-0.226-0.471-0.422-0.959-0.592-1.453 c-0.37-1.066-0.157-1.595 0.833-1.998c1.647-0.67 3.312-1.302 4.959-1.97c0.959-0.386 1.1-0.732 0.706-1.678 c-0.483-1.157-0.998-2.305-1.482-3.464c-1.34-3.203-1.482-2.731 1.522-4.528c0.27-0.162 0.54-0.329 0.832-0.44 c0.892-0.337 1.81-0.554 2.766-0.329c0.814 0.2 1.6 0.4 2.4 0.624c0.706 0.2 1.4 0.4 2.1 0.6 c0.262 0.1 0.678-0.203 0.713-0.446c0.177-1.262-0.021-2.501-0.217-3.741c-0.093-0.582-0.678-1.128-1.287-1.218 c-0.413-0.059-0.83-0.096-1.247-0.12c-4.096-0.253-8.085-1.029-11.992-2.294c-3.594-1.165-7.055-2.646-10.47-4.244 c-1.231-0.575-2.458-1.163-3.688-1.748c-1.478-0.7-3.011-0.832-4.594-0.443c-0.305 0.078-0.609 0.16-0.911 0.2 c-3.073 0.822-6.019 0.415-8.858-0.931c-0.661-0.315-1.266-0.746-1.928-1.054c-0.754-0.354-1.526-0.695-2.324-0.925 c-0.799-0.229-1.634-0.341-2.461-0.455c-0.516-0.071-1.048-0.088-1.568-0.052c-1.04 0.069-1.778-0.279-2.33-1.216 c-1.585-2.699-4.119-4.098-7.038-4.878c-1.211-0.324-2.458-0.517-3.692-0.748c-1.337-0.253-2.687-0.436-4.015-0.727 c-1.843-0.402-3.642-0.952-5.339-1.807c-3.08-1.542-5.083-3.967-5.972-7.296c-0.161-0.602-0.272-1.226-0.339-1.848 c-0.126-1.157-0.381-2.267-0.879-3.322c-0.132-0.285-0.287-0.584-0.305-0.883c-0.018-0.291 0.064-0.628 0.214-0.879 c0.156-0.255 0.426-0.457 0.678-0.636c1.133-0.809 2.006-1.751 2.418-3.167c0.46-1.584 1.685-2.614 3.124-3.365 c1.297-0.678 2.625-1.304 3.904-2.016c1.196-0.664 2.393-0.685 3.622-0.194c0.679 0.3 1.3 0.6 2 0.9 c1.482 0.7 3 1 4.5 0.102c0.086-0.055 0.199-0.066 0.301-0.085c0.55-0.107 1.099-0.017 1.4 0.4 c0.829 1.1 1.6 2.2 2.4 3.31c0.48 0.7 0.8 1.5 1.7 1.983c1.95 0 4.043-0.004 6.1 0 c1.609 0 3.109-0.377 4.489-1.214c0.269-0.162 0.526-0.344 0.803-0.493c0.954-0.514 1.862-0.309 2.5 0.6 c0.23 0.3 0.4 0.7 0.5 1.12c0.152 0.4 0.1 0.874-0.25 1.155c-0.715 0.613-1.478 1.169-2.23 1.7 c-1.506 1.133-3.027 2.247-4.522 3.393c-0.356 0.271-0.446 0.712-0.316 1.136c0.215 0.7 0.5 1.4 0.7 2.1 c0.393 1 1.1 1.8 2 2.351c2.411 1.5 5 2.7 7.7 3.611c1.875 0.6 3.5 0.1 4.836-1.345 c0.214-0.23 0.389-0.494 0.581-0.742c1.317-1.701 3.035-2.872 4.989-3.708c0.863-0.369 1.761-0.664 2.652-0.971 c1.186-0.412 2.375-0.817 3.572-1.197c0.979-0.309 1.646-0.807 1.679-1.965c0.046-1.681 0.941-2.96 2.141-4.049 c0.543-0.493 1.104-0.965 1.677-1.421c0.99-0.783 1.909-1.63 2.696-2.625c0.175-0.222 0.497-0.326 0.779-0.503 c0.782 0.4 1.5 0.8 2.3 1.112c0.347 0.2 0.891-0.013 1.124-0.318c1.198-1.567 1.684-3.345 1.594-5.296 c-0.085-1.823-0.666-3.481-1.669-4.999c-0.261-0.401-0.793-0.468-1.019-0.098c-0.65 1.075-1.288 2.157-1.932 3.2 c-1.453 2.429-3.017 4.784-4.893 6.914c-2.981 3.38-6.558 5.828-10.96 6.98c-0.303 0.078-0.598 0.194-0.904 0.3 c-1.163 0.265-2.147 0.807-2.858 1.795c-0.183 0.255-0.39 0.493-0.598 0.729c-0.861 0.967-1.956 1.176-3.153 0.9 c-1.018-0.262-1.966-0.7-2.712-1.485c0.273-1.009 1.174-1.459 1.835-2.105c2.042-2.001 4.368-3.577 7.063-4.58 c0.392-0.147 0.769-0.331 1.147-0.514c0.532-0.257 0.749-0.71 0.663-1.276c-0.287-1.888-0.976-3.638-1.858-5.31 c-0.781-1.481-1.612-2.937-2.425-4.402c-0.764-1.375-1.467-2.779-1.94-4.283c-0.441-1.403-0.766-2.828-0.678-4.315 c0.014-0.223 0.443-0.63 0.648-0.581c0.605 0.1 1.2 0.3 1.8 0.447c0.638 0.2 1.2 0.2 1.791-0.222 c2.226-1.567 4.454-3.131 6.683-4.695c0.563-0.396 0.822-0.963 0.79-1.618c-0.033-0.728-0.115-1.462-0.274-2.173 c-0.229-1.02-0.555-2.018-0.821-3.03c-0.324-1.225-0.439-2.471-0.339-3.735c0.102-1.263 0.745-2.143 1.869-2.701 c1.167-0.574 2.403-0.706 3.667-0.52c0.246 0 0.6 0.3 0.6 0.567c0.124 0.5 0.1 1 0.1 1.6 c0.061 1.5 0.1 2.9 0.2 4.393c0.009 0.2 0.2 0.4 0.3 0.45c0.155 0.1 0.5 0 0.557-0.068 c1.254-1.422 2.26-3.001 2.945-4.782c0.553-1.432 0.607-2.867 0.047-4.29c-0.382-0.969-0.837-1.913-1.31-2.846 c-0.427-0.839-0.932-1.639-1.385-2.463c-0.564-1.026-0.871-2.14-0.997-3.289c-0.152-1.388 0.081-2.736 0.872-3.906 c1.162-1.72 2.778-1.956 4.233-0.578c0.303 0.3 0.6 0.6 0.9 0.922c2.157 2.5 3.9 5.2 5 8.3 c0.678 2 1.6 3.9 2.6 5.719c2.915 5.3 7.2 8.9 12.9 10.811c0.994 0.3 2 0.6 3 1.1 c4.108 1.8 7.1 4.7 8.9 8.841c0.287 0.7 0.6 1.3 0.9 2.014c0.564 1.3 1.4 2.2 2.8 2.9 c2.685 1.3 5 3.1 7 5.255c1.088 1.1 2.1 2.3 3.2 3.455c0.709 0.8 1.4 1.5 2.1 2.3 c1.363 1.7 3.3 2.2 5.3 2.501c0.16 0 0.447-0.117 0.522-0.26c0.239-0.459 0.463-0.941 0.59-1.439 c0.255-1.012 0.374-2.065 0.678-3.06c0.784-2.574 2.322-3.564 4.955-3.257c0.516 0.1 1 0.2 1.5 0.3 c0.701 0.2 1.4 0.5 2.1 0.706c3.295 1.1 6.3 2.8 9.4 4.285c2.84 1.4 5.5 3 7.5 5.5 c0.511 0.6 1.2 1.2 1.9 1.681c1.959 1.5 4.2 2.4 6.7 2.526c1.561 0.1 3.134-0.019 4.699-0.068 c0.16-0.004 0.384-0.181 0.45-0.335c0.064-0.151 0.037-0.438-0.07-0.551c-0.729-0.749-1.482-1.475-2.237-2.198 c-0.306-0.293-0.559-0.6-0.581-1.14c0.429-0.213 0.881-0.474 1.361-0.666c1.068-0.429 2.152-0.82 3.227-1.231 c0.39-0.148 0.785-0.286 1.163-0.465c0.507-0.238 0.817-0.632 0.83-1.216c0.036-1.671 0.069-3.341 0.102-4.932 c0.778-0.91 1.779-1.289 2.653-1.852c0.61-0.389 1.216-0.794 1.789-1.234c0.198-0.152 0.135-0.403-0.066-0.519 c-0.269-0.154-0.535-0.337-0.827-0.423c-1.121-0.327-2.273-0.35-3.426-0.209c-2.389 0.291-4.78 0.587-7.167 0.9 c-3.319 0.441-6.637 0.917-9.958 1.338c-0.718 0.091-1.462 0.059-2.189 0.002c-3.861-0.307-7.718-0.668-11.583-0.946 c-1.274-0.092-2.477-0.28-3.596-0.952c-0.899-0.539-1.866-0.9-2.95-0.977c-2.374-0.171-4.453-1.138-6.294-2.598 c-1.228-0.975-2.328-2.115-3.571-3.069c-1.395-1.069-1.609-2.341-0.984-3.873c0.119-0.29 0.249-0.573 0.393-0.903 c1.443-0.369 2.898-0.26 4.3 0.015c1.131 0.2 2.2 0.5 3.4 0.767c4.517 0.9 9.1 1.7 13.7 1.5 c5.342-0.158 10.348-1.473 14.935-4.237c4.051-2.44 7.786-5.307 11.138-8.653c0.592-0.592 1.174-1.196 1.717-1.834 c0.58-0.681 0.475-1.201-0.386-1.372c-1.846-0.367-3.709-0.651-5.568-0.959c-0.307-0.051-0.623-0.074-0.936-0.076 c-0.436 0-0.836 0.141-1.073 0.527c-0.384 0.623-0.715 1.276-1.096 1.899c-0.764 1.249-1.472 2.54-2.33 3.7 c-1.902 2.623-4.524 3.972-7.762 4.115c-2.306 0.102-4.611 0.047-6.905-0.211c-6.66-0.75-13.261-1.887-19.85-3.095 c-2.421-0.444-4.619-1.403-6.452-3.047c-1.479-1.327-2.859-2.76-4.262-4.169c-0.952-0.958-1.226-2.155-1.087-3.47 c0.086-0.832 0.168-1.665 0.235-2.499c0.035-0.437-0.397-0.795-0.822-0.674c-1.106 0.314-2.201 0.678-3.311 1 c-4.384 1.152-8.164-0.38-10.48-4.223c-0.216-0.357-0.441-0.715-0.623-1.089c-1.367-2.827-2.723-5.659-4.084-8.489 c-0.29-0.602-0.303-1.217-0.02-1.818c0.404-0.851 0.806-1.702 1.264-2.523c1.767-3.16 4.301-5.358 7.864-6.293 c1.21-0.317 2.392-0.738 3.519-1.09c0.195-0.548 0.029-0.907-0.25-1.24c-2.88-3.461-5.76-6.924-8.644-10.381 c-0.403-0.482-0.836-0.939-1.268-1.394c-4.681-4.905-10.276-8.226-16.93-9.646c-2.042-0.436-4.122-0.719-6.196-0.971 c-1.156-0.143-2.275-0.361-3.347-0.796c-0.595-0.243-1.095-0.637-1.317-1.269c-0.833-2.347-2.63-3.707-4.776-4.725 c-1.325-0.628-2.646-1.265-3.952-1.928c-0.651-0.331-1.301-0.682-1.893-1.106c-1.15-0.82-1.916-1.915-2.165-3.337 c-0.15-0.856-0.135-1.171 0.694-1.502c0.581-0.233 1.19-0.395 1.791-0.573c2.11-0.626 4.197-1.308 6.093-2.467 c0.177-0.11 0.372-0.192 0.563-0.277c0.819-0.36 1.635-0.329 2.4 0.078c0.464 0.2 0.9 0.5 1.3 0.8 c0.523 0.3 1 0.8 1.5 1.081c0.538 0.3 1.1 0.5 1.8 0.509c0.346-0.002 0.907-0.383 0.936-0.688 c0.041-0.416 0.086-0.832 0.095-1.25c0.022-0.942 0.012-1.885 0.035-2.827c0.018-0.771 0.427-1.188 1.128-1.197 c4.311-0.054 8.3 1.1 11.9 3.483c1.038 0.7 2 1.5 3 2.274c0.97 0.8 1.9 1.6 2.8 2.5 c1.771 1.6 3.5 3.3 5.4 4.765c0.503 0.4 1 0.8 1.4 1.27c1.044 1.1 1.7 2.4 1.8 3.9 c0.037 0.4 0.1 0.8 0.1 1.251c0.438 3.1 1.5 5.9 3.3 8.389c1.344 1.9 2.9 3.5 4.7 5 c0.509 0.4 1.1 0.7 1.7 0.572c0.728-0.097 1.451-0.207 2.178-0.294c0.694-0.08 1.2 0.2 1.6 0.8 c0.516 0.7 0.9 1.5 0.8 2.334c-0.074 0.828-0.259 1.647-0.382 2.471c-0.108 0.722-0.244 1.445-0.27 2.2 c-0.01 0.3 0.2 0.6 0.4 0.777c0.623 0.4 1.3 0.7 2 0.931c0.484 0.2 1 0.2 1.5 0.3 c1.716 0.5 3 1.5 3.7 3.102c0.127 0.3 0.3 0.6 0.4 0.866c0.39 1.9 1.6 3.1 3.1 4.2 c1.76 1.3 3.5 2.6 5.4 3.711c0.726 0.4 1.4 0.9 2.1 1.381c0.109 0.1 0.2 0.4 0.1 0.5 c-0.398 0.472-0.851 0.904-1.286 1.346c-0.882 0.894-1.834 1.728-2.633 2.689c-1.181 1.42-1.736 3.078-1.515 5 c0.094 0.8 0.6 1.2 1.3 0.809c1.011-0.529 2.015-1.081 3.057-1.639c0.981 0.5 1.9 1 2.8 1.5 c3.075 1.6 6.3 2.1 9.8 1.573c0.409-0.059 0.808-0.197 1.208-0.312c0.415-0.12 0.701-0.6 0.577-0.96 c-0.271-0.79-0.59-1.567-0.82-2.37c-0.45-1.559 0.026-2.896 1.135-4.017c0.827-0.834 1.853-1.374 2.965-1.709 c1.203-0.363 2.431-0.615 3.7-0.668c3.243-0.135 6.462-0.651 9.72-0.501c0.415 0 0.837-0.045 1.252-0.099 c1.202-0.156 2.19-0.738 2.902-1.696c0.432-0.58 0.747-1.256 1.065-1.912c0.241-0.499 0.177-1.025-0.116-1.498 c-0.827-1.333-1.677-2.656-2.5-3.992c-0.609-0.986-1.061-2.044-1.277-3.19c-0.187-0.994 0.092-1.89 0.709-2.644 c1.888-2.305 5.586-2.284 7.4 0.032c0.388 0.5 0.7 1 1 1.59c2.268 3.9 3.6 8.3 4.9 12.5 c0.792 2.5 0.8 4.953-0.182 7.398c-0.077 0.195-0.161 0.389-0.22 0.589c-0.183 0.624-0.116 1.2 0.1 1.8 c0.435 1.3 1.3 2.1 2.4 2.813c1.145 0.8 2.3 0.9 3.5 0.308c0.842-0.415 1.699-0.809 2.573-1.15 c0.767-0.295 1.7 0 2.3 0.66c0.325 0.4 0.7 0.8 0.9 1.298c0.536 1.2 1.1 2.5 1.5 3.8 c0.63 2 1.4 3.9 2.6 5.676c0.982 1.4 1.5 3 1.9 4.633c0.487 2.2 0.3 4.4 0.2 6.6 c-0.133 1.775-0.288 3.553-0.303 5.329c-0.023 2.6 0.4 5.2 1.4 7.686c0.746 1.8 1.1 3.6 0.3 5.5 c-0.631 1.578-0.237 3.1 0.6 4.519c0.408 0.7 0.9 1.4 1.4 2.05c0.151 0.2 0.7 0.2 0.8 0 c0.379-0.499 0.761-0.996 1.117-1.509c0.713-1.031 1.406-2.075 2.115-3.109c0.184-0.267 0.691-0.282 0.789-0.038 c0.821 2 1.7 4.1 2.4 6.118c0.751 2 1.1 4 0.3 6.131c-0.27 0.698-0.307 1.451-0.033 2.2 c0.185 0.5 0.5 0.9 0.7 1.351c0.62-0.064 0.8-0.584 1.032-1.026c0.535-1.02 1.032-2.06 1.573-3.074 c0.189-0.356 0.463-0.668 0.685-0.982c0.503 0.2 0.7 0.5 0.9 0.956c0.346 1.1 0.9 2.1 1.5 3.1 c1.552 2.1 3.6 3.1 6.3 2.866c0.983-0.09 1.841-0.468 2.493-1.186c0.488-0.535 0.939-1.135 1.268-1.776 c0.475-0.928 0.844-1.913 1.221-2.889c1.109-2.859 0.969-2.739 3.677-1.236C516.768 197.2 518.5 198.1 520.1 198.969z M549.122 309.053c0.344-3.857 0.787-7.716 0.987-11.58c0.445-8.581 0.424-17.169 0.014-25.754 c-0.115-2.405-0.382-4.803-0.591-7.199c-0.016-0.189-0.129-0.369-0.196-0.554c-0.09 0.057-0.239 0.098-0.257 0.2 c-0.233 0.91-0.48 1.821-0.66 2.744c-0.695 3.541-2.113 6.781-4.078 9.792c-0.458 0.7-0.957 1.374-1.424 2.1 c-0.265 0.394-0.187 0.8 0.1 1.17c0.353 0.5 0.7 1 1.1 1.507c0.831 1.1 1.6 2.2 2.5 3.2 c0.607 0.7 0.6 1.5 0.4 2.356c-0.558 1.69-1.15 3.369-1.735 5.047c-0.137 0.394-0.295 0.782-0.466 1.2 c-0.623 1.381-1.557 2.471-2.953 3.126c-0.378 0.178-0.777 0.337-1.116 0.573c-0.24 0.165-0.466 0.43-0.572 0.7 c-0.306 0.789-0.466 1.622-0.288 2.464c0.195 0.9 0.4 1.8 0.7 2.737c0.219 0.8 0.5 1.6 0.7 2.3 c-0.598 1.143-1.46 1.859-2.479 2.449c-0.903 0.528-1.806 1.073-2.615 1.7 M380.393 311.6 c-0.122-0.428-0.015-0.846 0.313-1.147c0.461-0.422 0.958-0.81 1.446-1.206c1.465-1.189 2.933-2.369 4.4-3.552 c0.333-0.267 0.577-0.575 0.522-1.135c-3.047-2.101-6.237-4.103-9.41-6.132c-0.461-0.297-0.978-0.373-1.506-0.301 c-0.933 0.125-1.86 0.286-2.792 0.426c-0.546 0.078-1.056-0.023-1.421-0.468c-2.179-2.653-3.109-5.657-2.469-9.075 c0.153-0.823 0.387-1.633 0.559-2.449c0.04-0.189 0.004-0.399-0.034-0.591c-0.016-0.079-0.136-0.208-0.193-0.201 c-0.3 0.041-0.617 0.076-0.892 0.193c-2.983 1.276-5.952 2.581-8.942 3.842c-1.059 0.445-2.144 0.863-3.253 1.2 c-3.168 0.823-6.228 0.655-9.047-1.213c-0.436-0.29-0.886-0.553-1.325-0.823c-1.106 1.382-1.178 2.148-0.331 3.3 c0.307 0.4 0.6 0.8 0.9 1.26c0.805 1.2 1.1 2.5 1.1 3.861c-0.023 1.054-0.169 2.09-0.569 3.1 c-0.313 0.776-0.601 1.565-0.951 2.326c-0.918 1.998-1.826 3.993-2.165 6.202c-0.106 0.693-0.645 1.069-1.334 1.1 c-0.281 0.019-0.686-0.06-0.834-0.252c-0.313-0.403-0.517-0.901-0.728-1.378c-0.55-1.245-1.122-2.477-1.965-3.564 c-0.274-0.35-0.823-0.399-1.065-0.049c-1.133 1.633-2.306 3.244-3.369 4.9 M360.514 312.5 c0.681-0.267 1.39-0.486 2.028-0.84c0.44-0.24 0.861-0.613 1.147-1.028c0.678-0.982 0.577-2.129-0.871-2.299 c-0.625-0.074-1.259-0.085-1.872-0.214c-0.921-0.184-1.841-0.399-2.731-0.693c-0.642-0.21-1.024-0.753-1.03-1.438 c-0.004-0.624 0.087-1.249 0.17-1.866c0.078-0.575 0.443-0.975 0.985-1.096c2.143-0.477 4.296-0.918 6.447-1.359 c0.541-0.112 1 0.1 1.5 0.314c1.42 0.7 2.8 1.3 4.2 2.042c0.837 0.4 1.7 0.9 2.4 1.4 c2.056 1.4 3.5 3.3 4.3 5.6 M419.224 311.798c0.157-1.984 0.265-3.971 0.386-5.954c0.028-0.464-0.158-0.81-0.367-0.742 c-0.178 0.057-0.387 0.11-0.502 0.24c-0.488 0.547-0.916 1.145-1.42 1.675c-1.715 1.796-3.783 2.553-6.261 2.1 c-0.822-0.155-1.65-0.282-2.479-0.403c-0.945-0.134-1.891-0.093-2.808 0.155c-1.083 0.297-1.819 0.99-2.14 2.1 M79.211 167.748c0.041-0.125 0.049-0.24 0.107-0.317c0.729-0.969 1.802-1.396 2.898-1.733c0.371-0.114 0.852-0.068 1.2 0.1 c0.686 0.2 1.3 0.6 2 0.926c0.468 0.2 0.9 0.5 1.4 0.683c0.624 0.2 1.2 0.1 1.762-0.346 c0.205-0.177 0.328-0.678 0.191-0.851c-0.193-0.244-0.362-0.516-0.589-0.725c-2.386-2.201-4.782-4.394-7.177-6.586 c-0.153-0.141-0.326-0.259-0.489-0.389c-0.403-0.325-0.82-0.289-1.058 0.105c-0.324 0.538-0.624 1.091-0.951 1.6 c-0.585 0.95-1.423 1.505-2.548 1.622c-0.933 0.097-1.865 0.215-2.797 0.337c-0.293 0.038-0.56 0.445-0.479 0.7 c0.097 0.3 0.2 0.6 0.3 0.885c0.459 1.1 0.9 2.1 1.4 3.156c0.419 1 0.3 1.313-0.477 1.9 c-0.261 0.175-0.531 0.337-0.796 0.504c-3.937 2.505-6.656 5.999-8.39 10.299c-0.707 1.753-1.284 3.544-1.647 5.4 c-0.382 1.949-0.713 3.91-1.081 5.865c-0.155 0.826-0.538 1.123-1.279 0.942c-3.014-0.744-6.016-0.653-9.018 0.1 c-2.036 0.484-4.075 0.958-6.102 1.468c-0.502 0.129-0.996 0.335-1.449 0.588c-0.782 0.44-1.241 1.142-1.234 2 c0.005 0.6 0 1.3 0.2 1.856c1.159 3.5 2.3 6.9 3.9 10.28c1.026 2.2 2.6 4 4.4 5.7 c0.173 0.2 0.6 0 0.803-0.245c0.309-0.543 0.605-1.095 0.914-1.641c0.207-0.363 0.427-0.719 0.645-1.075 c0.138-0.225 0.584-0.318 0.831-0.199c1.395 0.7 2.3 1.8 2.9 3.143c0.615 1.2 1 2.5 1.2 3.9 c0.225 1.2 0.4 2.5 0.7 3.706c0.276 1.3 0.7 2.6 1.5 3.784c0.167 0.3 0.4 0.5 0.6 0.7 c0.468 0.6 1 0.7 1.6 0.355c0.903-0.522 1.8-1.057 2.704-1.577c0.234-0.135 0.7 0 0.8 0.3 c0.186 0.5 0.4 1 0.5 1.464c0.848 2.5 1.6 5 2.6 7.421c1.875 4.8 4.7 8.9 9.1 11.7 c0.803 0.5 1.4 1.2 2 2.01c0.338 0.5 0.7 1.1 1 1.588c2.969 4.6 5.9 9.1 8.9 13.7 c2.979 4.5 6.7 8.3 10.9 11.622c1.731 1.4 3.5 2.6 5.3 3.929c1.861 1.4 3.8 2.7 5.6 4 c2.7 2 5.2 4.2 7.5 6.677c0.212 0.2 0.4 0.5 0.6 0.685c1.594 1.5 3.4 2.4 5.7 2.2 c0.311-0.03 0.627-0.045 0.941-0.068c1.87-0.155 3.5 0.5 5 1.554c0.916 0.7 1.8 1.5 2.6 2.3 c3.656 3.3 7.3 6.6 11 9.898c0.386 0.3 0.8 0.7 1.2 0.98c0.146 0.1 0.4 0.1 0.6 0.1 c0.139-0.055 0.284-0.29 0.288-0.45c0.064-2.131-0.453-4.16-1.162-6.136c-1.328-3.704-3.728-6.526-7.204-8.375 c-1.194-0.636-2.458-1.185-3.747-1.588c-1.916-0.598-3.704-1.436-5.421-2.449c-3.159-1.86-6.312-3.726-9.481-5.566 c-3.265-1.898-6.371-4.027-9.38-6.306c-2.255-1.707-4.5-3.427-7.078-4.646c-0.282-0.133-0.539-0.32-0.809-0.479 c-1.017-0.602-1.775-1.423-2.29-2.506c-1.849-3.897-4.237-7.46-6.701-10.983c-1.562-2.229-3.125-4.457-4.649-6.715 c-1.643-2.432-3.121-4.96-4.384-7.618c-2.142-4.504-3.303-9.265-3.552-14.225c-0.134-2.716-0.009-5.444-0.008-8.165 c0.002-1.274 0.259-2.509 0.644-3.703c0.993-3.083 2.934-5.27 6.102-6.241c0.3-0.092 0.597-0.197 0.902-0.269 c2.571-0.611 4.984-1.58 7.163-3.097c0.251-0.175 0.555-0.302 0.852-0.359c0.144-0.028 0.4 0.1 0.5 0.2 c0.411 1.3 0.2 2.463-0.529 3.578c-0.591 0.857-1.497 1.609-1.585 2.669c-0.084 1 0.2 2.1 0.3 3.1 c0.038 0.3 0 0.6 0.1 0.937c0.414 2.5 0.8 5 1.3 7.426c0.583 2.8 1.5 5.4 3 7.9 c0.22 0.4 0.5 0.7 0.7 1.009c0.143 0.2 0.7 0.1 0.827-0.139c0.713-1.387 0.696-2.838 0.267-4.278 c-0.327-1.102-0.755-2.175-1.182-3.244c-0.593-1.489-0.752-3.038-0.744-4.622c0.01-1.912 0.447-3.737 1.115-5.512 c0.776-2.054 1.59-4.096 2.396-6.142c0.281-0.716 0.732-1.243 1.538-1.424c2.513-0.567 4.626-1.907 6.604-3.493 c0.899-0.723 1.789-1.453 2.693-2.168c1.73-1.365 3.588-2.541 5.518-3.602c1.422-0.784 2.941-1.046 4.554-0.794 c0.807 0.1 1.3 0.7 1.3 1.475c-0.047 1.516-0.497 2.901-1.478 4.051c-0.607 0.712-1.3 1.376-2.051 1.9 c-1.092 0.807-2.277 1.487-3.407 2.245c-0.607 0.407-1.214 0.822-1.758 1.306c-0.564 0.503-0.855 1.176-0.9 1.9 c-0.014 0.2 0.3 0.7 0.5 0.695c0.518 0 1 0.1 1.6 0.128c2.722 0.1 5.4 0.1 8.2 0.2 c1.358 0 2.7 0.2 4.1 0.329c0.399 0 0.9 0.2 1.1 0.45c0.605 0.6 1.1 1.2 1.7 1.9 c0.179 0.211-0.03 0.708-0.303 0.748c-0.618 0.088-1.245 0.137-1.858 0.257c-0.507 0.098-1.055 0.181-1.487 0.4 c-0.984 0.589-1.932 1.245-2.849 1.938c-0.678 0.514-1.172 1.216-1.405 2.04c-0.426 1.509-0.875 3.021-1.164 4.6 c-0.335 1.78-0.123 3.5 0.6 5.239c0.572 1.4 1.5 2.5 2.6 3.525c1.312 1.2 2.6 2.5 3.6 3.9 c0.924 1.3 1.8 2.6 2.7 3.872c1.663 2.5 3.3 5.1 4.9 7.659c0.222 0.3 0.5 0.7 0.8 0.9 c0.083 0.1 0.447-0.008 0.517-0.121c0.625-0.994 0.852-2.125 1.02-3.263c0.246-1.664-0.203-3.113-1.433-4.29 c-0.226-0.216-0.459-0.43-0.687-0.644c-1.491-1.397-2.509-3.086-3.025-5.054c-0.372-1.413-0.652-2.851-0.965-4.279 c-0.079-0.361 0.162-0.588 0.418-0.762c0.167-0.117 0.377-0.202 0.578-0.238c2.779-0.501 5.561-0.992 8.343-1.477 c0.334-0.059 0.8 0.3 1 0.63c0.34 0.8 0.7 1.5 1 2.307c0.422 0.9 0.9 1.9 1.3 2.8 c0.542-0.145 0.789-0.463 0.974-0.839c0.88-1.782 1.761-3.567 2.634-5.353c0.19-0.39 0.427-0.712 0.992-0.853 c0.315 0.3 0.7 0.7 1 1.048c2.067 2.4 1.7 2.1 4.5 1.359c1.205-0.329 2.402-0.756 3.529-1.293 c1.831-0.872 3.335-2.141 4.181-4.023c-0.366-1.08-1.18-1.78-1.817-2.602c-1.154-1.489-2.353-2.945-3.474-4.46 c-0.684-0.923-1.244-1.927-1.593-3.047c-0.387-1.251-0.084-2.309 0.836-3.139c0.612-0.551 1.368-0.948 2.082-1.379 c0.465-0.279 1.023-0.108 1.4 0.383c0.413 0.6 0.8 1.3 1.2 1.825c0.148 0.2 0.5 0.2 0.8 0.3 c0.318-1.129 0.143-2.165-0.01-3.2c-0.091-0.619-0.26-1.229-0.336-1.852c-0.139-1.146-0.187-2.294 0.045-3.44 c0.169-0.834 0.933-1.218 1.627-0.815c1.223 0.7 2.1 1.7 2.6 3.004c0.44 1.2 0.8 2.4 1.1 3.6 c0.278 0.9 0.5 1.8 0.8 2.701c0.413 1.1 1.1 2 2 2.747c0.706 0.5 1.4 0.7 2.3 0.5 c3.306-0.996 6.632-1.921 9.952-2.876c0.099-0.026 0.214-0.054 0.285-0.12c0.146-0.139 0.341-0.288 0.378-0.463 c0.029-0.133-0.114-0.399-0.245-0.455c-1.056-0.459-2.133-0.868-3.193-1.315c-1.445-0.61-2.909-1.189-4.315-1.88 c-0.934-0.457-1.848-1.007-2.658-1.656c-2.342-1.875-3.268-4.279-2.454-7.245c0.14-0.504 0.307-1.001 0.445-1.505 c0.117-0.431-0.096-0.834-0.55-0.961c-2.916-0.834-5.836-1.654-8.759-2.469c-0.19-0.055-0.423-0.047-0.614 0 c-0.183 0.052-0.425 0.167-0.49 0.32c-0.16 0.374-0.28 0.781-0.337 1.185c-0.513 3.723-2.36 6.668-5.242 9 c-0.81 0.655-1.655 1.293-2.56 1.81c-1.582 0.905-2.829 2.141-3.921 3.57c-0.508 0.664-1.033 1.317-1.586 1.9 c-0.561 0.64-1.261 1.11-2.069 1.378c-0.809 0.269-1.645 0.362-2.441-0.042c-0.145-0.072-0.311-0.371-0.269-0.495 c0.175-0.485 0.392-0.965 0.662-1.406c1.859-3.037 3.736-6.063 5.607-9.091c0.386-0.623 0.738-1.27 1.162-1.866 c0.669-0.938 0.827-1.878 0.26-2.925c-0.297-0.552-0.52-1.144-0.774-1.717c-1.911-4.306-3.838-8.603-5.724-12.92 c-0.725-1.662-1.116-1.929 0.82-2.938c0.55-0.288 1.052-0.685 1.529-1.089c1.252-1.064 1.641-2.431 1.102-3.963 c-0.554-1.578-1.206-3.124-1.891-4.652c-0.297-0.659-0.735-1.27-1.197-1.833c-0.816-0.99-1.836-1.715-3.117-1.989 c-0.3-0.064-0.624-0.094-0.923-0.049c-0.168 0.027-0.421 0.222-0.443 0.369c-0.118 0.824-0.171 1.654-0.255 2.5 c-0.122 1.193-0.639 2.2-1.479 3.045c-1.132 1.14-2.376 1.647-3.962 0.876c-0.938-0.455-1.932-0.805-2.922-1.14 c-0.991-0.335-1.995-0.641-3.012-0.874c-1.567-0.362-3.114-0.236-4.636 0.318c-0.666 0.242-1.015 0.69-1.115 1.4 c-0.032 0.207-0.059 0.415-0.094 0.622c-0.39 2.482-0.782 4.964-1.173 7.444c-0.05 0.309-0.108 0.617-0.165 0.9 c-0.069 0.373-0.671 0.592-1.003 0.356c-2.067-1.473-4.022-3.037-4.749-5.645c-0.075-0.267-0.359-0.489-0.579-0.695 c-0.182-0.169-0.426-0.134-0.551 0.085c-0.149 0.257-0.331 0.549-0.336 0.83c-0.034 2.303-0.024 4.607-0.043 6.9 c-0.007 0.836-0.046 1.671-0.091 2.505c-0.021 0.396-0.414 0.815-0.786 0.86c-1.349 0.162-2.705 0.286-4.051 0.5 c-1.346 0.193-2.682 0.467-4.024 0.676c-0.514 0.08-1.043 0.133-1.561 0.109c-1.258-0.055-2.215-0.634-2.684-1.829 c-0.303-0.775-0.534-1.588-0.719-2.402c-0.278-1.222-0.45-2.472-0.736-3.695c-0.696-2.983-2.441-5.047-5.406-5.99 c-0.599-0.19-1.21-0.331-1.817-0.495c-3.542-0.952-7.002-2.141-10.37-3.602c-0.874-0.38-1.714-0.802-2.382-1.489 C80.611 169.5 79.8 168.8 79.2 167.748z M416.886 203.918c-0.704-0.057-1.12-0.109-1.539-0.116 c-0.835-0.015-1.673-0.053-2.504 0.006c-1.471 0.103-2.072 1.434-2.025 2.365c0.016 0.3 0 0.6 0.1 0.9 c0.416 1.2 0.9 2.4 1.3 3.533c0.25 0.7 0.5 1.4 0.7 2.058c0.038 0.13-0.145 0.449-0.271 0.5 c-0.609 0.131-1.228 0.249-1.847 0.262c-1.361 0.025-2.722-0.059-4.081-0.013c-1.826 0.062-3.506 0.56-4.835 1.9 c-0.465 0.476-0.759 1.012-0.63 1.684c0.212 1.1 0.4 2.3 0.7 3.382c0.129 0.5 0.5 0.9 1.1 1 c1.231 0.3 2.5 0.3 3.7 0.268c1.043-0.064 2.093-0.143 3.134-0.089c1.547 0.1 2.8 0.7 3.6 2.1 c0.154 0.3 0.2 0.6 0.5 0.81c0.209 0.2 0.6 0.4 0.8 0.339c0.716-0.134 1.41-0.384 2.108-0.601 c3.897-1.207 7.791-2.416 11.687-3.624c0.5-0.154 1.001-0.305 1.504-0.444c1.259-0.352 2.493-0.236 3.7 0.2 c0.68 0.3 1.3 0.6 2 0.887c1.891 0.9 3.8 1.8 5.7 2.717c2.975 1.4 2.6 1.8 4.334-1.013 c0.221-0.354 0.485-0.683 0.755-1.003c1.12-1.33 2.519-1.858 4.204-1.312c1.089 0.3 2.2 0.8 3.2 1.2 c1.439 0.6 2.9 1.3 4.3 1.947c0.365 0.2 0.928-0.196 0.897-0.566c-0.167-1.982-0.131-3.969-0.094-5.956 c0.026-1.299-0.459-2.454-1.169-3.519c-0.589-0.885-1.343-1.616-2.223-2.192c-0.875-0.57-1.784-1.093-2.703-1.588 c-6.906-3.726-13.841-7.395-20.964-10.701c-1.416-0.657-2.776-1.466-4.079-2.329c-1.698-1.124-2.923-2.678-3.629-4.611 c-0.181-0.491-0.327-0.999-0.557-1.466c-0.325-0.66-0.772-1.247-1.445-1.59c-0.119-0.062-0.483 0.059-0.507 0.2 c-0.13 0.501-0.201 1.02-0.269 1.536c-0.18 1.379-0.942 2.299-2.217 2.794c-0.582 0.227-1.189 0.387-1.786 0.6 c-0.695 0.222-1.397 0.434-2.085 0.678c-0.506 0.181-0.668 0.851-0.375 1.304c0.531 0.8 1.3 1.4 2.2 1.7 c0.884 0.3 1.8 0.5 2.7 0.771c0.896 0.3 1.8 0.6 2.7 0.911c0.231 0.1 0.5 0.5 0.5 0.7 c0.095 1.628-1.141 3.154-2.734 3.284C419.114 204 417.9 203.9 416.9 203.918z M470.126 292 c1.222 0.4 2 1.1 2.9 1.69c0.878 0.6 1.7 1.2 2.7 1.664c1.383 0.7 2.8 0.7 4.21-0.004 c0.555-0.291 1.099-0.611 1.629-0.943c0.71-0.443 1.403-0.91 2.105-1.365c1.703-1.107 3.537-1.777 5.598-1.785 c2.216-0.011 4.355-0.505 6.473-1.115c3.64-1.047 7.032-2.668 10.342-4.474c0.636-0.346 1.236-0.799 1.763-1.294 c0.971-0.914 1.395-2.097 1.186-3.418c-0.13-0.816-0.379-1.626-0.672-2.405c-0.333-0.876-0.806-1.701-1.166-2.57 c-0.517-1.245-1.171-2.447-1.39-3.772c0.836-0.869 1.831-1.086 2.908-1.086c0.918-0.004 1.6 0.4 2.1 1.2 c0.264 0.4 0.5 0.9 0.7 1.408c0.916 2 2.4 3.4 4.4 4.268c0.667 0.3 1.4 0.5 2 0.8 c2.759 1 2.9 0.8 3.46-2.029c0.309-1.472 0.095-2.92-0.186-4.362c-0.24-1.23-0.558-2.451-0.804-3.681 c-0.397-1.968-0.468-3.94 0.012-5.912c0.097-0.403 0.246-0.844 0.17-1.226c-0.298-1.514-0.777-2.18-2.274-1.781 c-1.811 0.483-3.214 1.512-4.166 3.109c-0.424 0.706-0.732 1.497-1.027 2.277c-0.33 0.872-0.585 1.771-0.861 2.6 c-0.284 0.03-0.514 0.127-0.685 0.068c-1.194-0.441-2.223-1.156-3.137-2.029c-1.148-1.1-1.487-2.568-0.812-4.02 c0.393-0.844 0.958-1.61 1.471-2.398c0.8-1.222 1.636-2.424 2.426-3.654c0.22-0.346 0.346-0.757 0.475-1.151 c0.24-0.731-0.043-1.514-0.662-1.929c-0.834-0.56-1.725-0.579-2.296 0.015c-1.088 1.134-2.142 2.296-3.216 3.4 c-0.347 0.369-0.649 0.806-1.224 0.865c-0.552-0.537-0.591-1.321-0.933-1.957c-0.476-0.884-1.215-1.421-2.258-1.448 c-0.209-0.008-0.419-0.008-0.627 0.008c-0.827 0.059-1.709 0.335-2.467 0.134c-1.003-0.263-0.975-1.516-1.528-2.25 c-0.187-0.252-0.335-0.534-0.52-0.787c-1.114-1.539-2.587-2.389-4.525-2.385c-0.771 0.004-1.237 0.42-1.116 1.1 c0.342 2 0.8 3.9 1.8 5.627c1.684 2.8 2.2 5.8 2.1 9.037c-0.09 2.733-0.524 5.413-1.309 8 c-0.087 0.286-0.287 0.538-0.472 0.876c-1.156 0.057-2.225 0.411-3.197 1.069c-2.71 1.84-5.687 3.085-8.853 3.9 c-0.805 0.21-1.585 0.53-2.359 0.846c-0.381 0.155-0.762 0.369-1.071 0.641c-0.304 0.267-0.549 0.625-0.761 1 c-0.266 0.439-0.136 1.1 0.2 1.444c0.238 0.3 0.5 0.3 0.8 0.259c1.452-0.191 2.901-0.413 4.355-0.587 c0.62-0.076 1.254-0.134 1.874-0.091c1.353 0.1 2.4 0.7 2.9 2.021c0.24 0.6 0.4 1.2 0.6 1.8 c0.225 0.708-0.032 1.287-0.648 1.55c-1.748 0.753-3.572 1.247-5.47 1.281c-2.089 0.032-4.187 0.006-6.269-0.148 c-2.189-0.163-4.361-0.534-6.547-0.753c-1.245-0.123-2.502-0.146-3.754-0.184c-0.444-0.015-0.829 0.225-1.053 0.6 c-1.449 2.299-2.873 4.618-4.299 6.932c-0.045 0.072-0.039 0.2 0 0.297c0.135 0.1 0.3 0.3 0.5 0.3 c0.516-0.064 1.033-0.165 1.527-0.32C464.231 293.9 467.1 292.9 470.1 291.975z M327.735 267.9 c-0.604 1.374-1.405 2.477-2.064 3.658c-0.406 0.727-0.827 1.45-1.213 2.188c-0.164 0.316-0.011 0.6 0.2 0.8 c0.217 0.2 0.5 0.4 0.7 0.568c1.905 1.1 4 1.2 6.1 0.829c1.133-0.189 2.268-0.38 3.391-0.613 c2.626-0.543 5.198-0.377 7.7 0.511c1.346 0.5 2.7 0.3 4.008-0.053c0.196-0.047 0.371-0.184 0.549-0.29 c0.512-0.305 0.68-1.238 0.286-1.656c-0.286-0.305-0.578-0.602-0.891-0.876c-1.57-1.382-3.146-2.759-4.72-4.133 c-0.787-0.687-1.576-1.376-2.362-2.065c-0.235-0.208-0.466-0.418-0.692-0.636c-0.597-0.573-0.647-1.047-0.13-1.616 c0.984-1.083 1.987-2.148 2.982-3.225c0.213-0.229 0.426-0.458 0.631-0.697c0.579-0.659 0.561-1.102-0.102-1.542 c-1.833-1.208-3.672-2.405-5.516-3.594c-0.446-0.29-0.867-0.583-1.11-1.187c0.292-0.918 0.624-1.904 0.911-2.901 c0.047-0.165-0.07-0.399-0.155-0.579c-0.084-0.182-0.596-0.079-0.793 0.157c-0.933 1.126-1.856 2.256-2.583 3.6 c0.277 0.8 0.5 1.6 0.8 2.326c0.604 1.6 1.2 3.1 1.8 4.667c0.218 0.6 0 1.02-0.503 1.3 c-1.06 0.585-2.17 0.78-3.323 0.384c-0.986-0.342-1.957-0.734-2.91-1.154c-0.772-0.346-1.547-0.621-2.397-0.67 c-0.286-0.019-0.653 0.29-0.61 0.556c0.067 0.4 0.1 0.8 0.2 1.215C326.592 264.7 327.1 266.2 327.7 267.909z M473.958 247.252c-0.29 0.093-0.51 0.119-0.678 0.229c-2.201 1.415-4.4 2.831-6.583 4.271c-1.753 1.156-3.38 2.473-4.725 4.1 c-1.366 1.664-3.097 2.795-5.093 3.545c-0.978 0.365-1.973 0.689-2.955 1.047c-1.178 0.433-2.354 0.865-3.521 1.3 c-0.284 0.114-0.528 0.328-0.789 0.5c-0.252 0.163-0.275 0.528-0.116 0.81c0.381 0.7 1 1.1 1.7 1.4 c3.85 1.7 7.9 2 12 1.397c2.282-0.354 4.477-1.047 6.506-2.203c1.656-0.941 3.162-2.063 4.27-3.632 c1.665-2.356 2.531-5.032 2.9-7.869c0.063-0.494-0.008-1.081-0.225-1.523C475.959 249.3 475.1 248.1 474 247.252z M525.703 299.068c-0.12-0.244-0.221-0.537-0.393-0.778c-0.365-0.509-0.822-0.96-1.143-1.491 c-0.851-1.408-1.1-2.886-0.559-4.504c0.437-1.306 1.077-2.493 1.803-3.643c0.668-1.062 1.406-2.082 2.031-3.166 c0.898-1.558 1.505-3.221 1.373-5.068c-0.014-0.204-0.072-0.411-0.144-0.604c-0.022-0.055-0.167-0.085-0.257-0.093 c-0.097-0.008-0.226-0.015-0.287 0.042c-0.23 0.206-0.471 0.413-0.645 0.666c-2.74 3.948-5.583 7.828-7.901 12.1 c-2.344 4.283-5.931 7.016-10.71 7.975c-2.739 0.549-5.095 1.789-7.425 3.214c-1.331 0.822-1.73 2.014-1.751 3.4 c-0.002 0.1 0.2 0.3 0.4 0.384c0.623 0.2 1.2 0.1 1.842-0.148c1.202-0.443 2.171-1.23 3.086-2.103 c0.832-0.791 1.692-1.556 2.57-2.292c0.416-0.35 0.938-0.452 1.471-0.238c0.387 0.2 0.8 0.3 1.1 0.5 c2.392 1.1 4.9 1.1 7.4 0.458c0.702-0.191 1.391-0.458 2.056-0.759c2.003-0.912 3.904-2.002 5.663-3.331 C525.447 299.5 525.5 299.3 525.7 299.068z M452.769 307.725c-0.351-0.753-0.781-1.471-1.192-2.197 c-0.358-0.632-0.227-1.191 0.2-1.724c0.716-0.895 1.43-1.8 2.14-2.699c0.968-1.23 1.94-2.457 2.885-3.708 c0.078-0.1-0.008-0.35-0.063-0.515c-0.02-0.061-0.2-0.117-0.28-0.091c-1.995 0.632-4.044 0.997-6.117 1.3 c-1.243 0.155-2.092 0.848-2.638 1.961c-0.505 1.028-1.047 2.04-1.561 3.068c-0.57 1.134-0.918 2.315-0.871 3.6 c0.078 2.063-0.673 3.882-1.795 5.6 M466.405 312.076c-0.389-0.609-0.849-1.177-1.271-1.754 c-0.24 0.125-0.491 0.17-0.585 0.316c-0.22 0.343-0.404 0.723-0.533 1.1 M201.47 161.991c0.531 1.1 1.4 1.9 2.3 2.6 c1.318 1.1 2.8 1.7 4.6 1.65c0.609-0.032 1.4 0.1 1.743-0.388c0.426-0.66-0.353-1.081-0.693-1.562 c-0.422-0.594-0.893-1.157-1.276-1.774c-0.608-0.984-1.032-2.04-1.077-3.225c-0.019-0.493 0.181-1.201-0.297-1.414 c-0.66-0.295-1.108 0.403-1.577 0.775c-0.978 0.78-1.932 1.591-2.878 2.411C201.994 161.3 201.8 161.7 201.5 161.991z M494.689 224.117c-1.178 0.796-2.016 1.84-2.693 3.021c-0.06 0.1 0.1 0.4 0.2 0.5 c0.043 0.1 0.2 0.1 0.3 0.151c1.698 0.6 3.5 0.8 5.2 0.64c0.743-0.066 1.43-0.28 2.065-0.674 c0.219-0.135 0.339-0.276 0.252-0.495c-0.076-0.184-0.148-0.434-0.299-0.519C498.074 225.8 496.5 224.9 494.7 224.117z M509.775 312.362c-0.047-0.172-0.046-0.293-0.102-0.369c-0.836-1.084-1.936-1.84-3.147-2.434 c-0.125-0.064-0.461 0.055-0.539 0.2 M170.104 240.304c-0.064-0.316-0.195-1.022-0.351-1.719 c-0.089-0.403-0.702-0.691-0.96-0.455c-1.07 0.967-2.173 1.902-3.17 2.937c-0.484 0.505-0.777 1.198-1.131 1.8 c-0.184 0.3 0.2 1 0.5 0.925c1.018-0.11 2.051-0.18 3.049-0.399C169.402 243.1 170.1 242.1 170.1 240.304z M533.606 286.087c0.023 1.3 0.6 2.3 1.6 2.948c0.488 0.3 1 0.3 1.36-0.17c2.021-2.81 1.592-4.039-1.23-5.721 c-0.289-0.168-0.854 0.06-1.039 0.377C533.812 284.4 533.7 285.3 533.6 286.087z M177.319 179.3 c-0.032-0.179-0.039-0.282-0.071-0.38c-0.028-0.09-0.079-0.24-0.13-0.244c-0.193-0.015-0.445-0.053-0.578 0 c-0.84 0.627-1.449 1.459-1.965 2.36c-0.42 0.736-0.288 1.6 0.4 2.263c0.293 0.3 0.6 0.5 1 0.8 c0.496 0.4 1 0.1 1.039-0.559C177.079 182.1 177.2 180.6 177.3 179.266z M230.901 242.4 c0 0.418-0.02 0.5 0 0.624c0.024 0.1 0.1 0.2 0.1 0.265c0.172 0.1 0.4 0.2 0.5 0.1 c1.028-0.857 2.031-1.741 3.036-2.627c0.147-0.131 0.01-0.757-0.168-0.836c-1.976-0.878-3.08-0.378-3.45 1.6 C230.933 241.9 230.9 242.3 230.9 242.426z M148.946 132.406c-0.206 0.044-0.415 0.061-0.606 0.1 c-0.409 0.143-0.675 0.443-0.836 0.839c-0.13 0.3 0.1 0.8 0.5 1.005c0.897 0.5 1.8 1 2.7 1.5 c0.203 0.1 0.706-0.225 0.695-0.442c-0.039-0.733-0.193-1.432-0.63-2.031C150.337 132.8 149.7 132.5 148.9 132.406z M392.955 296.343c0.782-0.036 1.293-0.059 1.803-0.097c0.052-0.008 0.138-0.132 0.129-0.189 c-0.013-0.089-0.083-0.233-0.149-0.244c-2.45-0.448-4.901-0.884-7.354-1.31c-0.301-0.053-0.63-0.06-0.926 0 c-0.136 0.03-0.26 0.278-0.317 0.452c-0.076 0.2 0.1 0.4 0.3 0.466C388.697 295.8 391 296.1 393 296.343z M167.482 185.061c-0.392 0.074-0.62 0.068-0.784 0.167c-0.151 0.09-0.304 0.286-0.33 0.5 c-0.026 0.2 0 0.4 0.2 0.531c0.778 0.6 1.7 0.7 2.6 0.71c0.283-0.009 0.579-0.268 0.621-0.569 c0.047-0.356-0.115-0.636-0.409-0.739C168.709 185.4 168 185.2 167.5 185.061z M181.426 170.9 c-0.004-0.09 0.024-0.206-0.022-0.265c-0.692-0.902-1.391-1.799-2.099-2.689c-0.051-0.062-0.239-0.111-0.272-0.077 c-0.118 0.124-0.288 0.293-0.281 0.434c0.049 1 0.5 1.8 1.3 2.39c0.33 0.3 0.7 0.4 1.1 0.4 C181.263 171.1 181.3 171 181.4 170.935z" class="style0"/><path d="M421.061 90.776c0.288 0 1 0.1 1.7 0.3 c4.884 1.1 8.9 3.6 12.1 7.393c1.622 1.9 2.9 4.1 3.9 6.381c1.61 3.6 2.8 7.4 3.4 11.4 c0.299 2 0.6 3.9 0.9 5.886c0.114 0.8 0.2 1.7 0.1 2.495c-0.109 1.239-0.783 2.13-1.973 2.6 c-0.98 0.383-1.991 0.623-3.038 0.73c-0.413 0.044-0.853 0.092-1.216 0.271c-0.351 0.175-0.733 0.465-0.898 0.8 c-0.318 0.651-0.481 1.377-0.73 2.064c-0.376 1.033-0.694 1.252-1.595 0.95c-2.903-0.969-2.698-0.193-3.828-3.459 c-0.58-1.679-1.233-3.331-1.837-5.001c-0.568-1.577-1.001-3.184-1.125-4.87c-0.178-2.45-1.005-4.694-2.329-6.746 c-0.794-1.227-1.596-2.462-2.525-3.585c-2.366-2.855-3.954-6.142-5.421-9.495c-0.413-0.943-0.6-1.997-0.804-3.015 c-0.101-0.501-0.061-1.047 0.008-1.56c0.276-2.096 1.664-3.368 3.776-3.498C419.992 90.8 420.3 90.8 421.1 90.776z" class="style0"/><path d="M316.73 118.977c-0.025-0.354 0.066-0.784-0.08-0.892 c-0.75-0.556-1.558-1.042-2.354-1.531c-3.56-2.191-7.128-4.368-10.681-6.564c-0.348-0.214-0.664-0.503-0.939-0.807 c-0.115-0.128-0.168-0.427-0.1-0.581c0.676-1.532 1.734-2.578 3.511-2.714c1.788-0.134 3.5 0 5.3 0.5 c2.665 0.7 5.1 1.8 7.3 3.44c1.796 1.3 3.3 2.9 4 5.104c0.747 2.2 2.1 4.1 3.7 5.7 c2.173 2.3 4.1 4.7 6.1 7.191c0.247 0.3 0.4 0.7 0.7 1.046c-0.265 0.271-0.438 0.574-0.696 0.7 c-3.231 1.475-6.469 2.93-9.714 4.376c-0.378 0.168-0.796 0.25-1.193 0.374c-0.852 0.268-1.654 0.112-2.422-0.29 c-0.275-0.147-0.534-0.329-0.792-0.506c-3.193-2.181-6.321-4.449-9.398-6.793c-1.832-1.398-3.049-3.116-3.704-5.282 c-0.18-0.592-0.351-1.191-0.47-1.799c-0.024-0.126 0.179-0.408 0.312-0.433c0.509-0.095 1.032-0.147 1.549-0.148 c2.508-0.015 5.016-0.002 7.524-0.011C314.976 119 315.8 119 316.7 118.977z" class="style0"/><path d="M501.241 178.612c-0.053-1.553 0.262-2.981 0.696-4.378 c0.063-0.199 0.513-0.423 0.756-0.395c0.927 0.1 1.8 0.3 2.8 0.47c0.407 0.1 0.8 0.1 1.2 0 c0.146-0.013 0.398-0.273 0.382-0.39c-0.087-0.615-0.214-1.231-0.387-1.827c-0.32-1.1-0.688-2.187-1.021-3.284 c-0.129-0.427 0.225-0.868 0.64-0.832c0.31 0 0.6 0 0.9 0.086c3.409 0.8 6.5 2.3 9 4.8 c3.446 3.2 5.7 7.2 6.6 11.815c0.618 3 0.2 5.809-1.466 8.416c-0.299 0.478-0.729 0.729-1.269 0.8 c-0.31 0.038-0.626 0.039-0.938 0.039c-1.505 0.004-2.579-0.733-3.32-1.985c-0.318-0.536-0.565-1.116-0.818-1.689 c-0.293-0.666-0.503-1.378-0.848-2.016c-0.346-0.632-0.755-1.256-1.242-1.786c-1.022-1.117-1.828-1.026-2.775-0.462 c-0.448 0.27-0.868 0.588-1.332 0.818c-1.106 0.541-2.23 0.534-3.292-0.102c-1.756-1.056-3.05-2.527-3.732-4.473 C501.472 181 501.2 179.8 501.2 178.612z" class="style0"/><path d="M258.077 169.308c-3.453-0.013-4.874-0.982-5.491-3.752 c-0.519-2.337-0.763-4.737-1.115-7.109c-0.054-0.36 0.267-0.877 0.607-1.001c1.076-0.396 2.138-0.853 3.242-1.144 c2.002-0.527 3.936-0.341 5.7 0.861c0.343 0.2 0.7 0.5 1 0.696c2.052 1.4 1.6 1.5 4.6 1 c1.439-0.233 2.904-0.312 4.358-0.449c0.43-0.042 0.8 0.4 0.7 0.809c-2.209 5.276-6.017 8.677-11.667 9.9 C259.217 169.3 258.4 169.3 258.1 169.308z" class="style0"/><path d="M500.61 156.465c0.234-0.283 0.381-0.59 0.626-0.738 c1.337-0.816 2.76-1.413 4.311-1.736c1.991-0.412 3.7 0 5.2 1.409c1.201 1.1 2.3 2.4 2.4 4.2 c-1.081 1.257-2.602 1.684-4.107 2.044c-1.817 0.434-3.511-0.011-4.995-1.151C502.584 159.4 501.4 158.1 500.6 156.465z" class="style0"/><path d="M342.689 229.285c-3.491 2.872-3.646 2.52-7.011 1.7 c-1.409-0.363-2.811-0.8-4.157-1.349c-1.354-0.553-2.593-1.344-3.496-2.556c-0.148-0.197-0.075-0.68 0.149-0.835 c2.289-1.564 4.738-2.065 7.424-1.165c1.398 0.5 2.7 1.1 3.9 1.913C340.573 227.6 341.7 228.2 342.7 229.285z" class="style0"/><path d="M393.633 78.62c-0.572 1.278-1.238 2.553-2.185 3.7 c-0.112 0.13-0.368 0.154-0.565 0.188c-0.088 0.014-0.202-0.053-0.288-0.106c-2.554-1.586-5.109-3.175-7.656-4.772 c-0.474-0.297-0.687-0.864-0.489-1.342c0.318-0.762 0.641-1.526 1.031-2.252c0.41-0.763 1.334-1.084 2.158-0.748 c0.861 0.4 1.7 0.7 2.5 1.21c1.733 1.1 3.4 2.4 5.1 3.569C393.4 78.1 393.5 78.4 393.6 78.62z" class="style0"/><path d="M314.348 157.152c0.044-0.403 0.053-0.717 0.114-1.022 c0.085-0.428 0.333-0.801 0.732-0.945c0.774-0.276 1.568-0.592 2.374-0.664c1.075-0.096 2 0.3 2.8 1.2 c1.534 1.8 1.8 4.3 0.6 6.395c-0.418 0.724-0.881 1.418-1.609 1.868c-0.158 0.098-0.437 0.167-0.582 0.1 c-2.133-1.104-3.615-2.762-4.164-5.145C314.403 158.3 314.4 157.7 314.3 157.152z" class="style0"/><path d="M101.436 123.677c-0.03-1.142 0.162-2.149 0.598-3.12 c0.515-1.149 1.137-2.221 1.972-3.165c0.161-0.183 0.734-0.245 0.852-0.087c0.903 1.2 1.4 2.6 1.5 4 c0.085 0.743-0.147 1.443-0.434 2.121c-0.577 1.368-1.496 2.488-2.561 3.5c-0.397 0.377-0.992 0.192-1.256-0.354 C101.674 125.7 101.4 124.7 101.4 123.677z" class="style0"/><path d="M322.533 100.793c0.678 0 1.2 0 1.7 0.1 c1.42 0.3 2.4 1.1 2.9 2.486c0.17 0.525-0.053 1.026-0.575 1.231c-0.768 0.303-1.543 0.607-2.388 0.5 c-0.401-0.033-0.858-0.084-1.174-0.297c-1.146-0.769-1.871-1.887-2.313-3.178c-0.043-0.132 0.116-0.462 0.242-0.502 C321.486 101 322.1 100.9 322.5 100.793z" class="style0"/></g></g></g></g></svg>