<svg xmlns="http://www.w3.org/2000/svg" version="1.1" x="0" y="0" width="565.9" height="303.9" viewBox="0 0 565.9 303.9" enable-background="new 0 0 565.929 303.875" xml:space="preserve"><style>.style0{clip-rule: evenodd;fill-rule:  evenodd;}</style><g display="none"/><path d="M1.5 309.8c-0.6-6-1.2-12.1-1.3-18.2 0-0.6-0.1-1.3-0.1-1.9 -0.1-0.9 0.1-21 0.2-22 0.1-2.2 0.1-4.4 0.3-6.6 0.5-5.2 0.9-10.4 1.6-15.6 0.8-6.3 1.9-12.6 3.1-18.9 3.2-16 7.7-31.5 13.7-46.6 15-37.9 37.2-70.9 66.5-99.1 30.7-29.5 66.2-51 106.4-64.8 14.7-5 29.7-8.7 45-11.2 5.6-0.9 11.2-1.6 16.8-2.2 6-0.6 12.1-1.1 18.2-1.3 0.7 0 1.5 0 2.2-0.1 0.5-0.1 18.9 0.1 20 0.1 8.2 0.3 16.3 0.9 24.4 1.9 6.7 0.8 13.3 1.9 19.8 3.1 13.9 2.7 27.5 6.4 40.8 11.2 51 18.4 93.4 48.9 127.1 91.2 21.7 27.2 37.6 57.5 47.9 90.8 3.8 12.1 6.7 24.4 8.7 36.9 1.2 7.3 3.1 52.6 3.1 66.6 -0.1 0.3-0.3 0.5-0.4 0.8 -0.1 0.5-0.1 1-0.2 1.6M520.1 199c0.8-0.1 1.1-0.6 1.4-0.9 0.7-0.6 1.3-0.5 1.9 0.1 0.2 0.1 0.3 0.3 0.4 0.4 2 2.4 2.2 1.9 4.2 0.1 0.1-0.1 0.2-0.1 0.2-0.2 2.5-2.3 2.2-2.4 4.5 0.4 1.3 1.6 2.3 3.5 3.1 5.4 1 2.5 1.6 5 1.8 7.6 0.2 2.2 0.3 4.4 0.4 6.6 0 0.8 0.4 1.4 1.2 1.6 0.1 0 0.2 0.1 0.3 0.1 1.9 0.5 1.8 1 1.7 2.4 0 0.7-0.2 1.5-0.3 2.2 -0.1 0.9-0.3 1.9-0.3 2.8 -0.2 2.4 0.6 4.5 2.4 6.2 0.4 0.4 0.8 0.7 1.1 1.1 1.1 1.1 1.6 2.4 1.6 4 0 1-0.2 1.9-0.5 2.8 -0.4 1-0.7 2-1.1 2.9 -0.3 1-0.1 1.9 0.5 2.6 0.3 0.4 0.7 0.7 1.1 1.1 0.2 0.2 0.7 0.2 0.9 0 1.2-1.2 1.8-2.5 1.5-4.2 -0.8-4.2-1.5-8.4-2.3-12.7 -2.6-13.7-6.3-27.1-11.1-40.2 -11.8-32.4-29.5-61.2-52.5-86.8 -4-4.4-8.2-8.7-12.5-12.8 -0.4-0.4-0.8-1-1.6-1 -0.2 0.2-0.4 0.3-0.6 0.6 -1.1 1.2-2.4 1.6-4 1.5 -0.9-0.1-1.9-0.2-2.8-0.3 -2-0.2-3 0.6-3.5 2.8 -0.2 0.6-0.1 1.2-0.1 1.9 0 0.7 0.1 1.5 0.3 2.2 0.2 1.3 0 2.5-0.4 3.7 -1.2 3.3-5.9 3.9-7.9 1.8 -0.3-0.3-0.6-0.6-0.8-1 -0.3-0.6-0.5-1.1-0.7-1.7 -0.3-1-0.4-2.1-0.3-3.1 0.1-0.8-0.3-1.4-0.9-1.9 -3.3-2.8-6-6.1-8.9-9.3 -1.5-1.6-3-3.2-4.6-4.7 -2.2-2.2-5.1-3.3-7.9-4.3 -0.4-0.2-1.2 0.4-1.1 0.8 0.1 0.4 0.1 0.8 0.2 1.2 0.2 1 0.3 2.1 0.5 3.1 0 0.3-0.3 0.6-0.6 0.6 -1.8-0.3-3.5-0.5-5.3-0.8 -1.6-0.3-3-0.8-4.3-1.8 -1.1-0.9-2.4-1.2-3.8-1.2 -0.6 0-1.3 0-1.9 0 -2.4 0.1-4.5-0.7-6.4-2.2 -1-0.8-1.9-1.6-2.7-2.6 -3.4-4.2-4.8-9-4-14.4 0-0.1 0-0.2 0.1-0.3 0.2-0.1 0.4-0.3 0.5-0.3 0.4 0.1 0.8 0.2 1.1 0.5 3.1 1.9 6.3 3.2 9.8 4.3 2.6 0.8 5.2 1.5 7.9 2.2 2.3 0.7 4.5 0.7 6.8-0.1 1.8-0.7 3.7-0.8 5.6-0.8 1.6 0 3.1 0.3 4.6 0.7 6.7 1.8 12.3 5.2 16.4 10.9 0.2 0.3 0.3 0.6 0.6 0.7 0.3 0.3 0.7 0.6 1 0.6 1.7 0.2 3.3 0.2 5 0 0.3 0 0.4-0.2 0.4-0.4 0-0.1 0-0.2-0.1-0.3 -0.5-0.5-1.1-1-1.6-1.5 -10.3-8.4-21.2-16.1-32.6-22.9 -13.6-8.1-27.8-15-42.6-20.6 -0.9-0.3-1.8-0.6-2.7-0.9 -0.4-0.1-0.8 0-1.1 0.3 -0.7 0.8-1.3 1.7-2 2.4 -1.2 1.2-2.8 1.5-4.3 0.8 -0.9-0.4-1.6-0.9-2.4-1.4 -1-0.6-1.9-1.3-2.9-1.9 -3.7-2.2-7.4-4.4-11-6.6 -2.3-1.5-4.8-2.4-7.5-3.1 -7-1.6-14.1-3-21.2-4.2 -3.4-0.5-6.8-1-10.3-1.4 -3.1-0.4-6.3-0.6-9.4-0.9 -5.8-0.6-11.7-0.8-17.6-0.9 -11-0.2-22 0.4-32.9 1.6 -7.2 0.8-14.3 1.8-21.4 3.1 -14.4 2.7-28.6 6.5-42.4 11.6 -19.5 7.2-38.1 16.3-55.3 28.1 -3.5 2.4-7.2 4.7-10.8 7 -2.2 1.4-4.3 2.9-6.3 4.7 -1.6 1.5-3.2 3-4.7 4.6 -2.8 2.8-5.7 5.6-8.5 8.4 -0.2 0.2-0.4 0.5-0.5 0.8 -0.1 0.2 0 0.4 0 0.6 0.1 0.3 0.4 0.6 0.7 0.5 0.6 0 1.3-0.1 1.8-0.3 0.8-0.2 1.5-0.6 2.3-0.9 1.2-0.4 2.4-0.5 3.7-0.1 0.5 0.2 0.9 0.7 0.7 1.2 -0.5 1.4-0.9 2.8-0.9 4.3 0 2.5-1.4 4.3-3.5 5.6 -0.9 0.5-1.9 1-2.8 1.4 -2.4 1-4.9 2-7.3 2.7 -1.9 0.6-3.2 1.5-3.6 3.5 -2.2 5.1-5.6 9.1-10.2 12 -0.6 0.4-1.2 0.8-1.9 1.2 -0.5 0.3-0.8 0.7-0.8 1.3 -0.1 1-0.1 2.1-0.2 3.1 -0.1 1.7-0.3 3.3-0.7 5 -0.9 0.3-1.6 0.5-2.4 0.8 -1.6 0.5-3.2 0.9-4.8 1.4 -0.2 0.1-0.5 0.6-0.4 0.8 0.1 0.3 0.2 0.6 0.3 0.9 1.1 2 3 2.9 5.1 3.1 1 0.1 2.1 0.1 3.1 0.1 1.1 0 2.1 0.2 3.1 0.5 1.3 0.5 2.1 1.4 2.4 2.7 0.3 1.1 0.4 2.3 0.4 3.4 0 1.5 0 2.9 0 4.4 0 1.2 0.3 1.5 1.4 1.6 2.2 0.1 4.4 0 6.6-0.4 3.7-0.7 7.4-1.4 11.2-1.4 3-0.1 5.8-0.9 8.4-2.4 1.3-0.7 2.5-1.5 3.7-2.3 2-1.3 4.1-2.6 6.3-3.5 3.1-1.3 5.4-3.5 7.1-6.4 1-1.7 1.8-3.5 2.2-5.5 0.4-2 1.5-3.4 3.2-4.5 0.6-0.4 1.2-0.8 1.9-1.1 0.3 0.2 0.6 0.4 0.7 0.6 0.4 0.6 0.8 1.2 1.1 1.9 0.6 1.4 1.6 1.8 3 1.8 1.1 0 2.3 0 3.4-0.1 1.8-0.1 3.4-0.9 4.9-2 0.4-0.3 0.8-0.7 1.2-1.1 1-1 2.3-1.4 3.7-1.5 1.6-0.1 3.1 0.1 4.7 0.4 4 0.8 8 1.6 12 2.5 2.4 0.6 4.6 0.2 6.7-0.9 1-0.5 2.1-1 3.1-1.6 3.1-1.7 6.3-3.4 9.4-5 0.6-0.3 1.3-0.7 2-1 0.4-0.2 0.8-0.1 1.2 0.2 0.8 0.6 1.5 1.4 2.1 2.3 0.6 1 0.7 2 0.2 3 -0.5 0.9-1 1.8-1.7 2.6 -1.9 2.2-3.9 4.4-5.8 6.6 -0.3 0.4-0.8 0.7-1.2 1.1 -1.4 1.1-3 1.6-4.7 1 -0.8-0.3-1.6-0.5-2.4-0.8 -0.7-0.3-1.4-0.5-2.1-0.8 -3.6-1.3-7-0.7-10.1 1.6 -0.7 0.5-1.3 1.1-1.9 1.7 -1.4 1.3-2.8 2.6-4.2 3.8 -0.4 0.4-0.8 0.7-1.4 0.8 -0.3-0.3-0.8-0.6-1.1-1 -1.5-1.5-3-2.9-4.5-4.4 -0.2-0.2-0.5-0.4-0.8-0.5 -0.1 0-0.5 0.1-0.5 0.2 0 1 0 2.1 0.1 3.1 0.3 3.1 0.4 6.3-0.7 9.3 -0.3 0.9-0.4 1.9-0.2 2.8 0.1 0.6 0.4 1.2 0.7 1.7 0.1 0.2 0.5 0.4 0.8 0.5 1.6 0.3 2.8-0.4 3.3-1.7 0.2-0.6 0.3-1.2 0.5-1.8 0.2-0.7 0.4-1.4 0.6-2.1 0.2-0.5 0.6-0.9 1.1-1 0.6-0.1 1.2-0.2 1.9-0.3 0.7-0.1 1.4-0.2 2.2-0.3 2-0.4 3.5-1.4 4.6-3 0.5-0.8 1-1.6 1.5-2.4 0.5-0.9 1.1-1.8 1.6-2.7 0.2-0.4 0.6-0.6 1-0.6 2.1 0.2 4.2 0.5 6.2 0.7 0.8 0.1 1.1 0.5 1.1 1.2 0 2.7 0 5.4 0 8.2 0 1.2-0.4 2-1.4 2.6 -1 0.6-1.9 1.2-3 1.7 -1 0.5-2.1 0.9-3.2 1.3 -1.2 0.5-2.3 0.9-3.5 1.5 -1.3 0.6-2.5 1.5-3.5 2.6 -0.2 0.2-0.4 0.5-0.6 0.7 -0.4 0.4-0.3 1.1 0.2 1.3 1.1 0.5 2.3 1.1 3.4 1.6 2.8 1.2 2.7 1.6 5-1 0.5-0.5 0.9-1.1 1.4-1.7 0.7-0.8 1.4-1.6 2.1-2.3 1.3-1.4 2.8-1.7 4.6-1.2 0.4 0.1 0.8 0.3 1.2 0.4 0.5 0.2 1 0.4 1.5 0.6 0.9 0.3 1.2 0.2 1.9-0.6 0.3-0.4 0.6-0.8 0.9-1.3 2.5-3.6 5.1-7.2 7.6-10.8 2.3-3.2 4.7-6.4 7.1-9.6 2.3-3.1 5.3-5.4 8.5-7.4 1.1-0.7 2.3-1 3.6-1 1.2 0 2.3 0.3 3.3 0.9 1.6 1 3.3 1.2 5.1 1.1 0.6-0.1 1.3-0.1 1.9-0.2 1.1-0.1 2.1 0 3.1 0.3 0.2 0.1 0.5 0.5 0.5 0.7 -0.1 0.4-0.1 0.8-0.2 1.2 -0.5 1.3-1.3 2.4-2.4 3.3 -0.9 0.8-1.9 1.6-2.9 2.4 -4.1 3.2-7.5 7-10 11.6 -0.3 0.6-0.6 1.1-0.8 1.7 -0.2 0.4-0.2 0.8-0.3 1.2 -0.2 1.3 0.7 2.3 2 2.3 0.5 0 1.1-0.1 1.5-0.2 3.3-1.1 6.6-2.1 9.8-3.2 0.4-0.1 0.7-0.4 1.1-0.7 -0.2-0.9-0.4-1.7-0.6-2.5 -0.4-1.4-0.8-2.8-1.2-4.2 -0.2-0.8 0-1.4 0.7-1.9 4.3-3.1 8.7-6.2 13-9.4 0.2-0.1 0.3-0.3 0.5-0.3 0.3 0 0.7-0.1 0.9 0.1 0.5 0.4 0.9 0.9 1.3 1.3 0.9 0.9 1.7 1.8 2.6 2.7 0.3 0.3 0.9 0.1 1.1-0.2 0.2-0.5 0.5-0.9 0.6-1.4 0.2-1 0.3-2.1 0.5-3.1 0.8-4 3-6.8 6.5-8.7 1.2-0.6 2.5-1 3.8-1.6 0.9-0.4 1.8-0.7 2.6-1.1 1.7-0.9 2.6-2.4 2.8-4.3 0.1-0.5 0-1 0-1.6 0-0.6 0.3-0.9 0.9-1.2 1.5-0.6 2.9-1.2 4.3-1.8 0.4-0.2 0.6-0.5 0.6-1 0-1-0.1-2.1-0.1-3.1 0-1 0.4-1.8 1.1-2.5 2.7-2.9 7.4-2.9 9.8-1.2 1.1 0.8 2.1 1.7 2.8 2.9 0.8 1.3 0.9 2.7 0.3 4.2 -0.4 0.8-0.9 1.4-1.8 1.5 -1.1 0.2-2.3 0.4-3.4 0.6 -1.6 0.3-2.6 1.3-3 2.9 -0.3 1.4-0.5 2.9-0.8 4.3 -0.4 2.2-0.8 4.3-1.2 6.5 -0.1 0.5-0.3 1-0.4 1.5 -0.8 2-2.2 3.3-4.3 3.7 -1.1 0.2-2.3 0.3-3.4 0.5 -1.3 0.2-2.7 0.3-4 0.6 -0.9 0.2-1.1 0.6-0.9 1.6 0.1 0.6 0.4 1.2 0.4 1.8 0.1 1.2 0.2 2.5 0.2 3.8 0 1.1-0.5 2-1.3 2.8 -0.5 0.4-0.9 0.8-1.5 1.1 -3.6 2-7.3 3.7-11.1 5.1 -1.6 0.6-3.3 0.6-4.9-0.3 -0.4-0.2-0.7-0.5-0.8-0.9 -0.2-1-0.4-2-0.7-3.1 -0.2-1-0.3-2.1-0.9-3 -0.3 0-0.7 0-0.9 0.1 -1.4 0.6-2.9 1.3-4.3 2 -0.6 0.3-1 0.8-0.9 1.5 0.4 3.6 1 7.3 2.3 10.7 0.5 1.4 1.1 2.7 1.6 4.1 0.2 0.6-0.1 1-0.8 1 -1.7 0-3.4-0.1-5-0.1 -2.6 0-5.2 0.2-7.8 0.8 -2.8 0.6-5.4 1.5-7.8 3.2 -0.3 0.2-0.6 0.6-0.8 0.9 -0.1 0.1 0 0.5 0.1 0.6 1.3 0.9 2.7 1.6 4.2 2.1 1 0.3 2.1 0.3 3.1-0.1 0.3-0.1 0.6-0.3 0.9-0.4 0.4-0.2 0.8 0 1.2 0.2 0.4 0.3 0.8 0.7 1.2 1 1.3 1.2 2.6 2.4 3.9 3.6 1.8 1.6 1.8 1.8 4.1 0.8 2.1-0.9 4.2-1.8 6.4-2.7 0.6-0.2 1.1-0.6 1.6-0.8 0.1-0.5-0.1-0.9-0.4-1.2 -0.7-0.6-1.4-1.2-2.1-1.9 -1-1-1.2-2.1-0.7-3.4 0.1-0.2 0.2-0.4 0.3-0.5 0.2-0.1 0.4-0.1 0.6-0.2 0.3 0 0.6 0 0.9 0 1.9 0.2 3.7 0.4 5.6 0.6 1 0.1 1.3 0.5 0.9 1.4 -0.3 0.7-0.6 1.3-0.9 2 -0.3 0.6-0.5 1.1-0.7 1.6 0.4 0.7 1.1 0.8 1.6 1.1 0.7 0.4 1.5 0.8 2.1 1.4 1 0.9 1.5 2 1.4 3.3 -0.1 0.6-0.2 1.3-0.2 1.9 0 1 0.3 1.9 0.9 2.6 0.5 0.6 1 1.1 1.5 1.6 0.3 0.3 0.3 0.8 0.2 1.2 -1.1 2.8-3 4.7-6.1 5.4 -0.8 0.2-1.4 0.1-2.1-0.4 -0.8-0.6-1.6-1.3-2.5-1.9 -0.8-0.6-1.7-1.2-2.8-1.5 -1.5-0.5-2.9-0.4-4.2 0.5 -0.1 0.1-0.1 0.4 0 0.5 0.2 0.2 0.5 0.4 0.7 0.5 0.9 0.4 2 0.8 2.9 1.3 1.2 0.6 1.7 2 1.4 3.2 -0.6 2.7-2.8 4.4-5.5 4.1 -3.4-0.4-6.8-1.1-10.1-2.2 -0.9-0.3-1.7-0.9-2.3-1.6 -0.5-0.6-0.9-1.2-1.3-1.7 -0.5-0.6-0.9-1.1-1.5-1.6 -1.4-1.2-3.5-1.3-5-0.2 -2 1.5-3.3 3.5-3.7 6 -0.7 4.3 1.6 9.1 5.3 11.3 1.2 0.7 3 0.9 4.2-0.7 0.6-0.7 1.1-1.5 1.6-2.3 0.4-0.6 0.8-1.2 1.3-1.8 0.8-0.8 1.8-1.1 2.9-0.8 2 0.5 3.2 1.9 3.9 3.7 -0.7 1.6-1.4 3.1-2.4 4.5 -0.9 0.1-1.9 0.2-2.8 0.4 -1.1 0.2-2.2 0.6-3.1 1.4 -0.5 0.5-1.1 0.9-1.7 1.4 -1.2 0.8-2.4 1.7-3.6 2.5 -2.7 1.6-5.7 2.7-8.9 2.9 -0.4 0-0.8 0.1-1.2 0.1 -1.1 0.2-2 0.7-2.7 1.5 -0.1 0.1-0.2 0.4-0.1 0.6 0.9 1.2 1.8 2.3 2.7 3.5 0.3 0.3 0.7 0.4 1.2 0.2 1.2-0.5 2.3-1.1 3.3-1.8 0.9-0.6 1.7-1.2 2.6-1.8 0.7-0.5 1.4-0.9 2.2-1.3 1.8-0.9 3.6-1 5.5-0.3 0.4 0.1 0.7 0.7 0.6 1 -0.2 0.6-0.4 1.2-0.6 1.8 -0.9 2.6-2.6 4.5-4.9 5.9 -0.6 0.4-1.3 0.8-1.9 1.1 -0.5 0.3-1.1 0.7-1.6 1.1 -1.9 1.5-3 3.5-3 6 0 0.5 0 1.1 0.1 1.6 0.2 1.7 0.4 3.3 0.4 5 0 1.2 0.2 2.3 0.6 3.4 0.1 0.2 0.6 0.4 0.8 0.2 0.3-0.3 0.7-0.5 0.9-0.9 0.6-1 1.1-2 1.7-3 0.5-0.9 0.9-1.9 1.5-2.7 0.7-1 1.7-1.6 2.9-1.6 1.4-0.1 2.4-0.1 2.7 1.8 0.1 0.3 0.2 0.6 0.3 0.9 0.2 0.5 0.5 0.9 1.1 1 2.6 0.4 5.2 0.9 7.7 1.3 2.5 0.5 4.9 0.8 7.5 0.8 1 0 2.1 0.3 3.1 0.5 1.6 0.4 2.6 1.8 2.7 3.5 0 0.8-0.1 1.7-0.2 2.5 -0.2 1-0.5 2-0.6 3.1 -0.2 1.4 0.8 2.9 2.1 3.5 0.3 0.1 0.6 0.2 0.9 0.1 2.5-0.7 5-1.4 7-3.3 2.1-2 4.7-2.5 7.6-2.1 1.4 0.2 2.6 0.7 3.9 1.1 2.1 0.8 4.1 1.5 6.2 2.3 2.9 1 5.3 0.4 7.3-1.9 0.1-0.1 0.1-0.2 0.2-0.2 1.7-1.7 3.4-3.4 5.2-5 0.4-0.4 0.8-0.7 1.2-1 1.7-1.2 3.5-1.3 5.3-0.4 0.7 0.4 1.5 0.8 2.2 1.3 1 0.7 2.1 1.4 3.1 2.1 0.5 0.3 1.1 0.6 1.7 1 0.4-0.5 0.8-1 1.2-1.5 1-1.2 2.3-1.7 3.9-1.7 0.7 0 1.5 0.1 2.2 0.2 3.5 0.5 7.1 0.6 10.7 0.6 1.6 0 3.1 0 4.7 0 0.5 0 1 0 1.6 0.1 0.4 0.1 0.7 0.4 0.9 0.8 0.4 0.9 0.4 1.8 0.4 2.8 0 0.9-0.3 1.7-1 2.2 -0.7 0.6-1.5 1.2-2.2 1.7 -0.7 0.5-0.9 1.1-0.9 1.9 0 3.4 0 6.7 0 10.1 0 0.2 0.1 0.4 0.1 0.6 0 0.3 0.1 0.4 0.4 0.4 0.2 0 0.4 0 0.5-0.2 1-0.9 2-1.9 2.7-3.1 0.4-0.7 0.4-1.4 0.1-2.1 -0.3-0.7-0.8-1.2-1.2-1.9 -0.1-0.3-0.2-0.6-0.3-0.8 1.5-1.6 3.4-2.5 5.5-2.7 2.6-0.3 5.2-0.4 7.8-0.4 2.1 0 4.2 0.2 6.2 0.7 7.4 1.6 13.3 5.5 17.8 11.5 0.6 0.7 0.6 1.5 0.3 2.3 -0.5 1.5-1.4 2.8-2.8 3.7 -0.7 0.5-1.4 0.9-2.2 1.3 -0.6 0.3-1.3 0.6-2 1 0.1 0.4 0.1 0.7 0.3 0.9 0.4 0.6 0.9 1.2 1.3 1.8 1.4 1.9 2.9 3.5 5 4.6 1.6 0.9 2.8 2.2 3.3 4 0.3 1 1.2 1.4 2.1 1.7 0.7 0.1 1.3 0 1.7-0.5 0.3-0.4 0.7-0.8 0.9-1.3 0.4-1.2 0.7-2.4 1-3.6 0.4-1.7 0.2-3.3-0.5-4.9 -0.2-0.4-0.3-0.8-0.5-1.2 -0.7-2.1-1.1-4.2-1.2-6.5 0-0.3 0.4-0.6 0.6-0.5 0.7 0.1 1.4 0.2 2.2 0.4 1.4 0.3 2.8 0.7 4.3 1.1 1.5 0.3 1.5 0.3 2.3-0.9 0.2-0.3 0.4-0.7 0.7-1.1 0.3-0.5 0.8-0.6 1.4-0.5 4.1 1 8.1 2.1 12.2 3.1 0.9 0.2 1.5 0.7 1.8 1.6 0.2 0.5 0.4 1 0.5 1.5 0.3 1.4 0 2.7-1 3.8 -0.5 0.5-1.2 0.8-1.3 1.6 1.1 1.8 2.2 3.6 3.3 5.4 0.6 0.9 1.2 1.7 1.8 2.5 1.1 1.3 2.6 2.1 4.3 2.3 0.5 0.1 1-0.2 1.2-0.8 0.2-0.6 0.3-1.2 0.5-1.8 0.4-1.1 0.7-2.2 1.2-3.3 0.2-0.5 0.5-0.9 0.9-1.3 0.5-0.6 1.2-0.8 2-0.6 0.9 0.2 1.8 0.7 2.5 1.3 0.3 0.3 0.5 0.6 0.5 1.1 -0.1 1.1-0.2 2.3-0.2 3.4 0.1 3.2 1.1 6.2 3.5 8.5 0.2 0.2 0.5 0.4 0.8 0.5 0.1 0.1 0.4 0 0.5-0.1 0.1 0 0.1-0.2 0.1-0.3 -0.5-1.9-0.9-3.9-1.4-5.8 -0.2-0.7-0.4-1.4-0.5-2.1 -0.2-1.8 0.5-3.3 2-4.3 0.9-0.7 1.9-0.8 3-0.5 1.5 0.5 2.9 1.3 3.8 2.6 0.3 0.4 0.6 0.9 1 1.1 0.2 0 0.4 0.1 0.6 0 1.9-0.6 3.8-1.1 5.7-1.8 1.2-0.4 2.3-1 3.4-1.7 3.8-2.5 7.2-5.4 10.6-8.4 0.1-0.1 0.1-0.4 0.1-0.6 0-0.1-0.2-0.1-0.3-0.1 -1.4 0.1-2.7 0.2-4.1 0.3 -0.4 0-0.8 0-1.2-0.1 -0.2 0-0.4-0.2-0.4-0.4 -0.1-0.5-0.2-1-0.2-1.5 0-1.9 0-3.8 0-5.7 0-0.9-0.4-1.4-1.2-1.6 -1.3-0.3-2.4-0.4-3.6 0.4 -1.7 1.1-3.7 1.5-5.7 1.5 -1.6 0-3.1 0-4.7-0.1 -1.9-0.1-3.7 0.3-5.5 1.1 -1.3 0.6-2.7 1.2-4 1.8 -3.6 1.6-7.3 3.2-10.9 4.8 -0.9 0.4-1.5 0.4-2.3-0.3 -4-3.5-7.3-7.5-9.7-12.2 -0.5-1-1-2.1-1.6-3.1 -0.7-1.2-1.5-2.2-2.7-3 -3.7-2.6-7.6-4.9-11.4-7.2 -0.4-0.2-0.8-0.1-1.2 0.1 -0.7 0.6-1.4 1.2-2.2 1.8 -3.1 2.4-6.7 3.4-10.5 3.5 -0.9 0-1.6-0.4-2-1.3 -0.2-0.5-0.4-1-0.6-1.5 -0.4-1.1-0.2-1.6 0.8-2 1.6-0.7 3.3-1.3 5-2 1-0.4 1.1-0.7 0.7-1.7 -0.5-1.2-1-2.3-1.5-3.5 -1.3-3.2-1.5-2.7 1.5-4.5 0.3-0.2 0.5-0.3 0.8-0.4 0.9-0.3 1.8-0.6 2.8-0.3 0.8 0.2 1.6 0.4 2.4 0.6 0.7 0.2 1.4 0.4 2.1 0.6 0.3 0.1 0.7-0.2 0.7-0.4 0.2-1.3 0-2.5-0.2-3.7 -0.1-0.6-0.7-1.1-1.3-1.2 -0.4-0.1-0.8-0.1-1.2-0.1 -4.1-0.3-8.1-1-12-2.3 -3.6-1.2-7.1-2.6-10.5-4.2 -1.2-0.6-2.5-1.2-3.7-1.7 -1.5-0.7-3-0.8-4.6-0.4 -0.3 0.1-0.6 0.2-0.9 0.2 -3.1 0.8-6 0.4-8.9-0.9 -0.7-0.3-1.3-0.7-1.9-1.1 -0.8-0.4-1.5-0.7-2.3-0.9 -0.8-0.2-1.6-0.3-2.5-0.5 -0.5-0.1-1-0.1-1.6-0.1 -1 0.1-1.8-0.3-2.3-1.2 -1.6-2.7-4.1-4.1-7-4.9 -1.2-0.3-2.5-0.5-3.7-0.7 -1.3-0.3-2.7-0.4-4-0.7 -1.8-0.4-3.6-1-5.3-1.8 -3.1-1.5-5.1-4-6-7.3 -0.2-0.6-0.3-1.2-0.3-1.8 -0.1-1.2-0.4-2.3-0.9-3.3 -0.1-0.3-0.3-0.6-0.3-0.9 0-0.3 0.1-0.6 0.2-0.9 0.2-0.3 0.4-0.5 0.7-0.6 1.1-0.8 2-1.8 2.4-3.2 0.5-1.6 1.7-2.6 3.1-3.4 1.3-0.7 2.6-1.3 3.9-2 1.2-0.7 2.4-0.7 3.6-0.2 0.7 0.3 1.3 0.6 2 0.9 1.5 0.7 3 1 4.5 0.1 0.1-0.1 0.2-0.1 0.3-0.1 0.6-0.1 1.1 0 1.4 0.4 0.8 1.1 1.6 2.2 2.4 3.3 0.5 0.7 0.8 1.5 1.7 2 2 0 4 0 6.1 0 1.6 0 3.1-0.4 4.5-1.2 0.3-0.2 0.5-0.3 0.8-0.5 1-0.5 1.9-0.3 2.5 0.6 0.2 0.3 0.4 0.7 0.5 1.1 0.2 0.4 0.1 0.9-0.2 1.2 -0.7 0.6-1.5 1.2-2.2 1.7 -1.5 1.1-3 2.2-4.5 3.4 -0.4 0.3-0.4 0.7-0.3 1.1 0.2 0.7 0.5 1.4 0.7 2.1 0.4 1 1.1 1.8 2 2.4 2.4 1.5 5 2.7 7.7 3.6 1.9 0.6 3.5 0.1 4.8-1.3 0.2-0.2 0.4-0.5 0.6-0.7 1.3-1.7 3-2.9 5-3.7 0.9-0.4 1.8-0.7 2.7-1 1.2-0.4 2.4-0.8 3.6-1.2 1-0.3 1.6-0.8 1.7-2 0-1.7 0.9-3 2.1-4 0.5-0.5 1.1-1 1.7-1.4 1-0.8 1.9-1.6 2.7-2.6 0.2-0.2 0.5-0.3 0.8-0.5 0.8 0.4 1.5 0.8 2.3 1.1 0.3 0.2 0.9 0 1.1-0.3 1.2-1.6 1.7-3.3 1.6-5.3 -0.1-1.8-0.7-3.5-1.7-5 -0.3-0.4-0.8-0.5-1-0.1 -0.6 1.1-1.3 2.2-1.9 3.2 -1.5 2.4-3 4.8-4.9 6.9 -3 3.4-6.6 5.8-11 7 -0.3 0.1-0.6 0.2-0.9 0.3 -1.2 0.3-2.1 0.8-2.9 1.8 -0.2 0.3-0.4 0.5-0.6 0.7 -0.9 1-2 1.2-3.2 0.9 -1-0.3-2-0.7-2.7-1.5 0.3-1 1.2-1.5 1.8-2.1 2-2 4.4-3.6 7.1-4.6 0.4-0.1 0.8-0.3 1.1-0.5 0.5-0.3 0.7-0.7 0.7-1.3 -0.3-1.9-1-3.6-1.9-5.3 -0.8-1.5-1.6-2.9-2.4-4.4 -0.8-1.4-1.5-2.8-1.9-4.3 -0.4-1.4-0.8-2.8-0.7-4.3 0-0.2 0.4-0.6 0.6-0.6 0.6 0.1 1.2 0.3 1.8 0.4 0.6 0.2 1.2 0.2 1.8-0.2 2.2-1.6 4.5-3.1 6.7-4.7 0.6-0.4 0.8-1 0.8-1.6 0-0.7-0.1-1.5-0.3-2.2 -0.2-1-0.6-2-0.8-3 -0.3-1.2-0.4-2.5-0.3-3.7 0.1-1.3 0.7-2.1 1.9-2.7 1.2-0.6 2.4-0.7 3.7-0.5 0.2 0 0.6 0.3 0.6 0.6 0.1 0.5 0.1 1 0.1 1.6 0.1 1.5 0.1 2.9 0.2 4.4 0 0.2 0.2 0.4 0.3 0.5 0.2 0.1 0.5 0 0.6-0.1 1.3-1.4 2.3-3 2.9-4.8 0.6-1.4 0.6-2.9 0-4.3 -0.4-1-0.8-1.9-1.3-2.8 -0.4-0.8-0.9-1.6-1.4-2.5 -0.6-1-0.9-2.1-1-3.3 -0.2-1.4 0.1-2.7 0.9-3.9 1.2-1.7 2.8-2 4.2-0.6 0.3 0.3 0.6 0.6 0.9 0.9 2.2 2.5 3.9 5.2 5 8.3 0.7 2 1.6 3.9 2.6 5.7 2.9 5.3 7.2 8.9 12.9 10.8 1 0.3 2 0.6 3 1.1 4.1 1.8 7.1 4.7 8.9 8.8 0.3 0.7 0.6 1.3 0.9 2 0.6 1.3 1.4 2.2 2.8 2.9 2.7 1.3 5 3.1 7 5.3 1.1 1.1 2.1 2.3 3.2 3.5 0.7 0.8 1.4 1.5 2.1 2.3 1.4 1.7 3.3 2.2 5.3 2.5 0.2 0 0.4-0.1 0.5-0.3 0.2-0.5 0.5-0.9 0.6-1.4 0.3-1 0.4-2.1 0.7-3.1 0.8-2.6 2.3-3.6 5-3.3 0.5 0.1 1 0.2 1.5 0.3 0.7 0.2 1.4 0.5 2.1 0.7 3.3 1.1 6.3 2.8 9.4 4.3 2.8 1.4 5.5 3 7.5 5.5 0.5 0.6 1.2 1.2 1.9 1.7 2 1.5 4.2 2.4 6.7 2.5 1.6 0.1 3.1 0 4.7-0.1 0.2 0 0.4-0.2 0.5-0.3 0.1-0.2 0-0.4-0.1-0.6 -0.7-0.7-1.5-1.5-2.2-2.2 -0.3-0.3-0.6-0.6-0.6-1.1 0.4-0.2 0.9-0.5 1.4-0.7 1.1-0.4 2.2-0.8 3.2-1.2 0.4-0.1 0.8-0.3 1.2-0.5 0.5-0.2 0.8-0.6 0.8-1.2 0-1.7 0.1-3.3 0.1-4.9 0.8-0.9 1.8-1.3 2.7-1.9 0.6-0.4 1.2-0.8 1.8-1.2 0.2-0.2 0.1-0.4-0.1-0.5 -0.3-0.2-0.5-0.3-0.8-0.4 -1.1-0.3-2.3-0.3-3.4-0.2 -2.4 0.3-4.8 0.6-7.2 0.9 -3.3 0.4-6.6 0.9-10 1.3 -0.7 0.1-1.5 0.1-2.2 0 -3.9-0.3-7.7-0.7-11.6-0.9 -1.3-0.1-2.5-0.3-3.6-1 -0.9-0.5-1.9-0.9-2.9-1 -2.4-0.2-4.5-1.1-6.3-2.6 -1.2-1-2.3-2.1-3.6-3.1 -1.4-1.1-1.6-2.3-1-3.9 0.1-0.3 0.2-0.6 0.4-0.9 1.4-0.4 2.9-0.3 4.3 0 1.1 0.2 2.2 0.5 3.4 0.8 4.5 0.9 9.1 1.7 13.7 1.5 5.3-0.2 10.3-1.5 14.9-4.2 4.1-2.4 7.8-5.3 11.1-8.7 0.6-0.6 1.2-1.2 1.7-1.8 0.6-0.7 0.5-1.2-0.4-1.4 -1.8-0.4-3.7-0.7-5.6-1 -0.3-0.1-0.6-0.1-0.9-0.1 -0.4 0-0.8 0.1-1.1 0.5 -0.4 0.6-0.7 1.3-1.1 1.9 -0.8 1.2-1.5 2.5-2.3 3.7 -1.9 2.6-4.5 4-7.8 4.1 -2.3 0.1-4.6 0-6.9-0.2 -6.7-0.7-13.3-1.9-19.8-3.1 -2.4-0.4-4.6-1.4-6.5-3 -1.5-1.3-2.9-2.8-4.3-4.2 -1-1-1.2-2.2-1.1-3.5 0.1-0.8 0.2-1.7 0.2-2.5 0-0.4-0.4-0.8-0.8-0.7 -1.1 0.3-2.2 0.7-3.3 1 -4.4 1.2-8.2-0.4-10.5-4.2 -0.2-0.4-0.4-0.7-0.6-1.1 -1.4-2.8-2.7-5.7-4.1-8.5 -0.3-0.6-0.3-1.2 0-1.8 0.4-0.9 0.8-1.7 1.3-2.5 1.8-3.2 4.3-5.4 7.9-6.3 1.2-0.3 2.4-0.7 3.5-1.1 0.2-0.5 0-0.9-0.2-1.2 -2.9-3.5-5.8-6.9-8.6-10.4 -0.4-0.5-0.8-0.9-1.3-1.4 -4.7-4.9-10.3-8.2-16.9-9.6 -2-0.4-4.1-0.7-6.2-1 -1.2-0.1-2.3-0.4-3.3-0.8 -0.6-0.2-1.1-0.6-1.3-1.3 -0.8-2.3-2.6-3.7-4.8-4.7 -1.3-0.6-2.6-1.3-4-1.9 -0.7-0.3-1.3-0.7-1.9-1.1 -1.1-0.8-1.9-1.9-2.2-3.3 -0.1-0.9-0.1-1.2 0.7-1.5 0.6-0.2 1.2-0.4 1.8-0.6 2.1-0.6 4.2-1.3 6.1-2.5 0.2-0.1 0.4-0.2 0.6-0.3 0.8-0.4 1.6-0.3 2.4 0.1 0.5 0.2 0.9 0.5 1.3 0.8 0.5 0.3 1 0.8 1.5 1.1 0.5 0.3 1.1 0.5 1.8 0.5 0.3 0 0.9-0.4 0.9-0.7 0-0.4 0.1-0.8 0.1-1.2 0-0.9 0-1.9 0-2.8 0-0.8 0.4-1.2 1.1-1.2 4.3-0.1 8.3 1.1 11.9 3.5 1 0.7 2 1.5 3 2.3 1 0.8 1.9 1.6 2.8 2.5 1.8 1.6 3.5 3.3 5.4 4.8 0.5 0.4 1 0.8 1.4 1.3 1 1.1 1.7 2.4 1.8 3.9 0 0.4 0.1 0.8 0.1 1.3 0.4 3.1 1.5 5.9 3.3 8.4 1.3 1.9 2.9 3.5 4.7 5 0.5 0.4 1.1 0.7 1.7 0.6 0.7-0.1 1.5-0.2 2.2-0.3 0.7-0.1 1.2 0.2 1.6 0.8 0.5 0.7 0.9 1.5 0.8 2.3 -0.1 0.8-0.3 1.6-0.4 2.5 -0.1 0.7-0.2 1.4-0.3 2.2 0 0.3 0.2 0.6 0.4 0.8 0.6 0.4 1.3 0.7 2 0.9 0.5 0.2 1 0.2 1.5 0.3 1.7 0.5 3 1.5 3.7 3.1 0.1 0.3 0.3 0.6 0.4 0.9 0.4 1.9 1.6 3.1 3.1 4.2 1.8 1.3 3.5 2.6 5.4 3.7 0.7 0.4 1.4 0.9 2.1 1.4 0.1 0.1 0.2 0.4 0.1 0.5 -0.4 0.5-0.9 0.9-1.3 1.3 -0.9 0.9-1.8 1.7-2.6 2.7 -1.2 1.4-1.7 3.1-1.5 5 0.1 0.8 0.6 1.2 1.3 0.8 1-0.5 2-1.1 3.1-1.6 1 0.5 1.9 1 2.8 1.5 3.1 1.6 6.3 2.1 9.8 1.6 0.4-0.1 0.8-0.2 1.2-0.3 0.4-0.1 0.7-0.6 0.6-1 -0.3-0.8-0.6-1.6-0.8-2.4 -0.4-1.6 0-2.9 1.1-4 0.8-0.8 1.9-1.4 3-1.7 1.2-0.4 2.4-0.6 3.7-0.7 3.2-0.1 6.5-0.7 9.7-0.5 0.4 0 0.8 0 1.3-0.1 1.2-0.2 2.2-0.7 2.9-1.7 0.4-0.6 0.7-1.3 1.1-1.9 0.2-0.5 0.2-1-0.1-1.5 -0.8-1.3-1.7-2.7-2.5-4 -0.6-1-1.1-2-1.3-3.2 -0.2-1 0.1-1.9 0.7-2.6 1.9-2.3 5.6-2.3 7.4 0 0.4 0.5 0.7 1 1 1.6 2.3 3.9 3.6 8.3 4.9 12.5 0.8 2.5 0.8 5-0.2 7.4 -0.1 0.2-0.2 0.4-0.2 0.6 -0.2 0.6-0.1 1.2 0.1 1.8 0.4 1.3 1.3 2.1 2.4 2.8 1.1 0.8 2.3 0.9 3.5 0.3 0.8-0.4 1.7-0.8 2.6-1.1 0.8-0.3 1.7 0 2.3 0.7 0.3 0.4 0.7 0.8 0.9 1.3 0.5 1.2 1.1 2.5 1.5 3.8 0.6 2 1.4 3.9 2.6 5.7 1 1.4 1.5 3 1.9 4.6 0.5 2.2 0.3 4.4 0.2 6.6 -0.1 1.8-0.3 3.6-0.3 5.3 0 2.6 0.4 5.2 1.4 7.7 0.7 1.8 1.1 3.6 0.3 5.5 -0.6 1.6-0.2 3.1 0.6 4.5 0.4 0.7 0.9 1.4 1.4 2.1 0.2 0.2 0.7 0.2 0.8 0 0.4-0.5 0.8-1 1.1-1.5 0.7-1 1.4-2.1 2.1-3.1 0.2-0.3 0.7-0.3 0.8 0 0.8 2 1.7 4.1 2.4 6.1 0.8 2 1.1 4 0.3 6.1 -0.3 0.7-0.3 1.5 0 2.2 0.2 0.5 0.5 0.9 0.7 1.4 0.6-0.1 0.8-0.6 1-1 0.5-1 1-2.1 1.6-3.1 0.2-0.4 0.5-0.7 0.7-1 0.5 0.2 0.7 0.5 0.9 1 0.3 1.1 0.9 2.1 1.5 3.1 1.6 2.1 3.6 3.1 6.3 2.9 1-0.1 1.8-0.5 2.5-1.2 0.5-0.5 0.9-1.1 1.3-1.8 0.5-0.9 0.8-1.9 1.2-2.9 1.1-2.9 1-2.7 3.7-1.2C516.8 197.2 518.5 198.1 520.1 199zM549.1 309.1c0.3-3.9 0.8-7.7 1-11.6 0.4-8.6 0.4-17.2 0-25.8 -0.1-2.4-0.4-4.8-0.6-7.2 0-0.2-0.1-0.4-0.2-0.6 -0.1 0.1-0.2 0.1-0.3 0.2 -0.2 0.9-0.5 1.8-0.7 2.7 -0.7 3.5-2.1 6.8-4.1 9.8 -0.5 0.7-1 1.4-1.4 2.1 -0.3 0.4-0.2 0.8 0.1 1.2 0.4 0.5 0.7 1 1.1 1.5 0.8 1.1 1.6 2.2 2.5 3.2 0.6 0.7 0.6 1.5 0.4 2.4 -0.6 1.7-1.1 3.4-1.7 5 -0.1 0.4-0.3 0.8-0.5 1.2 -0.6 1.4-1.6 2.5-3 3.1 -0.4 0.2-0.8 0.3-1.1 0.6 -0.2 0.2-0.5 0.4-0.6 0.7 -0.3 0.8-0.5 1.6-0.3 2.5 0.2 0.9 0.4 1.8 0.7 2.7 0.2 0.8 0.5 1.6 0.7 2.3 -0.6 1.1-1.5 1.9-2.5 2.4 -0.9 0.5-1.8 1.1-2.6 1.7M380.4 311.6c-0.1-0.4 0-0.8 0.3-1.1 0.5-0.4 1-0.8 1.4-1.2 1.5-1.2 2.9-2.4 4.4-3.6 0.3-0.3 0.6-0.6 0.5-1.1 -3-2.1-6.2-4.1-9.4-6.1 -0.5-0.3-1-0.4-1.5-0.3 -0.9 0.1-1.9 0.3-2.8 0.4 -0.5 0.1-1.1 0-1.4-0.5 -2.2-2.7-3.1-5.7-2.5-9.1 0.2-0.8 0.4-1.6 0.6-2.4 0-0.2 0-0.4 0-0.6 0-0.1-0.1-0.2-0.2-0.2 -0.3 0-0.6 0.1-0.9 0.2 -3 1.3-6 2.6-8.9 3.8 -1.1 0.4-2.1 0.9-3.3 1.2 -3.2 0.8-6.2 0.7-9-1.2 -0.4-0.3-0.9-0.6-1.3-0.8 -1.1 1.4-1.2 2.1-0.3 3.3 0.3 0.4 0.6 0.8 0.9 1.3 0.8 1.2 1.1 2.5 1.1 3.9 0 1.1-0.2 2.1-0.6 3.1 -0.3 0.8-0.6 1.6-1 2.3 -0.9 2-1.8 4-2.2 6.2 -0.1 0.7-0.6 1.1-1.3 1.1 -0.3 0-0.7-0.1-0.8-0.3 -0.3-0.4-0.5-0.9-0.7-1.4 -0.5-1.2-1.1-2.5-2-3.6 -0.3-0.3-0.8-0.4-1.1 0 -1.1 1.6-2.3 3.2-3.4 4.9M360.5 312.5c0.7-0.3 1.4-0.5 2-0.8 0.4-0.2 0.9-0.6 1.1-1 0.7-1 0.6-2.1-0.9-2.3 -0.6-0.1-1.3-0.1-1.9-0.2 -0.9-0.2-1.8-0.4-2.7-0.7 -0.6-0.2-1-0.8-1-1.4 0-0.6 0.1-1.2 0.2-1.9 0.1-0.6 0.4-1 1-1.1 2.1-0.5 4.3-0.9 6.4-1.4 0.5-0.1 1 0.1 1.5 0.3 1.4 0.7 2.8 1.3 4.2 2 0.8 0.4 1.7 0.9 2.4 1.4 2.1 1.4 3.5 3.3 4.3 5.6M419.2 311.8c0.2-2 0.3-4 0.4-6 0-0.5-0.2-0.8-0.4-0.7 -0.2 0.1-0.4 0.1-0.5 0.2 -0.5 0.5-0.9 1.1-1.4 1.7 -1.7 1.8-3.8 2.6-6.3 2.1 -0.8-0.2-1.6-0.3-2.5-0.4 -0.9-0.1-1.9-0.1-2.8 0.2 -1.1 0.3-1.8 1-2.1 2.1M79.2 167.7c0-0.1 0-0.2 0.1-0.3 0.7-1 1.8-1.4 2.9-1.7 0.4-0.1 0.9-0.1 1.2 0.1 0.7 0.2 1.3 0.6 2 0.9 0.5 0.2 0.9 0.5 1.4 0.7 0.6 0.2 1.2 0.1 1.8-0.3 0.2-0.2 0.3-0.7 0.2-0.9 -0.2-0.2-0.4-0.5-0.6-0.7 -2.4-2.2-4.8-4.4-7.2-6.6 -0.2-0.1-0.3-0.3-0.5-0.4 -0.4-0.3-0.8-0.3-1.1 0.1 -0.3 0.5-0.6 1.1-1 1.6 -0.6 1-1.4 1.5-2.5 1.6 -0.9 0.1-1.9 0.2-2.8 0.3 -0.3 0-0.6 0.4-0.5 0.7 0.1 0.3 0.2 0.6 0.3 0.9 0.5 1.1 0.9 2.1 1.4 3.2 0.4 1 0.3 1.3-0.5 1.9 -0.3 0.2-0.5 0.3-0.8 0.5 -3.9 2.5-6.7 6-8.4 10.3 -0.7 1.8-1.3 3.5-1.6 5.4 -0.4 1.9-0.7 3.9-1.1 5.9 -0.2 0.8-0.5 1.1-1.3 0.9 -3-0.7-6-0.7-9 0.1 -2 0.5-4.1 1-6.1 1.5 -0.5 0.1-1 0.3-1.4 0.6 -0.8 0.4-1.2 1.1-1.2 2 0 0.6 0 1.3 0.2 1.9 1.2 3.5 2.3 6.9 3.9 10.3 1 2.2 2.6 4 4.4 5.7 0.2 0.2 0.6 0 0.8-0.2 0.3-0.5 0.6-1.1 0.9-1.6 0.2-0.4 0.4-0.7 0.6-1.1 0.1-0.2 0.6-0.3 0.8-0.2 1.4 0.7 2.3 1.8 2.9 3.1 0.6 1.2 1 2.5 1.2 3.9 0.2 1.2 0.4 2.5 0.7 3.7 0.3 1.3 0.7 2.6 1.5 3.8 0.2 0.3 0.4 0.5 0.6 0.7 0.5 0.6 1 0.7 1.6 0.4 0.9-0.5 1.8-1.1 2.7-1.6 0.2-0.1 0.7 0 0.8 0.3 0.2 0.5 0.4 1 0.5 1.5 0.8 2.5 1.6 5 2.6 7.4 1.9 4.8 4.7 8.9 9.1 11.7 0.8 0.5 1.4 1.2 2 2 0.3 0.5 0.7 1.1 1 1.6 3 4.6 5.9 9.1 8.9 13.7 3 4.5 6.7 8.3 10.9 11.6 1.7 1.4 3.5 2.6 5.3 3.9 1.9 1.4 3.8 2.7 5.6 4 2.7 2 5.2 4.2 7.5 6.7 0.2 0.2 0.4 0.5 0.6 0.7 1.6 1.5 3.4 2.4 5.7 2.2 0.3 0 0.6 0 0.9-0.1 1.9-0.2 3.5 0.5 5 1.6 0.9 0.7 1.8 1.5 2.6 2.3 3.7 3.3 7.3 6.6 11 9.9 0.4 0.3 0.8 0.7 1.2 1 0.1 0.1 0.4 0.1 0.6 0.1 0.1-0.1 0.3-0.3 0.3-0.4 0.1-2.1-0.5-4.2-1.2-6.1 -1.3-3.7-3.7-6.5-7.2-8.4 -1.2-0.6-2.5-1.2-3.7-1.6 -1.9-0.6-3.7-1.4-5.4-2.4 -3.2-1.9-6.3-3.7-9.5-5.6 -3.3-1.9-6.4-4-9.4-6.3 -2.3-1.7-4.5-3.4-7.1-4.6 -0.3-0.1-0.5-0.3-0.8-0.5 -1-0.6-1.8-1.4-2.3-2.5 -1.8-3.9-4.2-7.5-6.7-11 -1.6-2.2-3.1-4.5-4.6-6.7 -1.6-2.4-3.1-5-4.4-7.6 -2.1-4.5-3.3-9.3-3.6-14.2 -0.1-2.7 0-5.4 0-8.2 0-1.3 0.3-2.5 0.6-3.7 1-3.1 2.9-5.3 6.1-6.2 0.3-0.1 0.6-0.2 0.9-0.3 2.6-0.6 5-1.6 7.2-3.1 0.3-0.2 0.6-0.3 0.9-0.4 0.1 0 0.4 0.1 0.5 0.2 0.4 1.3 0.2 2.5-0.5 3.6 -0.6 0.9-1.5 1.6-1.6 2.7 -0.1 1 0.2 2.1 0.3 3.1 0 0.3 0 0.6 0.1 0.9 0.4 2.5 0.8 5 1.3 7.4 0.6 2.8 1.5 5.4 3 7.9 0.2 0.4 0.5 0.7 0.7 1 0.1 0.2 0.7 0.1 0.8-0.1 0.7-1.4 0.7-2.8 0.3-4.3 -0.3-1.1-0.8-2.2-1.2-3.2 -0.6-1.5-0.8-3-0.7-4.6 0-1.9 0.4-3.7 1.1-5.5 0.8-2.1 1.6-4.1 2.4-6.1 0.3-0.7 0.7-1.2 1.5-1.4 2.5-0.6 4.6-1.9 6.6-3.5 0.9-0.7 1.8-1.5 2.7-2.2 1.7-1.4 3.6-2.5 5.5-3.6 1.4-0.8 2.9-1 4.6-0.8 0.8 0.1 1.3 0.7 1.3 1.5 0 1.5-0.5 2.9-1.5 4.1 -0.6 0.7-1.3 1.4-2.1 1.9 -1.1 0.8-2.3 1.5-3.4 2.2 -0.6 0.4-1.2 0.8-1.8 1.3 -0.6 0.5-0.9 1.2-0.9 1.9 0 0.2 0.3 0.7 0.5 0.7 0.5 0 1 0.1 1.6 0.1 2.7 0.1 5.4 0.1 8.2 0.2 1.4 0 2.7 0.2 4.1 0.3 0.4 0 0.9 0.2 1.1 0.5 0.6 0.6 1.1 1.2 1.7 1.9 0.2 0.2 0 0.7-0.3 0.7 -0.6 0.1-1.2 0.1-1.9 0.3 -0.5 0.1-1.1 0.2-1.5 0.4 -1 0.6-1.9 1.2-2.8 1.9 -0.7 0.5-1.2 1.2-1.4 2 -0.4 1.5-0.9 3-1.2 4.6 -0.3 1.8-0.1 3.5 0.6 5.2 0.6 1.4 1.5 2.5 2.6 3.5 1.3 1.2 2.6 2.5 3.6 3.9 0.9 1.3 1.8 2.6 2.7 3.9 1.7 2.5 3.3 5.1 4.9 7.7 0.2 0.3 0.5 0.7 0.8 0.9 0.1 0.1 0.4 0 0.5-0.1 0.6-1 0.9-2.1 1-3.3 0.2-1.7-0.2-3.1-1.4-4.3 -0.2-0.2-0.5-0.4-0.7-0.6 -1.5-1.4-2.5-3.1-3-5.1 -0.4-1.4-0.7-2.9-1-4.3 -0.1-0.4 0.2-0.6 0.4-0.8 0.2-0.1 0.4-0.2 0.6-0.2 2.8-0.5 5.6-1 8.3-1.5 0.3-0.1 0.8 0.3 1 0.6 0.3 0.8 0.7 1.5 1 2.3 0.4 0.9 0.9 1.9 1.3 2.8 0.5-0.1 0.8-0.5 1-0.8 0.9-1.8 1.8-3.6 2.6-5.4 0.2-0.4 0.4-0.7 1-0.9 0.3 0.3 0.7 0.7 1 1 2.1 2.4 1.7 2.1 4.5 1.4 1.2-0.3 2.4-0.8 3.5-1.3 1.8-0.9 3.3-2.1 4.2-4 -0.4-1.1-1.2-1.8-1.8-2.6 -1.2-1.5-2.4-2.9-3.5-4.5 -0.7-0.9-1.2-1.9-1.6-3 -0.4-1.3-0.1-2.3 0.8-3.1 0.6-0.6 1.4-0.9 2.1-1.4 0.5-0.3 1-0.1 1.4 0.4 0.4 0.6 0.8 1.3 1.2 1.8 0.1 0.2 0.5 0.2 0.8 0.3 0.3-1.1 0.1-2.2 0-3.2 -0.1-0.6-0.3-1.2-0.3-1.9 -0.1-1.1-0.2-2.3 0-3.4 0.2-0.8 0.9-1.2 1.6-0.8 1.2 0.7 2.1 1.7 2.6 3 0.4 1.2 0.8 2.4 1.1 3.6 0.3 0.9 0.5 1.8 0.8 2.7 0.4 1.1 1.1 2 2 2.7 0.7 0.5 1.4 0.7 2.3 0.5 3.3-1 6.6-1.9 10-2.9 0.1 0 0.2-0.1 0.3-0.1 0.1-0.1 0.3-0.3 0.4-0.5 0-0.1-0.1-0.4-0.2-0.5 -1.1-0.5-2.1-0.9-3.2-1.3 -1.4-0.6-2.9-1.2-4.3-1.9 -0.9-0.5-1.8-1-2.7-1.7 -2.3-1.9-3.3-4.3-2.5-7.2 0.1-0.5 0.3-1 0.4-1.5 0.1-0.4-0.1-0.8-0.5-1 -2.9-0.8-5.8-1.7-8.8-2.5 -0.2-0.1-0.4 0-0.6 0 -0.2 0.1-0.4 0.2-0.5 0.3 -0.2 0.4-0.3 0.8-0.3 1.2 -0.5 3.7-2.4 6.7-5.2 9 -0.8 0.7-1.7 1.3-2.6 1.8 -1.6 0.9-2.8 2.1-3.9 3.6 -0.5 0.7-1 1.3-1.6 1.9 -0.6 0.6-1.3 1.1-2.1 1.4 -0.8 0.3-1.6 0.4-2.4 0 -0.1-0.1-0.3-0.4-0.3-0.5 0.2-0.5 0.4-1 0.7-1.4 1.9-3 3.7-6.1 5.6-9.1 0.4-0.6 0.7-1.3 1.2-1.9 0.7-0.9 0.8-1.9 0.3-2.9 -0.3-0.6-0.5-1.1-0.8-1.7 -1.9-4.3-3.8-8.6-5.7-12.9 -0.7-1.7-1.1-1.9 0.8-2.9 0.6-0.3 1.1-0.7 1.5-1.1 1.3-1.1 1.6-2.4 1.1-4 -0.6-1.6-1.2-3.1-1.9-4.7 -0.3-0.7-0.7-1.3-1.2-1.8 -0.8-1-1.8-1.7-3.1-2 -0.3-0.1-0.6-0.1-0.9 0 -0.2 0-0.4 0.2-0.4 0.4 -0.1 0.8-0.2 1.7-0.3 2.5 -0.1 1.2-0.6 2.2-1.5 3 -1.1 1.1-2.4 1.6-4 0.9 -0.9-0.5-1.9-0.8-2.9-1.1 -1-0.3-2-0.6-3-0.9 -1.6-0.4-3.1-0.2-4.6 0.3 -0.7 0.2-1 0.7-1.1 1.4 0 0.2-0.1 0.4-0.1 0.6 -0.4 2.5-0.8 5-1.2 7.4 0 0.3-0.1 0.6-0.2 0.9 -0.1 0.4-0.7 0.6-1 0.4 -2.1-1.5-4-3-4.7-5.6 -0.1-0.3-0.4-0.5-0.6-0.7 -0.2-0.2-0.4-0.1-0.6 0.1 -0.1 0.3-0.3 0.5-0.3 0.8 0 2.3 0 4.6 0 6.9 0 0.8 0 1.7-0.1 2.5 0 0.4-0.4 0.8-0.8 0.9 -1.3 0.2-2.7 0.3-4.1 0.5 -1.3 0.2-2.7 0.5-4 0.7 -0.5 0.1-1 0.1-1.6 0.1 -1.3-0.1-2.2-0.6-2.7-1.8 -0.3-0.8-0.5-1.6-0.7-2.4 -0.3-1.2-0.4-2.5-0.7-3.7 -0.7-3-2.4-5-5.4-6 -0.6-0.2-1.2-0.3-1.8-0.5 -3.5-1-7-2.1-10.4-3.6 -0.9-0.4-1.7-0.8-2.4-1.5C80.6 169.5 79.8 168.8 79.2 167.7zM416.9 203.9c-0.7-0.1-1.1-0.1-1.5-0.1 -0.8 0-1.7-0.1-2.5 0 -1.5 0.1-2.1 1.4-2 2.4 0 0.3 0 0.6 0.1 0.9 0.4 1.2 0.9 2.4 1.3 3.5 0.3 0.7 0.5 1.4 0.7 2.1 0 0.1-0.1 0.4-0.3 0.5 -0.6 0.1-1.2 0.2-1.8 0.3 -1.4 0-2.7-0.1-4.1 0 -1.8 0.1-3.5 0.6-4.8 1.9 -0.5 0.5-0.8 1-0.6 1.7 0.2 1.1 0.4 2.3 0.7 3.4 0.1 0.5 0.5 0.9 1.1 1 1.2 0.3 2.5 0.3 3.7 0.3 1-0.1 2.1-0.1 3.1-0.1 1.5 0.1 2.8 0.7 3.6 2.1 0.2 0.3 0.2 0.6 0.5 0.8 0.2 0.2 0.6 0.4 0.8 0.3 0.7-0.1 1.4-0.4 2.1-0.6 3.9-1.2 7.8-2.4 11.7-3.6 0.5-0.2 1-0.3 1.5-0.4 1.3-0.4 2.5-0.2 3.7 0.2 0.7 0.3 1.3 0.6 2 0.9 1.9 0.9 3.8 1.8 5.7 2.7 3 1.4 2.6 1.8 4.3-1 0.2-0.4 0.5-0.7 0.8-1 1.1-1.3 2.5-1.9 4.2-1.3 1.1 0.3 2.2 0.8 3.2 1.2 1.4 0.6 2.9 1.3 4.3 1.9 0.4 0.2 0.9-0.2 0.9-0.6 -0.2-2-0.1-4-0.1-6 0-1.3-0.5-2.5-1.2-3.5 -0.6-0.9-1.3-1.6-2.2-2.2 -0.9-0.6-1.8-1.1-2.7-1.6 -6.9-3.7-13.8-7.4-21-10.7 -1.4-0.7-2.8-1.5-4.1-2.3 -1.7-1.1-2.9-2.7-3.6-4.6 -0.2-0.5-0.3-1-0.6-1.5 -0.3-0.7-0.8-1.2-1.4-1.6 -0.1-0.1-0.5 0.1-0.5 0.2 -0.1 0.5-0.2 1-0.3 1.5 -0.2 1.4-0.9 2.3-2.2 2.8 -0.6 0.2-1.2 0.4-1.8 0.6 -0.7 0.2-1.4 0.4-2.1 0.7 -0.5 0.2-0.7 0.9-0.4 1.3 0.5 0.8 1.3 1.4 2.2 1.7 0.9 0.3 1.8 0.5 2.7 0.8 0.9 0.3 1.8 0.6 2.7 0.9 0.2 0.1 0.5 0.5 0.5 0.7 0.1 1.6-1.1 3.2-2.7 3.3C419.1 204 417.9 203.9 416.9 203.9zM470.1 292c1.2 0.4 2 1.1 2.9 1.7 0.9 0.6 1.7 1.2 2.7 1.7 1.4 0.7 2.8 0.7 4.2 0 0.6-0.3 1.1-0.6 1.6-0.9 0.7-0.4 1.4-0.9 2.1-1.4 1.7-1.1 3.5-1.8 5.6-1.8 2.2 0 4.4-0.5 6.5-1.1 3.6-1 7-2.7 10.3-4.5 0.6-0.3 1.2-0.8 1.8-1.3 1-0.9 1.4-2.1 1.2-3.4 -0.1-0.8-0.4-1.6-0.7-2.4 -0.3-0.9-0.8-1.7-1.2-2.6 -0.5-1.2-1.2-2.4-1.4-3.8 0.8-0.9 1.8-1.1 2.9-1.1 0.9 0 1.6 0.4 2.1 1.2 0.3 0.4 0.5 0.9 0.7 1.4 0.9 2 2.4 3.4 4.4 4.3 0.7 0.3 1.4 0.5 2 0.8 2.8 1 2.9 0.8 3.5-2 0.3-1.5 0.1-2.9-0.2-4.4 -0.2-1.2-0.6-2.5-0.8-3.7 -0.4-2-0.5-3.9 0-5.9 0.1-0.4 0.2-0.8 0.2-1.2 -0.3-1.5-0.8-2.2-2.3-1.8 -1.8 0.5-3.2 1.5-4.2 3.1 -0.4 0.7-0.7 1.5-1 2.3 -0.3 0.9-0.6 1.8-0.9 2.6 -0.3 0-0.5 0.1-0.7 0.1 -1.2-0.4-2.2-1.2-3.1-2 -1.1-1.1-1.5-2.6-0.8-4 0.4-0.8 1-1.6 1.5-2.4 0.8-1.2 1.6-2.4 2.4-3.7 0.2-0.3 0.3-0.8 0.5-1.2 0.2-0.7 0-1.5-0.7-1.9 -0.8-0.6-1.7-0.6-2.3 0 -1.1 1.1-2.1 2.3-3.2 3.4 -0.3 0.4-0.6 0.8-1.2 0.9 -0.6-0.5-0.6-1.3-0.9-2 -0.5-0.9-1.2-1.4-2.3-1.4 -0.2 0-0.4 0-0.6 0 -0.8 0.1-1.7 0.3-2.5 0.1 -1-0.3-1-1.5-1.5-2.2 -0.2-0.3-0.3-0.5-0.5-0.8 -1.1-1.5-2.6-2.4-4.5-2.4 -0.8 0-1.2 0.4-1.1 1.1 0.3 2 0.8 3.9 1.8 5.6 1.7 2.8 2.2 5.8 2.1 9 -0.1 2.7-0.5 5.4-1.3 8 -0.1 0.3-0.3 0.5-0.5 0.9 -1.2 0.1-2.2 0.4-3.2 1.1 -2.7 1.8-5.7 3.1-8.9 3.9 -0.8 0.2-1.6 0.5-2.4 0.8 -0.4 0.2-0.8 0.4-1.1 0.6 -0.3 0.3-0.5 0.6-0.8 1 -0.3 0.4-0.1 1.1 0.2 1.4 0.2 0.3 0.5 0.3 0.8 0.3 1.5-0.2 2.9-0.4 4.4-0.6 0.6-0.1 1.3-0.1 1.9-0.1 1.4 0.1 2.4 0.7 2.9 2 0.2 0.6 0.4 1.2 0.6 1.8 0.2 0.7 0 1.3-0.6 1.6 -1.7 0.8-3.6 1.2-5.5 1.3 -2.1 0-4.2 0-6.3-0.1 -2.2-0.2-4.4-0.5-6.5-0.8 -1.2-0.1-2.5-0.1-3.8-0.2 -0.4 0-0.8 0.2-1.1 0.6 -1.4 2.3-2.9 4.6-4.3 6.9 0 0.1 0 0.2 0 0.3 0.1 0.1 0.3 0.3 0.5 0.3 0.5-0.1 1-0.2 1.5-0.3C464.2 293.9 467.1 292.9 470.1 292zM327.7 267.9c-0.6 1.4-1.4 2.5-2.1 3.7 -0.4 0.7-0.8 1.5-1.2 2.2 -0.2 0.3 0 0.6 0.2 0.8 0.2 0.2 0.5 0.4 0.7 0.6 1.9 1.1 4 1.2 6.1 0.8 1.1-0.2 2.3-0.4 3.4-0.6 2.6-0.5 5.2-0.4 7.7 0.5 1.3 0.5 2.7 0.3 4-0.1 0.2 0 0.4-0.2 0.5-0.3 0.5-0.3 0.7-1.2 0.3-1.7 -0.3-0.3-0.6-0.6-0.9-0.9 -1.6-1.4-3.1-2.8-4.7-4.1 -0.8-0.7-1.6-1.4-2.4-2.1 -0.2-0.2-0.5-0.4-0.7-0.6 -0.6-0.6-0.6-1-0.1-1.6 1-1.1 2-2.1 3-3.2 0.2-0.2 0.4-0.5 0.6-0.7 0.6-0.7 0.6-1.1-0.1-1.5 -1.8-1.2-3.7-2.4-5.5-3.6 -0.4-0.3-0.9-0.6-1.1-1.2 0.3-0.9 0.6-1.9 0.9-2.9 0-0.2-0.1-0.4-0.2-0.6 -0.1-0.2-0.6-0.1-0.8 0.2 -0.9 1.1-1.9 2.3-2.6 3.6 0.3 0.8 0.5 1.6 0.8 2.3 0.6 1.6 1.2 3.1 1.8 4.7 0.2 0.6 0 1-0.5 1.3 -1.1 0.6-2.2 0.8-3.3 0.4 -1-0.3-2-0.7-2.9-1.2 -0.8-0.3-1.5-0.6-2.4-0.7 -0.3 0-0.7 0.3-0.6 0.6 0.1 0.4 0.1 0.8 0.2 1.2C326.6 264.7 327.1 266.2 327.7 267.9zM474 247.3c-0.3 0.1-0.5 0.1-0.7 0.2 -2.2 1.4-4.4 2.8-6.6 4.3 -1.8 1.2-3.4 2.5-4.7 4.1 -1.4 1.7-3.1 2.8-5.1 3.5 -1 0.4-2 0.7-3 1 -1.2 0.4-2.4 0.9-3.5 1.3 -0.3 0.1-0.5 0.3-0.8 0.5 -0.3 0.2-0.3 0.5-0.1 0.8 0.4 0.7 1 1.1 1.7 1.4 3.9 1.7 7.9 2 12 1.4 2.3-0.4 4.5-1 6.5-2.2 1.7-0.9 3.2-2.1 4.3-3.6 1.7-2.4 2.5-5 2.9-7.9 0.1-0.5 0-1.1-0.2-1.5C476 249.3 475.1 248.1 474 247.3zM525.7 299.1c-0.1-0.2-0.2-0.5-0.4-0.8 -0.4-0.5-0.8-1-1.1-1.5 -0.9-1.4-1.1-2.9-0.6-4.5 0.4-1.3 1.1-2.5 1.8-3.6 0.7-1.1 1.4-2.1 2-3.2 0.9-1.6 1.5-3.2 1.4-5.1 0-0.2-0.1-0.4-0.1-0.6 0-0.1-0.2-0.1-0.3-0.1 -0.1 0-0.2 0-0.3 0 -0.2 0.2-0.5 0.4-0.6 0.7 -2.7 3.9-5.6 7.8-7.9 12.1 -2.3 4.3-5.9 7-10.7 8 -2.7 0.5-5.1 1.8-7.4 3.2 -1.3 0.8-1.7 2-1.8 3.4 0 0.1 0.2 0.3 0.4 0.4 0.6 0.2 1.2 0.1 1.8-0.1 1.2-0.4 2.2-1.2 3.1-2.1 0.8-0.8 1.7-1.6 2.6-2.3 0.4-0.3 0.9-0.5 1.5-0.2 0.4 0.2 0.8 0.3 1.1 0.5 2.4 1.1 4.9 1.1 7.4 0.5 0.7-0.2 1.4-0.5 2.1-0.8 2-0.9 3.9-2 5.7-3.3C525.4 299.5 525.5 299.3 525.7 299.1zM452.8 307.7c-0.4-0.8-0.8-1.5-1.2-2.2 -0.4-0.6-0.2-1.2 0.2-1.7 0.7-0.9 1.4-1.8 2.1-2.7 1-1.2 1.9-2.5 2.9-3.7 0.1-0.1 0-0.3-0.1-0.5 0-0.1-0.2-0.1-0.3-0.1 -2 0.6-4 1-6.1 1.3 -1.2 0.2-2.1 0.8-2.6 2 -0.5 1-1 2-1.6 3.1 -0.6 1.1-0.9 2.3-0.9 3.6 0.1 2.1-0.7 3.9-1.8 5.6M466.4 312.1c-0.4-0.6-0.8-1.2-1.3-1.8 -0.2 0.1-0.5 0.2-0.6 0.3 -0.2 0.3-0.4 0.7-0.5 1.1M201.5 162c0.5 1.1 1.4 1.9 2.3 2.6 1.3 1.1 2.8 1.7 4.6 1.7 0.6 0 1.4 0.1 1.7-0.4 0.4-0.7-0.4-1.1-0.7-1.6 -0.4-0.6-0.9-1.2-1.3-1.8 -0.6-1-1-2-1.1-3.2 0-0.5 0.2-1.2-0.3-1.4 -0.7-0.3-1.1 0.4-1.6 0.8 -1 0.8-1.9 1.6-2.9 2.4C202 161.3 201.8 161.7 201.5 162zM494.7 224.1c-1.2 0.8-2 1.8-2.7 3 -0.1 0.1 0.1 0.4 0.2 0.5 0 0.1 0.2 0.1 0.3 0.2 1.7 0.6 3.5 0.8 5.2 0.6 0.7-0.1 1.4-0.3 2.1-0.7 0.2-0.1 0.3-0.3 0.3-0.5 -0.1-0.2-0.1-0.4-0.3-0.5C498.1 225.8 496.5 224.9 494.7 224.1zM509.8 312.4c0-0.2 0-0.3-0.1-0.4 -0.8-1.1-1.9-1.8-3.1-2.4 -0.1-0.1-0.5 0.1-0.5 0.2M170.1 240.3c-0.1-0.3-0.2-1-0.4-1.7 -0.1-0.4-0.7-0.7-1-0.5 -1.1 1-2.2 1.9-3.2 2.9 -0.5 0.5-0.8 1.2-1.1 1.8 -0.2 0.3 0.2 1 0.5 0.9 1-0.1 2.1-0.2 3-0.4C169.4 243.1 170.1 242.1 170.1 240.3zM533.6 286.1c0 1.3 0.6 2.3 1.6 2.9 0.5 0.3 1 0.3 1.4-0.2 2-2.8 1.6-4-1.2-5.7 -0.3-0.2-0.9 0.1-1 0.4C533.8 284.4 533.7 285.3 533.6 286.1zM177.3 179.3c0-0.2 0-0.3-0.1-0.4 0-0.1-0.1-0.2-0.1-0.2 -0.2 0-0.4-0.1-0.6 0 -0.8 0.6-1.4 1.5-2 2.4 -0.4 0.7-0.3 1.6 0.4 2.3 0.3 0.3 0.6 0.5 1 0.8 0.5 0.4 1 0.1 1-0.6C177.1 182.1 177.2 180.6 177.3 179.3zM230.9 242.4c0 0.4 0 0.5 0 0.6 0 0.1 0.1 0.2 0.1 0.3 0.2 0.1 0.4 0.2 0.5 0.1 1-0.9 2-1.7 3-2.6 0.1-0.1 0-0.8-0.2-0.8 -2-0.9-3.1-0.4-3.4 1.6C230.9 241.9 230.9 242.3 230.9 242.4zM148.9 132.4c-0.2 0-0.4 0.1-0.6 0.1 -0.4 0.1-0.7 0.4-0.8 0.8 -0.1 0.3 0.1 0.8 0.5 1 0.9 0.5 1.8 1 2.7 1.5 0.2 0.1 0.7-0.2 0.7-0.4 0-0.7-0.2-1.4-0.6-2C150.3 132.8 149.7 132.5 148.9 132.4zM393 296.3c0.8 0 1.3-0.1 1.8-0.1 0.1 0 0.1-0.1 0.1-0.2 0-0.1-0.1-0.2-0.1-0.2 -2.4-0.4-4.9-0.9-7.4-1.3 -0.3-0.1-0.6-0.1-0.9 0 -0.1 0-0.3 0.3-0.3 0.5 -0.1 0.2 0.1 0.4 0.3 0.5C388.7 295.8 391 296.1 393 296.3zM167.5 185.1c-0.4 0.1-0.6 0.1-0.8 0.2 -0.2 0.1-0.3 0.3-0.3 0.5 0 0.2 0 0.4 0.2 0.5 0.8 0.6 1.7 0.7 2.6 0.7 0.3 0 0.6-0.3 0.6-0.6 0-0.4-0.1-0.6-0.4-0.7C168.7 185.4 168 185.2 167.5 185.1zM181.4 170.9c0-0.1 0-0.2 0-0.3 -0.7-0.9-1.4-1.8-2.1-2.7 -0.1-0.1-0.2-0.1-0.3-0.1 -0.1 0.1-0.3 0.3-0.3 0.4 0 1 0.5 1.8 1.3 2.4 0.3 0.3 0.7 0.4 1.1 0.4C181.3 171.1 181.3 171 181.4 170.9zM421.1 90.8c0.3 0 1 0.1 1.7 0.3 4.9 1.1 8.9 3.6 12.1 7.4 1.6 1.9 2.9 4.1 3.9 6.4 1.6 3.6 2.8 7.4 3.4 11.4 0.3 2 0.6 3.9 0.9 5.9 0.1 0.8 0.2 1.7 0.1 2.5 -0.1 1.2-0.8 2.1-2 2.6 -1 0.4-2 0.6-3 0.7 -0.4 0-0.9 0.1-1.2 0.3 -0.4 0.2-0.7 0.5-0.9 0.8 -0.3 0.7-0.5 1.4-0.7 2.1 -0.4 1-0.7 1.3-1.6 1 -2.9-1-2.7-0.2-3.8-3.5 -0.6-1.7-1.2-3.3-1.8-5 -0.6-1.6-1-3.2-1.1-4.9 -0.2-2.4-1-4.7-2.3-6.7 -0.8-1.2-1.6-2.5-2.5-3.6 -2.4-2.9-4-6.1-5.4-9.5 -0.4-0.9-0.6-2-0.8-3 -0.1-0.5-0.1-1 0-1.6 0.3-2.1 1.7-3.4 3.8-3.5C420 90.8 420.3 90.8 421.1 90.8zM316.7 119c0-0.4 0.1-0.8-0.1-0.9 -0.7-0.6-1.6-1-2.4-1.5 -3.6-2.2-7.1-4.4-10.7-6.6 -0.3-0.2-0.7-0.5-0.9-0.8 -0.1-0.1-0.2-0.4-0.1-0.6 0.7-1.5 1.7-2.6 3.5-2.7 1.8-0.1 3.5 0 5.3 0.5 2.7 0.7 5.1 1.8 7.3 3.4 1.8 1.3 3.3 2.9 4 5.1 0.7 2.2 2.1 4.1 3.7 5.7 2.2 2.3 4.1 4.7 6.1 7.2 0.2 0.3 0.4 0.7 0.7 1 -0.3 0.3-0.4 0.6-0.7 0.7 -3.2 1.5-6.5 2.9-9.7 4.4 -0.4 0.2-0.8 0.3-1.2 0.4 -0.9 0.3-1.7 0.1-2.4-0.3 -0.3-0.1-0.5-0.3-0.8-0.5 -3.2-2.2-6.3-4.4-9.4-6.8 -1.8-1.4-3-3.1-3.7-5.3 -0.2-0.6-0.4-1.2-0.5-1.8 0-0.1 0.2-0.4 0.3-0.4 0.5-0.1 1-0.1 1.5-0.1 2.5 0 5 0 7.5 0C315 119 315.8 119 316.7 119zM501.2 178.6c-0.1-1.6 0.3-3 0.7-4.4 0.1-0.2 0.5-0.4 0.8-0.4 0.9 0.1 1.8 0.3 2.8 0.5 0.4 0.1 0.8 0.1 1.2 0 0.1 0 0.4-0.3 0.4-0.4 -0.1-0.6-0.2-1.2-0.4-1.8 -0.3-1.1-0.7-2.2-1-3.3 -0.1-0.4 0.2-0.9 0.6-0.8 0.3 0 0.6 0 0.9 0.1 3.4 0.8 6.5 2.3 9 4.8 3.4 3.2 5.7 7.2 6.6 11.8 0.6 3 0.2 5.8-1.5 8.4 -0.3 0.5-0.7 0.7-1.3 0.8 -0.3 0-0.6 0-0.9 0 -1.5 0-2.6-0.7-3.3-2 -0.3-0.5-0.6-1.1-0.8-1.7 -0.3-0.7-0.5-1.4-0.8-2 -0.3-0.6-0.8-1.3-1.2-1.8 -1-1.1-1.8-1-2.8-0.5 -0.4 0.3-0.9 0.6-1.3 0.8 -1.1 0.5-2.2 0.5-3.3-0.1 -1.8-1.1-3-2.5-3.7-4.5C501.5 181 501.2 179.8 501.2 178.6zM258.1 169.3c-3.5 0-4.9-1-5.5-3.8 -0.5-2.3-0.8-4.7-1.1-7.1 -0.1-0.4 0.3-0.9 0.6-1 1.1-0.4 2.1-0.9 3.2-1.1 2-0.5 3.9-0.3 5.7 0.9 0.3 0.2 0.7 0.5 1 0.7 2.1 1.4 1.6 1.5 4.6 1 1.4-0.2 2.9-0.3 4.4-0.4 0.4 0 0.8 0.4 0.7 0.8 -2.2 5.3-6 8.7-11.7 9.9C259.2 169.3 258.4 169.3 258.1 169.3zM500.6 156.5c0.2-0.3 0.4-0.6 0.6-0.7 1.3-0.8 2.8-1.4 4.3-1.7 2-0.4 3.7 0 5.2 1.4 1.2 1.1 2.3 2.4 2.4 4.2 -1.1 1.3-2.6 1.7-4.1 2 -1.8 0.4-3.5 0-5-1.2C502.6 159.4 501.4 158.1 500.6 156.5zM342.7 229.3c-3.5 2.9-3.6 2.5-7 1.7 -1.4-0.4-2.8-0.8-4.2-1.3 -1.4-0.6-2.6-1.3-3.5-2.6 -0.1-0.2-0.1-0.7 0.1-0.8 2.3-1.6 4.7-2.1 7.4-1.2 1.4 0.5 2.7 1.1 3.9 1.9C340.6 227.6 341.7 228.2 342.7 229.3zM393.6 78.6c-0.6 1.3-1.2 2.6-2.2 3.7 -0.1 0.1-0.4 0.2-0.6 0.2 -0.1 0-0.2-0.1-0.3-0.1 -2.6-1.6-5.1-3.2-7.7-4.8 -0.5-0.3-0.7-0.9-0.5-1.3 0.3-0.8 0.6-1.5 1-2.3 0.4-0.8 1.3-1.1 2.2-0.7 0.9 0.4 1.7 0.7 2.5 1.2 1.7 1.1 3.4 2.4 5.1 3.6C393.4 78.1 393.5 78.4 393.6 78.6zM314.3 157.2c0-0.4 0.1-0.7 0.1-1 0.1-0.4 0.3-0.8 0.7-0.9 0.8-0.3 1.6-0.6 2.4-0.7 1.1-0.1 2 0.3 2.8 1.2 1.5 1.8 1.8 4.3 0.6 6.4 -0.4 0.7-0.9 1.4-1.6 1.9 -0.2 0.1-0.4 0.2-0.6 0.1 -2.1-1.1-3.6-2.8-4.2-5.1C314.4 158.3 314.4 157.7 314.3 157.2zM101.4 123.7c0-1.1 0.2-2.1 0.6-3.1 0.5-1.1 1.1-2.2 2-3.2 0.2-0.2 0.7-0.2 0.9-0.1 0.9 1.2 1.4 2.6 1.5 4 0.1 0.7-0.1 1.4-0.4 2.1 -0.6 1.4-1.5 2.5-2.6 3.5 -0.4 0.4-1 0.2-1.3-0.4C101.7 125.7 101.4 124.7 101.4 123.7zM322.5 100.8c0.7 0 1.2 0 1.7 0.1 1.4 0.3 2.4 1.1 2.9 2.5 0.2 0.5-0.1 1-0.6 1.2 -0.8 0.3-1.5 0.6-2.4 0.5 -0.4 0-0.9-0.1-1.2-0.3 -1.1-0.8-1.9-1.9-2.3-3.2 0-0.1 0.1-0.5 0.2-0.5C321.5 101 322.1 100.9 322.5 100.8z" class="style0"/></svg>